<?xml version="1.0" encoding="utf-8"?>
<!-- Generator: Adobe Illustrator 23.0.4, SVG Export Plug-In . SVG Version: 6.00 Build 0)  -->
<svg version="1.1" xmlns="http://www.w3.org/2000/svg" xmlns:xlink="http://www.w3.org/1999/xlink" x="0px" y="0px"
	 viewBox="0 0 306.63 307.77" style="enable-background:new 0 0 306.63 307.77;" xml:space="preserve">
<style type="text/css">
	.st0{fill:#FFFFFF;}
	.st1{fill:#5DABC4;}
	.st2{fill:#80D2E0;}
	.st3{fill:#F2616E;}
	.st4{opacity:0.21;fill:#C63449;}
	.st5{opacity:0.44;fill:#C63449;}
	.st6{fill:#E3EEB6;}
	.st7{fill:#4E7F62;}
	.st8{fill:#FB8593;}
	.st9{fill:#5E1214;}
	.st10{fill:#852222;}
	.st11{fill:#FFB459;}
	.st12{fill:#FFE171;}
	.st13{fill:#FFFFFB;}
	.st14{fill:#BAEABA;}
	.st15{fill:#FFAC36;}
	.st16{fill:#FFF595;}
	.st17{fill:#FD9230;}
	.st18{fill:#FF722A;}
	.st19{opacity:0.63;fill:#FFFFFB;}
	.st20{fill:#3A7D8E;}
	.st21{opacity:0.23;fill:#FFFFFB;}
	.st22{fill:#7FBD4F;}
	.st23{fill:#A9DC5D;}
	.st24{fill:#FFF1B0;}
	.st25{fill:#63573C;}
	.st26{fill:#DBC99B;}
	.st27{fill:#E9EBE1;}
	.st28{opacity:0.49;fill:#7F7F7F;}
	.st29{fill:#46633C;}
	.st30{fill:#E35272;}
	.st31{fill:#439C84;}
	.st32{fill:#326260;}
	.st33{fill:#2E3C47;}
	.st34{fill:#6EC2A5;}
	.st35{fill:#FF6B79;}
	.st36{fill:#FFE66B;}
	.st37{fill:#E39246;}
	.st38{fill:#F5E7DA;}
	.st39{fill:#20A7C9;
  animation: morphing 3s ease-in-out infinite;
    transform-origin: 50% 50%;}
	.st40{fill:#A5B7C6;}
  #ball{

  }
  @keyframes morphing {
   0%{
              transform : rotate(10deg);
        }
    50%{
      transform : rotate(0deg);
    }
    100% {

      transform : rotate(10deg);
    }
}
</style>
<g id="background">
	<rect x="1559.51" class="st0" width="500" height="500"/>
</g>
<g id="Objects">
	<path class="st1" d="M1911.6,112.34c-14.93,4.39-35.12-2.47-49.27-2.16c-13.09,0.29-26.5,4.7-35.56,14.15
		c-4.26,4.43-7.44,9.84-9.58,15.6c-4.83,13.01-3.84,28.81,5.18,39.35c11.27,13.17,30.61,14.69,47.09,20.06
		c12.21,3.97,23.57,10.52,33.12,19.09c4.56,4.09,8.79,8.69,14.2,11.56c7.55,4,16.81,4.14,24.89,1.35
		c8.08-2.8,15.02-8.32,20.47-14.91c8.23-9.96,13.52-22.58,23.84-30.35c5.94-4.47,13.63-7.48,16.8-14.19
		c1.17-2.48,1.59-5.27,1.52-8.01c-0.31-12.17-9.52-21.93-16.64-31.82c-6.17-8.58-11.07-18.08-14.49-28.08
		c-3.23-9.44-5.5-19.92-12.96-26.55c-12.04-10.7-21.03,6.05-26.24,14.68c-3.64,6.04-8.35,11.43-13.84,15.86
		C1917.58,110.03,1914.7,111.43,1911.6,112.34z"/>
	<path class="st2" d="M2001.82,130.12c-3.14-1.92-6.16-3.88-7.33-7.25c-1.2-3.47,0.07-7.24,1.06-10.77
		c5.11-18.16-9.29-36.08-28.07-26.12c-6.68,3.54-11.75,10.03-19.01,12.13c-11.49,3.32-22.66-3.82-33.57-5.95
		c-11.98-2.34-25.12,3.78-31.05,14.44c-1.89,3.41-3.1,7.18-5.2,10.47c-5.01,7.84-16.08,10.72-24.95,11.04
		c-3.59,0.13-7.23-0.34-10.76,0.35c-4.27,0.83-8.02,3.28-11.64,5.67c-9.39,6.2-15.96,16.53-15.77,28.12
		c0.16,10.29,6.13,19.95,14.36,26.13c8.23,6.18,18.48,9.2,28.71,10.29c4.03,0.43,8.19,0.6,11.9,2.24c6.7,2.95,5.59,7.81,7.42,13.54
		c1.23,3.86,3.48,7.46,6.74,9.87c4.52,3.34,10.46,4.07,16.07,3.88c5.52-0.19,11.33-1.3,15.46-4.97c3.91-3.48,5.9-8.9,10.27-11.78
		c5.2-3.44,12.12-2.27,18.05-0.36c10.57,3.41,21.11,8.86,32.14,7.51c12.38-1.52,22.86-12.71,23.57-25.17
		c0.13-2.37-0.07-4.84-1.23-6.91c-3.23-5.8-9.69-10.64-6.98-18.36c2.04-5.81,9.74-7.92,14.27-11.3c6.97-5.19,7.57-16.94,1.16-22.81
		C2005.8,132.5,2003.78,131.32,2001.82,130.12z"/>
	<g>

			<text transform="matrix(1 0 0 1 1881.1932 136.9844)" class="st0" style="font-family:'AntipastoPro-DemiBold'; font-size:23.7508px;">SUMMER</text>
		<text transform="matrix(1 0 0 1 1880.9247 174.6895)" class="st0" style="font-family:'Launica'; font-size:43.6274px;">SALE</text>
	</g>
	<path class="st2" d="M1890.87,91.48c0.33,0.5,0.73,0.95,1.24,1.27c1.67,1.02,3.86,0.2,5.46-0.92c3.73-2.62,5.36-10.01-0.85-10.79
		C1891.55,80.39,1888.25,87.51,1890.87,91.48z"/>
	<path class="st2" d="M1883.49,93.2c3.67-3.09,0.4-8.4-3.4-4.61C1877.44,91.24,1880.29,95.91,1883.49,93.2z"/>
	<path class="st2" d="M1818.46,194.59c1.92,0.18,3.91-0.72,4.99-2.31c2.78-4.1-2.09-9.74-6.57-7.88
		C1811.91,186.46,1813.13,194.1,1818.46,194.59z"/>
	<g>
		<g>
			<path class="st3" d="M1812.95,212.27l41.19-61.28c2.77-4.12,8.82-4.12,11.59,0l41.19,61.28c0.7,1.04,0.36,2.44-0.73,3.06
				c-13.53,7.63-29.35,12.01-46.26,12.01c-16.91,0-32.74-4.38-46.26-12.01C1812.59,214.71,1812.25,213.3,1812.95,212.27z"/>
			<path class="st4" d="M1894.52,204.2l-33.6-49.99c-0.29-0.43-0.7-0.52-0.98-0.52c-0.29,0-0.69,0.09-0.98,0.52l-33.6,49.98
				c-0.58,0.87-0.22,2.05,0.75,2.45c10.6,4.35,22.13,6.63,33.84,6.63c11.71,0,23.22-2.27,33.83-6.62
				C1894.74,206.26,1895.1,205.07,1894.52,204.2z"/>
			<path class="st5" d="M1906.93,212.27l-41.19-61.28c-1-1.48-2.42-2.42-3.96-2.84l23.29,52.16c0.51,1.14-0.06,2.47-1.24,2.89
				c-14.63,5.2-30.97,6.81-47.63,3.92c-5.82-1.01-11.42-2.54-16.76-4.5l-6.49,9.65c-0.7,1.04-0.36,2.44,0.73,3.06
				c13.53,7.63,29.35,12.01,46.26,12.01c16.91,0,32.74-4.38,46.26-12.01C1907.29,214.71,1907.62,213.3,1906.93,212.27z"/>
			<path class="st6" d="M1902.95,206.36c-12.79,6.55-27.44,10.27-43.02,10.27s-30.23-3.72-43.02-10.27l-3.97,5.91
				c-0.7,1.04-0.36,2.44,0.73,3.06c13.53,7.63,29.35,12.01,46.26,12.01c16.91,0,32.74-4.38,46.26-12.01
				c1.09-0.61,1.42-2.02,0.73-3.06L1902.95,206.36z"/>
			<path class="st7" d="M1905.93,210.79c-13.47,7.53-29.2,11.86-46,11.86s-32.53-4.33-46-11.86l-0.99,1.48
				c-0.7,1.04-0.36,2.44,0.73,3.06c13.53,7.63,29.35,12.01,46.26,12.01c16.91,0,32.74-4.38,46.26-12.01
				c1.09-0.61,1.42-2.02,0.73-3.06L1905.93,210.79z"/>
		</g>
		<g>
			<path class="st8" d="M1860.41,169.28c-0.13-0.25-0.49-0.25-0.62,0c-0.9,1.78-3.22,6.98,0.31,6.98S1861.31,171.05,1860.41,169.28z
				"/>
			<path class="st9" d="M1860.38,169.26c-0.12-0.23-0.44-0.23-0.56,0c-0.81,1.6-2.89,6.27,0.28,6.27S1861.19,170.85,1860.38,169.26z
				"/>
			<path class="st10" d="M1860.1,170.51c0.01-0.12-0.07-0.14-0.13-0.04c-0.42,0.71-1.6,2.79-0.84,3.02
				C1859.89,173.72,1860.07,171.33,1860.1,170.51z"/>
		</g>
		<g>
			<path class="st8" d="M1860.41,198.28c-0.13-0.25-0.49-0.25-0.62,0c-0.9,1.78-3.22,6.98,0.31,6.98S1861.31,200.06,1860.41,198.28z
				"/>
			<path class="st9" d="M1860.38,198.26c-0.12-0.23-0.44-0.23-0.56,0c-0.81,1.6-2.89,6.27,0.28,6.27S1861.19,199.86,1860.38,198.26z
				"/>
			<path class="st10" d="M1860.1,199.51c0.01-0.12-0.07-0.14-0.13-0.04c-0.42,0.71-1.6,2.79-0.84,3.02
				C1859.89,202.72,1860.07,200.33,1860.1,199.51z"/>
		</g>
		<g>
			<path class="st8" d="M1853.79,181.25c-0.04-0.28-0.38-0.4-0.59-0.2c-1.42,1.4-5.29,5.58-1.95,6.71
				C1854.6,188.89,1854.07,183.22,1853.79,181.25z"/>
			<path class="st9" d="M1853.77,181.22c-0.04-0.25-0.34-0.36-0.53-0.18c-1.28,1.26-4.75,5.01-1.75,6.03
				C1854.49,188.09,1854.02,182.99,1853.77,181.22z"/>
			<path class="st10" d="M1853.1,182.31c0.04-0.11-0.02-0.16-0.11-0.08c-0.63,0.53-2.41,2.13-1.76,2.59
				C1851.87,185.29,1852.8,183.08,1853.1,182.31z"/>
		</g>
		<g>
			<path class="st8" d="M1845.51,194.91c-0.04-0.28-0.38-0.4-0.59-0.2c-1.42,1.4-5.29,5.58-1.95,6.71
				C1846.32,202.55,1845.79,196.88,1845.51,194.91z"/>
			<path class="st9" d="M1845.49,194.88c-0.04-0.25-0.34-0.36-0.53-0.18c-1.28,1.26-4.75,5.01-1.75,6.03
				C1846.21,201.75,1845.74,196.65,1845.49,194.88z"/>
			<path class="st10" d="M1844.82,195.97c0.04-0.11-0.02-0.16-0.11-0.08c-0.63,0.53-2.41,2.13-1.76,2.59
				C1843.59,198.95,1844.52,196.74,1844.82,195.97z"/>
		</g>
		<g>
			<path class="st8" d="M1866.99,181.1c-0.22-0.18-0.55-0.03-0.56,0.25c-0.09,1.99-0.09,7.68,3.13,6.25
				C1872.78,186.16,1868.54,182.36,1866.99,181.1z"/>
			<path class="st9" d="M1866.96,181.1c-0.2-0.16-0.5-0.03-0.51,0.23c-0.08,1.79-0.08,6.91,2.81,5.61
				C1872.16,185.64,1868.35,182.23,1866.96,181.1z"/>
			<path class="st10" d="M1867.21,182.35c-0.04-0.11-0.12-0.1-0.14,0.02c-0.1,0.82-0.32,3.2,0.47,3.1
				C1868.33,185.37,1867.52,183.12,1867.21,182.35z"/>
		</g>
		<g>
			<path class="st8" d="M1875.68,196.08c-0.22-0.18-0.55-0.03-0.56,0.25c-0.09,1.99-0.09,7.68,3.13,6.25
				C1881.46,201.14,1877.22,197.34,1875.68,196.08z"/>
			<path class="st9" d="M1875.64,196.08c-0.2-0.16-0.5-0.03-0.51,0.23c-0.08,1.79-0.08,6.91,2.81,5.61
				C1880.84,200.62,1877.03,197.21,1875.64,196.08z"/>
			<path class="st10" d="M1875.9,197.33c-0.04-0.11-0.12-0.1-0.14,0.02c-0.1,0.82-0.32,3.2,0.47,3.1
				C1877.02,200.35,1876.2,198.1,1875.9,197.33z"/>
		</g>
	</g>
	<g>

			<text transform="matrix(1 0 0 1 1913.0389 189.3174)" class="st0" style="font-family:'AntipastoPro-DemiBold'; font-size:13.4101px;">UP TO</text>

			<text transform="matrix(1 0 0 1 1914.3143 197.48)" class="st0" style="font-family:'AntipastoPro-DemiBold'; font-size:8.6655px;">50% OFF</text>
	</g>
	<g>
		<path class="st11" d="M1668.07,95.91c-0.36,7.48,2.08,15.75-1.94,22.07c-4.54,7.14-11.7,1.76-18.52,2.04
			c-7.72,0.31-15.66,2.32-22.11,6.7c-7.06,4.79-10.55,14.4-12.24,22.57c-3.71,17.9,0.94,37.42,9.7,53.19
			c11.5,20.71,35.53,32.36,57.51,20.71c2.84-1.51,5.52-3.32,8.47-4.61c11.24-4.91,24.41-0.07,36.13-0.89
			c13.98-0.99,27.07-0.97,39.55-8.49c17.42-10.5,26.45-35.9,14.31-53.28c-5.38-7.7-12.39-14.48-15.76-23.25
			c-4.73-12.34-1.47-26.59-5.92-39.03c-4.63-12.94-17.33-21.94-30.82-24.55c-17.05-3.31-50.61,1.95-57.36,21.27
			C1668.44,92.12,1668.16,93.99,1668.07,95.91z"/>
		<path class="st12" d="M1664.99,90.01c-13.92,0.52-27.87,5.02-38.63,13.86c-6.04,4.96-11.09,11.4-13.25,18.91
			c-3.56,12.36,1.11,25.59,7.19,36.93c12.53,23.37,31.46,43.27,54.17,56.96c3.37,2.03,6.86,3.94,10.62,5.11
			c5.19,1.6,10.71,1.72,16.14,1.83c6.96,0.14,14.02,0.26,20.77-1.44c6.34-1.6,12.18-4.76,17.69-8.28
			c16.52-10.55,31.17-25.18,37.89-43.59c6.73-18.41,4.22-40.88-9.41-54.97c-7.24-7.49-17-12.16-27.06-14.87
			c-11.78-3.17-23.58-3.27-35.58-4.42C1691.73,94.71,1679.1,89.48,1664.99,90.01z"/>
		<path class="st12" d="M1666.49,81.27c2.98-1.99,4.36-6.08,3.19-9.47c-0.2-0.59-0.48-1.16-0.87-1.64
			c-1.19-1.46-3.25-1.89-5.12-1.77C1649.66,69.3,1654.67,89.14,1666.49,81.27z"/>
		<g>
			<path class="st13" d="M1659.91,135.71l-36.24,9.31l24.88,76.97l0.01,0c0,0-0.01,0.01-0.01,0.01c0,0,13.57,5.59,26.67-6.85
				c0,0-0.01,0-0.01,0l0.01,0L1659.91,135.71z"/>
			<path class="st14" d="M1658.2,140.51l14.2,73.71c-1.24,1.08-2.52,2.03-3.84,2.85c-1.79,1.11-3.66,1.97-5.58,2.57
				c-0.38,0.12-0.76,0.23-1.14,0.33c-3.13,0.8-5.94,0.81-8.09,0.58l3.55-3.46l-7.05,1.81l-22.68-70.2
				c4.37,1.58,12.52,3.28,21.3-1.08c1.78-0.89,3.59-2.03,5.4-3.47C1655.59,143.09,1656.9,141.89,1658.2,140.51z"/>
			<path class="st15" d="M1662.11,160.76l0.05,0.25l2.22,11.51l3.69,19.14l4.35,22.55c-3.26,2.84-6.81,4.77-10.57,5.74
				c-1.45,0.37-2.99,0.63-4.45,0.78c-1.26,0.13-2.53,0.03-3.74-0.29c-1.21-0.31-2.37-0.84-3.4-1.56l-6.7-20.73l-6.01-18.62
				l-3.63-11.23l-0.1-0.3C1644.68,156.44,1660.05,160.19,1662.11,160.76z"/>
			<path class="st13" d="M1623.66,145.02c0,0,19.49,11.52,36.24-9.31C1659.91,135.71,1637.72,126.35,1623.66,145.02z"/>
			<path class="st14" d="M1642.65,145.98c-7.03,1.8-13.28-0.12-16.42-1.45c3.65-4.12,8.22-6.94,13.57-8.31
				c7.17-1.84,13.87-0.6,17.3,0.35C1652.64,141.52,1647.82,144.65,1642.65,145.98C1642.65,145.98,1642.65,145.98,1642.65,145.98z"/>
			<path class="st16" d="M1662.11,160.76l0.05,0.25c-12.71,12.8-26.17,8.13-28.24,7.3l-0.1-0.3
				C1644.68,156.44,1660.05,160.19,1662.11,160.76z"/>
			<path class="st17" d="M1664.37,172.52l3.69,19.14l4.35,22.55c-3.26,2.84-6.81,4.77-10.57,5.74c-1.45,0.37-2.99,0.63-4.45,0.78
				c-1.26,0.13-2.53,0.03-3.74-0.29c-1.21-0.31-2.37-0.84-3.4-1.56l-6.7-20.73l-6.01-18.62
				C1641.13,180.75,1652.98,183.51,1664.37,172.52z"/>
			<path class="st18" d="M1668.06,191.67l4.35,22.55c-3.26,2.84-6.81,4.77-10.57,5.74c-1.45,0.37-2.99,0.63-4.45,0.78
				c-0.58,0.06-1.15,0.07-1.72,0.04c-0.68-0.04-1.36-0.15-2.01-0.32c-0.41-0.11-0.81-0.24-1.21-0.39c-0.77-0.3-1.5-0.69-2.19-1.17
				l-6.7-20.73c1.76,0.47,4.38,0.93,7.51,0.79c1.05-0.04,2.17-0.16,3.33-0.37C1658.57,197.83,1663.33,195.89,1668.06,191.67z"/>
			<path class="st19" d="M1654.28,144.14l14.28,72.92c-1.79,1.11-3.66,1.97-5.58,2.57l-14.11-72.02
				C1650.66,146.72,1652.47,145.58,1654.28,144.14z"/>
			<path class="st20" d="M1666.86,108.87l-16.9,12.33l0.71,12.34l0.11,1.88l0.38,6.52l3.25,56.63l1.27,22.19
				c-0.68-0.04-1.36-0.15-2.01-0.32c-0.41-0.11-0.81-0.24-1.21-0.39c-0.34-3.99-0.84-11.68-1.38-21.11
				c-0.97-16.57-2.11-38.51-2.95-55.12c-0.15-3.06-0.3-5.93-0.43-8.55c-0.03-0.65-0.06-1.29-0.1-1.91
				c-0.42-8.32-0.68-13.72-0.68-13.72l18.26-12.85L1666.86,108.87z"/>
			<path class="st21" d="M1651.06,198.95c0.54,9.43,1.04,17.12,1.38,21.11c0.4,0.16,0.8,0.29,1.21,0.39
				c0.66,0.17,1.33,0.28,2.01,0.32l-1.27-22.19l-3.25-56.63c-0.99,0.72-2.01,1.34-3.04,1.89
				C1648.95,160.44,1650.09,182.38,1651.06,198.95z"/>
		</g>
		<path class="st12" d="M1675.81,229.15c-5.89,3.54-7,10.67,0.52,9.85c2.02-0.22,4.14-1,6.13-1.96c2.65-1.28,5.35-3.11,6.3-5.22
			C1692.2,224.12,1682.43,225.17,1675.81,229.15z"/>
		<g>
			<g>

					<text transform="matrix(1 0 0 1 1678.8251 137.7612)" class="st0" style="font-family:'AntipastoPro-DemiBold'; font-size:20.2554px;">SUMMER</text>
				<text transform="matrix(1 0 0 1 1678.5966 169.9175)" class="st0" style="font-family:'Launica'; font-size:37.2068px;">SALE</text>
			</g>
			<g>

					<text transform="matrix(1 0 0 1 1692.6576 189.2314)" class="st0" style="font-family:'AntipastoPro-DemiBold'; font-size:18.9613px;">UP TO</text>

					<text transform="matrix(1 0 0 1 1694.4628 200.7725)" class="st0" style="font-family:'AntipastoPro-DemiBold'; font-size:12.2526px;">50% OFF</text>
			</g>
		</g>
	</g>
	<g>
		<path class="st22" d="M1617.56,397.12c2.87,12.67,10.8,23.13,22.87,29.26c11.96,6.07,26.25,6.91,39.2,3.41
			c15.93-4.3,29.86-14.76,46.1-17.7c11.31-2.05,23.65-0.46,33.68-6.07c5.63-3.15,9.88-8.27,13.75-13.43
			c2.71-3.62,5.33-7.37,6.95-11.58c4.4-11.41,0.76-24.69-6.42-34.59c-5.54-7.64-12.94-13.64-20.61-19.03
			c-6.53-4.59-9.8-11.43-15.89-16.71c-12.8-11.11-29.93-16.62-46.79-16.05c-22.23,0.75-38.83,11.92-54.51,26.55
			c-5.81,5.42-8.84,14.83-11.45,22.11c-5.65,15.76-9.74,32.54-7.69,49.15C1616.94,394.03,1617.21,395.59,1617.56,397.12z"/>
		<path class="st23" d="M1787.83,358.43c2.58-11.37,1.51-23.77-2.21-34.63c-5.94-17.35-24.87-32.26-42.01-31.67
			c-9.21,0.32-18.32,3.6-25.92,9.33c-4.89,3.69-9.16,8.37-14.31,11.6c-24.47,15.36-64.41-7.82-84.51,16.69
			c-9.46,11.54-11.12,32.33-6.11,45.7c3.01,8.04,8.08,15.2,13.95,21.46c3.82,4.07,8.08,7.85,13.14,10.21
			c7.73,3.6,16.59,3.57,24.92,5.41c14.88,3.3,28.4,12.29,44,12.26c13.26-0.02,26.63-5.76,35.2-16c4.91-5.87,8.56-13.34,15.02-17.75
			c3.31-2.26,7.01-2.49,10.33-4.76c3.55-2.43,6.75-5.41,9.46-8.75C1783.31,371.94,1786.25,365.37,1787.83,358.43z"/>
		<path class="st23" d="M1711.97,283.6c-0.18,2.11,0.58,4.68,2.07,6.03c2.04,1.84,4.78,2.71,7.41,2.42
			c2.54-0.28,4.53-2.49,6.95-3.38c1.84-0.68,3.84-0.64,5.71-1.2c1.87-0.56,3.77-2.04,3.94-4.16c0.11-1.31-0.47-2.57-1.18-3.63
			c-2.01-2.99-5.2-4.9-8.54-5.48c-3.34-0.59-6.8,0.08-9.91,1.55C1715.33,277.21,1712.29,279.91,1711.97,283.6z"/>
		<g>
			<g>

					<text transform="matrix(1 0 0 1 1662.0682 344.2783)" class="st0" style="font-family:'AntipastoPro-DemiBold'; font-size:23.1954px;">SUMMER</text>
				<text transform="matrix(1 0 0 1 1661.807 381.1016)" class="st0" style="font-family:'Launica'; font-size:42.6072px;">SALE</text>
			</g>
			<g>

					<text transform="matrix(1 0 0 1 1690.1327 398.0342)" class="st0" style="font-family:'AntipastoPro-DemiBold'; font-size:15.0305px;">UP TO</text>

					<text transform="matrix(1 0 0 1 1691.5634 407.1816)" class="st0" style="font-family:'AntipastoPro-DemiBold'; font-size:9.7126px;">50% OFF</text>
			</g>
		</g>
		<g>
			<path class="st24" d="M1608.18,386.37c0,0,0.03-2.75,1.1-4.5l12.23-10.28c1.92-1.62,4.31-2.64,6.85-2.97
				c2.79-0.36,6.66-0.69,10.54-0.49c7.32,0.38,9.54-0.04,12.14,2.75c2.49,2.67,13.89,14.12,13.89,14.12l-15.01,25.12l-29.67,0.53
				l-10.37-16.03L1608.18,386.37z"/>
			<path class="st25" d="M1660.29,413.18c-4.69,8.9-13.8,14.28-23.54,14.28h-1.95c-7.64,0-14.92-3.41-20.01-9.37
				c-0.03-0.03-0.05-0.07-0.08-0.1c-1.39-1.63-2.55-3.21-3.5-4.79c-0.22-0.37-0.43-0.73-0.63-1.1c-0.11-0.21-0.23-0.43-0.34-0.64
				c-0.12-0.22-0.22-0.43-0.32-0.65c-0.07-0.14-0.14-0.29-0.21-0.44c-0.23-0.5-0.44-1-0.62-1.5c-0.09-0.22-0.17-0.43-0.24-0.65
				c-0.55-1.53-0.93-3.08-1.2-4.68c-0.03-0.17-0.06-0.35-0.09-0.53c-0.07-0.52-0.14-1.04-0.19-1.57c-0.02-0.11-0.03-0.22-0.03-0.33
				c-0.34-3.39-0.25-7.09-0.01-11.35c0.23-4.01,0.77-7.39,1.95-7.9c0,0-1.72,5.59,5.68,6.82l0.86,4.92l3-3.47
				c0,0,1.07,2.68,4.93,2.91c3.86,0.22,5.04-1.34,8.37,0.78c3.32,2.12,6.54,4.92,9.86,3.91c3.32-1,4.82-4.92,9.33-5.14
				c4.5-0.22,5.36,2.24,7.93-1.23c1.05-1.41,1.99-2.74,2.82-3.82c1.21-1.58,2.17-2.62,2.87-2.55
				C1664.93,384.99,1667.57,399.36,1660.29,413.18z"/>
			<path class="st26" d="M1629.47,369.72c-1.99,0.17-4.19,0.47-5.49,1.92c-0.78,0.86-1.07,2.23-0.32,3.12
				c0.53,0.62,1.4,0.84,2.19,1.09c4.77,1.52,8.9,5.42,13.92,5.09c2.47-0.17,4.72-1.37,6.82-2.62c1.61-0.95,3.36-2.23,3.43-4.03
				c0.14-3.61-4-4.34-6.79-4.4C1638.58,369.77,1634.15,369.32,1629.47,369.72z"/>
			<path class="st0" d="M1647.65,374.45c-0.05,1.31-1.19,2.28-2.37,3.04c-0.15,0.1-0.31,0.19-0.46,0.28
				c-1.34,0.8-2.77,1.58-4.29,1.94c-0.43,0.11-0.88,0.18-1.33,0.21c-0.62,0.04-1.24,0.01-1.83-0.1c-3.35-0.56-6.3-3.03-9.63-4.09
				c-0.64-0.2-1.33-0.38-1.76-0.86c-0.02-0.01-0.03-0.02-0.04-0.04c-0.62-0.73-0.37-1.86,0.26-2.57c1.07-1.19,2.88-1.44,4.52-1.58
				c3.4-0.28,6.65-0.03,9.99,0.09c0.44,0.02,0.89,0.03,1.34,0.04c0.49,0.01,1.04,0.05,1.58,0.13h0.01
				C1645.67,371.25,1647.74,372.12,1647.65,374.45z"/>
			<path class="st27" d="M1645.29,377.49c-0.15,0.1-0.31,0.19-0.46,0.28c-1.73,1.03-3.58,2.02-5.62,2.16
				c-4.13,0.27-7.53-2.94-11.46-4.19c-0.64-0.2-1.33-0.38-1.76-0.86c0.41-0.24,0.82-0.46,1.14-0.62c1.2-0.6,2.52-0.99,3.87-1.12
				c2.88-0.28,5.85,0.56,8.17,2.21c0.88,0.62,1.68,1.36,2.68,1.78C1642.93,377.57,1644.12,377.6,1645.29,377.49z"/>
			<path class="st28" d="M1660.29,413.18c-4.69,8.9-13.8,14.28-23.54,14.28h-1.95c-7.64,0-14.92-3.41-20.01-9.37
				c-0.03-0.03-0.05-0.07-0.08-0.1c-1.39-1.63-2.55-3.21-3.5-4.79c-0.22-0.37-0.43-0.73-0.63-1.1c-0.11-0.21-0.23-0.43-0.34-0.64
				c-0.12-0.22-0.22-0.43-0.32-0.65c-0.07-0.14-0.14-0.29-0.21-0.44c-0.23-0.5-0.44-1-0.62-1.5c-0.09-0.22-0.17-0.43-0.24-0.65
				c-0.55-1.53-0.93-3.08-1.2-4.68c-0.03-0.17-0.06-0.35-0.09-0.53c-0.07-0.52-0.14-1.04-0.19-1.57c-0.02-0.11-0.03-0.23-0.04-0.34
				c0,0,0,0.01,0.01,0.01c1.09,2.14,2.54,4.27,4.44,6.5c0.03,0.03,0.06,0.07,0.09,0.1c5.09,5.95,12.36,9.37,20.01,9.37h1.95
				c9.74,0,18.84-5.38,23.53-14.28c2.78-5.28,4.12-10.65,4.7-15.26c1.21-1.58,2.17-2.62,2.87-2.55
				C1664.93,384.99,1667.57,399.36,1660.29,413.18z"/>
			<path class="st29" d="M1658.85,360.98l-1.75,2.66l-9.89-2.7l-3.56,10.01h-0.01l-3.11,8.76c-0.43,0.11-0.88,0.18-1.33,0.21
				c-0.62,0.04-1.24,0.01-1.83-0.1l3.34-9.05l4.55-12.33L1658.85,360.98z"/>
		</g>
	</g>
	<g>
		<path class="st30" d="M1910.28,306.96c-9.13-2.92-17.63-7.74-26.97-9.94c-14.24-3.35-29.91-0.04-41.58,8.78
			c-11.68,8.82-19.14,22.98-19.82,37.59c-0.79,16.99,7.44,33.75,20.14,45.07c12.69,11.33,29.44,17.51,46.36,19.25
			c16.92,1.75,34.06-0.72,50.5-5.08c12.65-3.36,23.38-8.88,33.49-17.24c16.81-13.9,32.33-31.94,30.01-55.18
			c-1.02-10.21-7.91-20.04-18.48-21.76c-8.11-1.32-16.29,0.8-24.36,1.43c-7.7,0.59-15.42,1.1-23.15,0.96
			C1927.58,310.69,1918.72,309.66,1910.28,306.96z"/>
		<g>
			<path class="st31" d="M1829.26,405.19l12.76,6.16l14.13-7.81l-9.01,8.07l6.48,1.75l17.16-9.8l-10.81,10.93l8.19,1.61l17.43-14.36
				l-10.38,13.48l13.55-1.18l14.3-15.6l-5.45,12.42c0,0,17.86-3.53,24.5-17.85c0,0-8.74-8.49-20.89-11.33l5.28,8.49l-9.75-9.82
				l-12.51-0.1l6.59,10.36l-9.77-10.34l-14.73,3.06l14.96,11.91l-20.49-9.89l-12.15,6.01l11.38,6.32l1.91,1.06l-17.71-5.65
				L1829.26,405.19z"/>
			<path class="st32" d="M1842.02,411.36l14.13-7.81l-9.01,8.07l6.48,1.75l17.16-9.8l-10.81,10.93l8.19,1.61l17.43-14.36
				l-10.38,13.48l13.55-1.18l14.3-15.6l-5.45,12.42c0,0,17.86-3.53,24.5-17.85l-65.48,6.89l-15.34,11.1L1842.02,411.36z"/>
			<path class="st33" d="M1888.76,414.05l14.3-15.6l-5.45,12.42c0,0,17.86-3.53,24.5-17.85l-33.58,3.8l-2.94,4.93l-10.38,13.48
				L1888.76,414.05z"/>
			<polygon class="st33" points="1829.26,405.19 1842.02,411.36 1856.15,403.54 1865.16,399.75 1860.02,397.67 1861.92,398.74
				1844.22,393.08 			"/>
			<path class="st34" d="M1922.11,393.02c0,0-47.75,3.24-87.43,10.38C1834.68,403.39,1879.18,400.17,1922.11,393.02z"/>
		</g>
		<path class="st35" d="M1885.33,307.89c-8.32,1.54-16.85,1.83-25.19,3.31c-11.27,2-22.07,5.33-28.15,15.83
			c-5.92,10.23-7.01,23.76-1.75,34.45c3.82,7.75,9.85,15.13,17.16,19.73c9.37,5.9,19.65,10.35,30.37,13.15
			c11.66,3.05,24.12,4.27,34.39,10.58c5.38,3.3,9.9,7.86,15.25,11.21c11.43,7.15,26.82,7.99,38.44,1.16
			c11.62-6.83,18.45-21.43,15.23-34.52c-2.03-8.24-7.48-15.19-10.52-23.11c-2.6-6.78-3.38-14.25-2.23-21.42
			c1.19-7.39,4.32-14.37,5.09-21.84c0.65-6.25-1.59-14.22-5.05-19.49c-7.06-10.72-19.94-14.54-32.08-12.63
			c-9.17,1.44-18.2,6.05-25.85,11.16c-3.64,2.43-6.44,5.65-10.47,7.71c-4.14,2.11-8.62,3.49-13.16,4.42
			C1886.32,307.7,1885.83,307.8,1885.33,307.89z"/>
		<path class="st30" d="M1859.68,287c-1.21,0.68-2.41,1.64-2.72,2.99c-0.33,1.47,0.56,3.02,1.84,3.81c1.28,0.79,2.87,0.93,4.37,0.78
			c1.5-0.15,2.96-0.56,4.44-0.8c1.93-0.31,3.91-0.31,5.85-0.02c1.38,0.21,2.89,0.55,4.12-0.11c1.3-0.71,1.82-2.42,1.44-3.84
			c-0.39-1.42-1.52-2.55-2.81-3.26C1871.45,283.95,1864.3,284.39,1859.68,287z"/>
		<path class="st35" d="M1913.3,414.71c1.71,3.04,4.2,5.78,7.44,7.05c0.52,0.2,1.13,0.36,1.6,0.08c0.39-0.24,0.58-0.71,0.66-1.16
			c0.27-1.51-0.31-3.05-1.05-4.39c-1.03-1.87-2.4-3.55-4.02-4.93c-1.14-0.98-2.47-1.83-3.96-1.98c-0.4-0.04-0.81-0.03-1.17,0.16
			C1911.51,410.2,1912.79,413.81,1913.3,414.71z"/>
		<path class="st35" d="M1906.99,416.86c1.11,1.96,2.72,3.74,4.81,4.56c0.33,0.13,0.73,0.23,1.04,0.05
			c0.25-0.15,0.37-0.46,0.42-0.75c0.17-0.98-0.2-1.97-0.68-2.84c-0.67-1.21-1.55-2.29-2.6-3.19c-0.74-0.63-1.6-1.18-2.56-1.28
			c-0.26-0.03-0.53-0.02-0.76,0.1C1905.84,413.94,1906.66,416.27,1906.99,416.86z"/>
		<g>
			<g>
				<path class="st0" d="M1909.52,389.03c-0.09,0.28-0.2,0.57-0.33,0.87c-0.45,1.01-1.15,2.01-2.22,2.96
					c-0.32,0.29-0.65,0.57-1.03,0.84c-0.03,0.01-0.05,0.04-0.08,0.05c-0.61,0.46-1.34,0.89-2.15,1.31
					c-0.01,0.01-0.04,0.01-0.05,0.03c0,0-0.03-0.03-0.09-0.09c-0.22-0.23-0.76-0.82-1.34-1.67c-0.18-0.27-0.36-0.56-0.54-0.88
					c-0.08-0.15-0.17-0.31-0.23-0.46c-0.37-0.74-0.66-1.58-0.79-2.48c-0.2-1.38-0.01-2.92,0.94-4.47c0.65-1.07,1.66-2.15,3.13-3.2
					c0.65-0.46,1.39-0.9,2.23-1.35c0.15-0.08,0.31-0.15,0.46-0.23c0,0,0.71,0.88,1.36,2.28c0.36,0.75,0.69,1.66,0.88,2.65
					C1909.91,386.36,1909.93,387.69,1909.52,389.03z"/>
				<path class="st36" d="M1906.98,392.85c-0.32,0.29-0.65,0.57-1.03,0.84c-0.03,0.01-0.05,0.04-0.08,0.05
					c-0.61,0.46-1.34,0.89-2.15,1.31c-0.01,0.01-0.04,0.01-0.05,0.03c0,0-0.03-0.03-0.09-0.09c-0.22-0.23-0.76-0.82-1.34-1.67
					c-0.18-0.27-0.36-0.56-0.54-0.88c-0.08-0.15-0.17-0.31-0.23-0.46c0.59-1.82,1.9-3.03,3.24-2.83c0.78,0.11,1.41,0.69,1.81,1.54
					C1906.8,391.29,1906.96,392.04,1906.98,392.85z"/>
				<path class="st37" d="M1905.87,393.74c-0.61,0.46-1.34,0.89-2.15,1.31c-0.01,0.01-0.04,0.01-0.05,0.03c0,0-0.03-0.03-0.09-0.09
					c-0.22-0.23-0.76-0.82-1.34-1.67c0-0.04,0-0.08,0.01-0.11c0.22-1.53,1.22-2.64,2.22-2.48c0.48,0.08,0.88,0.42,1.13,0.94
					C1905.88,392.21,1905.98,392.95,1905.87,393.74z"/>
			</g>
			<path class="st38" d="M1909.52,389.03c-0.09,0.28-0.2,0.57-0.33,0.87c-0.45,1.01-1.15,2.01-2.22,2.96
				c-0.32,0.29-0.65,0.57-1.03,0.84c-0.03,0.01-0.05,0.04-0.08,0.05c-0.61,0.46-1.34,0.89-2.15,1.31c0.11-0.29,0.39-1.04,0.9-1.94
				c0.15-0.28,0.34-0.57,0.55-0.88c0.1-0.14,0.19-0.28,0.31-0.41c0.04-0.05,0.09-0.11,0.13-0.17c0.27-0.34,0.57-0.68,0.92-0.97
				c0.25-0.25,0.54-0.47,0.83-0.68C1907.97,389.57,1908.7,389.23,1909.52,389.03z"/>
			<g>
				<path class="st0" d="M1918.75,394.53c0,0-0.64,0.93-1.78,1.96c-0.62,0.56-1.39,1.13-2.29,1.61c-0.92,0.47-1.97,0.83-3.15,0.92
					c-0.48,0.03-0.98,0.03-1.5-0.05c-1.1-0.13-2.27-0.51-3.48-1.27c-0.37-0.22-0.73-0.46-1.1-0.74c-0.03-0.03-0.05-0.04-0.08-0.06
					c-0.57-0.42-1.15-0.94-1.75-1.55c-0.05-0.05-0.11-0.1-0.17-0.17c0,0,0.01-0.04,0.06-0.11c0.15-0.28,0.56-0.97,1.21-1.76
					c0.2-0.25,0.43-0.51,0.69-0.76c0.13-0.13,0.24-0.26,0.38-0.36c0.6-0.56,1.31-1.08,2.15-1.47c1.25-0.6,2.79-0.85,4.55-0.38
					c1.21,0.32,2.54,0.97,3.96,2.08c0.62,0.5,1.26,1.07,1.94,1.76C1918.52,394.27,1918.63,394.4,1918.75,394.53z"/>
				<path class="st36" d="M1908.89,396.21c-0.51,0.64-1.34,1.16-2.34,1.48c-0.37-0.22-0.73-0.46-1.1-0.74
					c-0.03-0.03-0.05-0.04-0.08-0.06c-0.57-0.42-1.15-0.94-1.75-1.55c-0.05-0.05-0.11-0.1-0.17-0.17c0,0,0.01-0.04,0.06-0.11
					c0.15-0.28,0.56-0.97,1.21-1.76c0.2-0.25,0.43-0.51,0.69-0.76c0.13-0.13,0.24-0.26,0.38-0.36c1.91,0.04,3.44,0.94,3.63,2.29
					C1909.52,395.08,1909.32,395.68,1908.89,396.21z"/>
				<path class="st37" d="M1907.87,394.68c0.05,0.33-0.04,0.66-0.24,0.97c-0.39,0.61-1.24,1.1-2.25,1.24
					c-0.57-0.42-1.15-0.94-1.75-1.55c-0.05-0.05-0.11-0.1-0.17-0.17c0,0,0.01-0.04,0.06-0.11c0.15-0.28,0.56-0.97,1.21-1.76
					c0.04-0.01,0.08-0.03,0.11-0.03C1906.38,393.04,1907.73,393.69,1907.87,394.68z"/>
			</g>
			<path class="st38" d="M1911.52,399.01c-0.48,0.03-0.98,0.03-1.5-0.05c-1.1-0.13-2.27-0.51-3.48-1.27
				c-0.37-0.22-0.73-0.46-1.1-0.74c-0.03-0.03-0.05-0.04-0.08-0.06c-0.57-0.42-1.15-0.94-1.75-1.55c0.27-0.04,0.55-0.05,0.85-0.08
				c0.17,0,0.34-0.01,0.51-0.01c0.83,0,1.71,0.1,2.57,0.38c0.03,0.01,0.04,0.01,0.06,0.03c0.43,0.13,0.85,0.31,1.26,0.56
				c0.85,0.47,1.64,1.18,2.29,2.2C1911.29,398.61,1911.42,398.8,1911.52,399.01z"/>
			<g>
				<path class="st0" d="M1911,406.04c-0.22,0.76-0.5,1.58-0.87,2.46c-0.08,0.15-0.15,0.31-0.22,0.46c0,0-1.11-0.23-2.5-0.9
					c-0.75-0.36-1.58-0.85-2.36-1.5c-1.06-0.89-2.03-2.1-2.51-3.71c-0.03-0.09-0.05-0.17-0.08-0.25c-0.29-1.07-0.38-2.29-0.15-3.69
					c0.06-0.43,0.14-0.85,0.27-1.3c0.01-0.04,0.03-0.06,0.04-0.09c0.18-0.76,0.48-1.57,0.85-2.43c0,0,0,0,0.01,0
					c0.03,0,0.06,0,0.11,0.01c0.32,0.04,1.11,0.15,2.09,0.45c0.32,0.1,0.64,0.22,0.98,0.34c0.15,0.08,0.32,0.14,0.46,0.22
					c0.75,0.34,1.52,0.8,2.18,1.43c1.03,0.94,1.86,2.25,2.1,4.06C1911.59,402.82,1911.5,404.3,1911,406.04z"/>
				<path class="st36" d="M1906.42,400.32c-0.75,0.46-1.75,0.34-2.69-0.23c-0.5-0.28-0.98-0.69-1.4-1.2
					c0.06-0.43,0.14-0.85,0.27-1.3c0.01-0.04,0.03-0.06,0.04-0.09c0.18-0.76,0.48-1.57,0.85-2.43c0,0,0,0,0.01,0
					c0.03,0,0.06,0,0.11,0.01c0.32,0.04,1.11,0.15,2.09,0.45c0.32,0.1,0.64,0.22,0.98,0.34c0.15,0.08,0.32,0.14,0.46,0.22
					C1907.84,397.88,1907.59,399.65,1906.42,400.32z"/>
				<path class="st37" d="M1905.63,398.96c-0.5,0.29-1.13,0.22-1.73-0.15c-0.47-0.28-0.92-0.73-1.26-1.3
					c0.18-0.76,0.48-1.57,0.85-2.43c0,0,0,0,0.01,0c0.03,0,0.06,0,0.11,0.01c0.32,0.04,1.11,0.15,2.09,0.45
					c0.03,0.04,0.05,0.06,0.06,0.1C1906.57,396.96,1906.49,398.45,1905.63,398.96z"/>
			</g>
			<path class="st38" d="M1903.92,398.12c-0.01,0.17,0,0.34-0.01,0.51c0,0.06,0,0.11-0.01,0.18c-0.01,0.42-0.06,0.85-0.17,1.29
				c-0.06,0.37-0.17,0.74-0.31,1.1c-0.2,0.57-0.48,1.13-0.87,1.66c-0.03-0.09-0.05-0.17-0.08-0.25c-0.29-1.07-0.38-2.29-0.15-3.69
				c0.06-0.43,0.14-0.85,0.27-1.3c0.01-0.04,0.03-0.06,0.04-0.09c0.18-0.76,0.48-1.57,0.85-2.43c0,0,0,0,0.01,0
				c0.09,0.36,0.27,1.08,0.36,2.01C1903.89,397.41,1903.91,397.75,1903.92,398.12z"/>
			<g>
				<path class="st0" d="M1903.6,395.32c0,0,0,0.04,0,0.13v0.08c-0.01,0.36-0.05,1.11-0.24,2.05c-0.05,0.31-0.14,0.65-0.24,0.99
					c-0.05,0.17-0.09,0.33-0.15,0.48c-0.27,0.79-0.65,1.59-1.2,2.32c-0.83,1.12-2.05,2.08-3.82,2.51c-1.22,0.29-2.7,0.34-4.48,0.05
					c-0.78-0.14-1.62-0.34-2.52-0.62c-0.17-0.05-0.33-0.1-0.5-0.17c0,0,0.11-1.12,0.65-2.57c0.28-0.78,0.69-1.66,1.25-2.5
					c0.34-0.5,0.74-0.98,1.2-1.41c0.68-0.65,1.49-1.2,2.48-1.57c1.02-0.41,2.23-0.62,3.66-0.54c0.43,0.03,0.87,0.05,1.32,0.14
					c0.03,0,0.06,0,0.09,0.01C1901.87,394.81,1902.7,395.03,1903.6,395.32z"/>
				<path class="st36" d="M1903.6,395.32c0,0,0,0.04,0,0.13v0.08c-0.01,0.36-0.05,1.11-0.24,2.05c-0.05,0.31-0.14,0.65-0.24,0.99
					c-0.05,0.17-0.09,0.33-0.15,0.48c-1.71,0.88-3.49,0.82-4.29-0.28c-0.17-0.22-0.28-0.47-0.34-0.74
					c-0.24-1.04,0.28-2.37,1.35-3.48c0.43,0.03,0.87,0.05,1.32,0.14c0.03,0,0.06,0,0.09,0.01
					C1901.87,394.81,1902.7,395.03,1903.6,395.32z"/>
				<path class="st37" d="M1903.6,395.32c0,0,0,0.04,0,0.13v0.08c-0.01,0.36-0.05,1.11-0.24,2.05c-0.03,0.03-0.05,0.05-0.09,0.06
					c-1.22,0.93-2.73,1.01-3.32,0.2c-0.03-0.04-0.05-0.09-0.09-0.13c-0.46-0.84,0.06-2.14,1.24-3.01
					C1901.87,394.81,1902.7,395.03,1903.6,395.32z"/>
			</g>
			<path class="st38" d="M1903.6,395.32c0,0,0,0.04,0,0.13v0.08c-0.27,0.23-0.61,0.52-1.03,0.82c-0.27,0.18-0.55,0.37-0.87,0.55
				c-0.15,0.09-0.31,0.18-0.46,0.24c-0.43,0.23-0.89,0.43-1.39,0.59c-0.34,0.11-0.7,0.2-1.07,0.27c-0.15,0.03-0.31,0.05-0.46,0.05
				c-1.25,0.14-2.62-0.08-4.04-0.89c-0.25-0.14-0.5-0.31-0.75-0.48c0.68-0.65,1.49-1.2,2.48-1.57c1.02-0.41,2.23-0.62,3.66-0.54
				c0.43,0.03,0.87,0.05,1.32,0.14c0.03,0,0.06,0,0.09,0.01C1901.87,394.81,1902.7,395.03,1903.6,395.32z"/>
			<g>
				<path class="st0" d="M1899.79,388.73c0.9,0.63,1.75,1.52,2.47,2.75c0.23,0.37,0.44,0.75,0.62,1.18
					c0.01,0.03,0.03,0.06,0.04,0.08c0.34,0.7,0.62,1.51,0.88,2.42c0,0-0.03,0.02-0.1,0.07c-0.27,0.17-0.95,0.59-1.9,0.99
					c-0.3,0.12-0.62,0.24-0.97,0.35c-0.16,0.05-0.33,0.1-0.49,0.14c-0.8,0.22-1.68,0.34-2.59,0.29c-1.39-0.07-2.86-0.55-4.2-1.79
					c-0.92-0.85-1.79-2.04-2.53-3.69c-0.32-0.73-0.62-1.54-0.89-2.45c-0.05-0.16-0.09-0.33-0.14-0.49c0,0,1-0.53,2.5-0.89
					c0.81-0.2,1.76-0.35,2.77-0.35C1896.73,387.35,1898.34,387.69,1899.79,388.73z"/>
				<path class="st36" d="M1902.26,391.48c0.23,0.37,0.44,0.75,0.62,1.18c0.01,0.03,0.03,0.06,0.04,0.08
					c0.34,0.7,0.62,1.51,0.88,2.42c0,0-0.03,0.02-0.1,0.07c-0.27,0.17-0.95,0.59-1.9,0.99c-0.3,0.12-0.62,0.24-0.97,0.35
					c-0.16,0.05-0.33,0.1-0.49,0.14c-1.67-0.93-2.61-2.45-2.15-3.72C1898.64,391.71,1900.36,391.13,1902.26,391.48z"/>
				<path class="st37" d="M1902.92,392.74c0.34,0.7,0.62,1.51,0.88,2.42c0,0-0.03,0.02-0.1,0.07c-0.27,0.17-0.95,0.59-1.9,0.99
					c-0.04-0.01-0.07-0.01-0.11-0.03c-1.46-0.51-2.35-1.71-2.01-2.66C1900.03,392.57,1901.48,392.22,1902.92,392.74z"/>
			</g>
		</g>
		<g>
			<g>
				<path class="st0" d="M1881.62,303.46c-0.06,0.18-0.13,0.36-0.21,0.54c-0.28,0.63-0.72,1.26-1.39,1.85
					c-0.2,0.18-0.41,0.36-0.65,0.53c-0.02,0.01-0.03,0.02-0.05,0.03c-0.38,0.29-0.84,0.56-1.35,0.82c-0.01,0.01-0.02,0.01-0.03,0.02
					c0,0-0.02-0.02-0.06-0.06c-0.14-0.14-0.48-0.51-0.84-1.04c-0.11-0.17-0.22-0.35-0.33-0.55c-0.05-0.1-0.1-0.19-0.14-0.29
					c-0.23-0.46-0.41-0.99-0.49-1.55c-0.13-0.86-0.01-1.82,0.59-2.8c0.41-0.67,1.04-1.35,1.96-2c0.41-0.29,0.87-0.57,1.39-0.84
					c0.1-0.05,0.19-0.1,0.29-0.14c0,0,0.45,0.55,0.85,1.43c0.22,0.47,0.43,1.04,0.55,1.66
					C1881.86,301.79,1881.88,302.62,1881.62,303.46z"/>
				<path class="st36" d="M1880.03,305.85c-0.2,0.18-0.41,0.36-0.65,0.53c-0.02,0.01-0.03,0.02-0.05,0.03
					c-0.38,0.29-0.84,0.56-1.35,0.82c-0.01,0.01-0.02,0.01-0.03,0.02c0,0-0.02-0.02-0.06-0.06c-0.14-0.14-0.48-0.51-0.84-1.04
					c-0.11-0.17-0.22-0.35-0.33-0.55c-0.05-0.1-0.1-0.19-0.14-0.29c0.37-1.14,1.19-1.9,2.02-1.77c0.49,0.07,0.88,0.43,1.13,0.96
					C1879.92,304.88,1880.02,305.35,1880.03,305.85z"/>
				<path class="st37" d="M1879.34,306.41c-0.38,0.29-0.84,0.56-1.35,0.82c-0.01,0.01-0.02,0.01-0.03,0.02c0,0-0.02-0.02-0.06-0.06
					c-0.14-0.14-0.48-0.51-0.84-1.04c0-0.02,0-0.05,0.01-0.07c0.14-0.96,0.77-1.65,1.39-1.55c0.3,0.05,0.55,0.26,0.71,0.59
					C1879.34,305.45,1879.41,305.91,1879.34,306.41z"/>
			</g>
			<path class="st38" d="M1881.62,303.46c-0.06,0.18-0.13,0.36-0.21,0.54c-0.28,0.63-0.72,1.26-1.39,1.85
				c-0.2,0.18-0.41,0.36-0.65,0.53c-0.02,0.01-0.03,0.02-0.05,0.03c-0.38,0.29-0.84,0.56-1.35,0.82c0.07-0.18,0.25-0.65,0.57-1.21
				c0.1-0.18,0.22-0.36,0.34-0.55c0.06-0.09,0.12-0.18,0.19-0.26c0.02-0.03,0.06-0.07,0.08-0.1c0.17-0.22,0.36-0.42,0.57-0.61
				c0.16-0.16,0.33-0.29,0.52-0.42C1880.65,303.8,1881.1,303.59,1881.62,303.46z"/>
			<g>
				<path class="st0" d="M1887.39,306.9c0,0-0.4,0.58-1.12,1.23c-0.39,0.35-0.87,0.71-1.43,1c-0.57,0.29-1.24,0.52-1.97,0.57
					c-0.3,0.02-0.61,0.02-0.94-0.03c-0.69-0.08-1.42-0.32-2.18-0.8c-0.23-0.14-0.45-0.29-0.69-0.46c-0.02-0.02-0.03-0.02-0.05-0.04
					c-0.36-0.26-0.72-0.59-1.09-0.97c-0.03-0.03-0.07-0.06-0.1-0.1c0,0,0.01-0.02,0.04-0.07c0.1-0.18,0.35-0.61,0.76-1.1
					c0.13-0.16,0.27-0.32,0.43-0.48c0.08-0.08,0.15-0.16,0.24-0.22c0.37-0.35,0.82-0.68,1.35-0.92c0.78-0.37,1.75-0.53,2.85-0.24
					c0.76,0.2,1.59,0.61,2.48,1.3c0.39,0.31,0.79,0.67,1.21,1.1C1887.25,306.74,1887.32,306.82,1887.39,306.9z"/>
				<path class="st36" d="M1881.22,307.95c-0.32,0.4-0.84,0.73-1.47,0.92c-0.23-0.14-0.45-0.29-0.69-0.46
					c-0.02-0.02-0.03-0.02-0.05-0.04c-0.36-0.26-0.72-0.59-1.09-0.97c-0.03-0.03-0.07-0.06-0.1-0.1c0,0,0.01-0.02,0.04-0.07
					c0.1-0.18,0.35-0.61,0.76-1.1c0.13-0.16,0.27-0.32,0.43-0.48c0.08-0.08,0.15-0.16,0.24-0.22c1.2,0.02,2.15,0.59,2.27,1.43
					C1881.62,307.24,1881.49,307.62,1881.22,307.95z"/>
				<path class="st37" d="M1880.59,307c0.03,0.21-0.02,0.41-0.15,0.61c-0.25,0.38-0.77,0.69-1.41,0.77
					c-0.36-0.26-0.72-0.59-1.09-0.97c-0.03-0.03-0.07-0.06-0.1-0.1c0,0,0.01-0.02,0.04-0.07c0.1-0.18,0.35-0.61,0.76-1.1
					c0.02-0.01,0.05-0.02,0.07-0.02C1879.65,305.97,1880.5,306.38,1880.59,307z"/>
			</g>
			<path class="st38" d="M1882.87,309.71c-0.3,0.02-0.61,0.02-0.94-0.03c-0.69-0.08-1.42-0.32-2.18-0.8
				c-0.23-0.14-0.45-0.29-0.69-0.46c-0.02-0.02-0.03-0.02-0.05-0.04c-0.36-0.26-0.72-0.59-1.09-0.97c0.17-0.02,0.34-0.03,0.53-0.05
				c0.1,0,0.22-0.01,0.32-0.01c0.52,0,1.07,0.06,1.61,0.24c0.02,0.01,0.02,0.01,0.04,0.02c0.27,0.08,0.53,0.19,0.79,0.35
				c0.53,0.29,1.03,0.74,1.43,1.38C1882.73,309.45,1882.81,309.57,1882.87,309.71z"/>
			<g>
				<path class="st0" d="M1882.55,314.11c-0.14,0.48-0.31,0.99-0.54,1.54c-0.05,0.1-0.1,0.19-0.14,0.29c0,0-0.69-0.14-1.56-0.57
					c-0.47-0.22-0.99-0.53-1.47-0.94c-0.66-0.56-1.27-1.32-1.57-2.32c-0.02-0.06-0.03-0.1-0.05-0.16c-0.18-0.67-0.24-1.43-0.1-2.31
					c0.04-0.27,0.09-0.53,0.17-0.81c0.01-0.02,0.02-0.04,0.02-0.06c0.11-0.48,0.3-0.98,0.53-1.52c0,0,0,0,0.01,0
					c0.02,0,0.04,0,0.07,0.01c0.2,0.02,0.69,0.1,1.31,0.28c0.2,0.06,0.4,0.14,0.61,0.22c0.1,0.05,0.2,0.09,0.29,0.14
					c0.47,0.22,0.95,0.5,1.36,0.89c0.65,0.59,1.16,1.41,1.31,2.54C1882.91,312.09,1882.86,313.01,1882.55,314.11z"/>
				<path class="st36" d="M1879.68,310.53c-0.47,0.29-1.09,0.22-1.68-0.14c-0.31-0.18-0.61-0.43-0.88-0.75
					c0.04-0.27,0.09-0.53,0.17-0.81c0.01-0.02,0.02-0.04,0.02-0.06c0.11-0.48,0.3-0.98,0.53-1.52c0,0,0,0,0.01,0
					c0.02,0,0.04,0,0.07,0.01c0.2,0.02,0.69,0.1,1.31,0.28c0.2,0.06,0.4,0.14,0.61,0.22c0.1,0.05,0.2,0.09,0.29,0.14
					C1880.57,309,1880.41,310.11,1879.68,310.53z"/>
				<path class="st37" d="M1879.18,309.68c-0.31,0.18-0.71,0.14-1.08-0.1c-0.29-0.18-0.57-0.45-0.79-0.81
					c0.11-0.48,0.3-0.98,0.53-1.52c0,0,0,0,0.01,0c0.02,0,0.04,0,0.07,0.01c0.2,0.02,0.69,0.1,1.31,0.28
					c0.02,0.02,0.03,0.04,0.04,0.06C1879.77,308.42,1879.73,309.36,1879.18,309.68z"/>
			</g>
			<path class="st38" d="M1878.12,309.15c-0.01,0.1,0,0.22-0.01,0.32c0,0.04,0,0.07-0.01,0.11c-0.01,0.26-0.04,0.53-0.1,0.81
				c-0.04,0.23-0.1,0.46-0.19,0.69c-0.13,0.36-0.3,0.71-0.54,1.04c-0.02-0.06-0.03-0.1-0.05-0.16c-0.18-0.67-0.24-1.43-0.1-2.31
				c0.04-0.27,0.09-0.53,0.17-0.81c0.01-0.02,0.02-0.04,0.02-0.06c0.11-0.48,0.3-0.98,0.53-1.52c0,0,0,0,0.01,0
				c0.06,0.22,0.17,0.68,0.22,1.26C1878.1,308.7,1878.11,308.92,1878.12,309.15z"/>
			<g>
				<path class="st0" d="M1877.92,307.4c0,0,0,0.02,0,0.08v0.05c-0.01,0.22-0.03,0.69-0.15,1.28c-0.03,0.19-0.09,0.41-0.15,0.62
					c-0.03,0.1-0.06,0.21-0.1,0.3c-0.17,0.49-0.41,1-0.75,1.45c-0.52,0.7-1.28,1.3-2.39,1.57c-0.77,0.18-1.69,0.22-2.81,0.03
					c-0.49-0.09-1.01-0.22-1.58-0.39c-0.1-0.03-0.21-0.06-0.31-0.1c0,0,0.07-0.7,0.41-1.61c0.18-0.49,0.43-1.04,0.78-1.56
					c0.22-0.31,0.46-0.61,0.75-0.88c0.42-0.41,0.93-0.75,1.55-0.98c0.64-0.26,1.39-0.39,2.29-0.33c0.27,0.02,0.54,0.03,0.83,0.09
					c0.02,0,0.04,0,0.06,0.01C1876.83,307.08,1877.35,307.21,1877.92,307.4z"/>
				<path class="st36" d="M1877.92,307.4c0,0,0,0.02,0,0.08v0.05c-0.01,0.22-0.03,0.69-0.15,1.28c-0.03,0.19-0.09,0.41-0.15,0.62
					c-0.03,0.1-0.06,0.21-0.1,0.3c-1.07,0.55-2.18,0.51-2.69-0.18c-0.1-0.14-0.18-0.29-0.22-0.46c-0.15-0.65,0.18-1.48,0.84-2.18
					c0.27,0.02,0.54,0.03,0.83,0.09c0.02,0,0.04,0,0.06,0.01C1876.83,307.08,1877.35,307.21,1877.92,307.4z"/>
				<path class="st37" d="M1877.92,307.4c0,0,0,0.02,0,0.08v0.05c-0.01,0.22-0.03,0.69-0.15,1.28c-0.02,0.02-0.03,0.03-0.06,0.04
					c-0.77,0.58-1.71,0.63-2.08,0.13c-0.02-0.02-0.03-0.06-0.06-0.08c-0.29-0.53,0.04-1.34,0.77-1.88
					C1876.83,307.08,1877.35,307.21,1877.92,307.4z"/>
			</g>
			<path class="st38" d="M1877.92,307.4c0,0,0,0.02,0,0.08v0.05c-0.17,0.14-0.38,0.33-0.65,0.51c-0.17,0.11-0.34,0.23-0.54,0.34
				c-0.1,0.06-0.19,0.11-0.29,0.15c-0.27,0.14-0.56,0.27-0.87,0.37c-0.22,0.07-0.44,0.13-0.67,0.17c-0.1,0.02-0.19,0.03-0.29,0.03
				c-0.78,0.09-1.64-0.05-2.53-0.56c-0.16-0.09-0.31-0.19-0.47-0.3c0.42-0.41,0.93-0.75,1.55-0.98c0.64-0.26,1.39-0.39,2.29-0.33
				c0.27,0.02,0.54,0.03,0.83,0.09c0.02,0,0.04,0,0.06,0.01C1876.83,307.08,1877.35,307.21,1877.92,307.4z"/>
			<g>
				<path class="st0" d="M1875.53,303.28c0.56,0.4,1.1,0.95,1.54,1.72c0.14,0.23,0.27,0.47,0.39,0.74c0,0.02,0.02,0.04,0.02,0.05
					c0.21,0.44,0.39,0.95,0.55,1.51c0,0-0.02,0.01-0.07,0.04c-0.17,0.11-0.59,0.37-1.19,0.62c-0.19,0.08-0.39,0.15-0.6,0.22
					c-0.1,0.03-0.21,0.06-0.31,0.09c-0.5,0.14-1.05,0.21-1.62,0.18c-0.87-0.04-1.79-0.35-2.63-1.12c-0.58-0.53-1.12-1.28-1.58-2.31
					c-0.2-0.45-0.39-0.96-0.56-1.53c-0.03-0.1-0.06-0.21-0.09-0.31c0,0,0.63-0.33,1.56-0.56c0.5-0.13,1.1-0.22,1.73-0.22
					C1873.62,302.41,1874.62,302.62,1875.53,303.28z"/>
				<path class="st36" d="M1877.08,304.99c0.14,0.23,0.27,0.47,0.39,0.74c0,0.02,0.02,0.04,0.02,0.05c0.21,0.44,0.39,0.95,0.55,1.51
					c0,0-0.02,0.01-0.07,0.04c-0.17,0.11-0.59,0.37-1.19,0.62c-0.19,0.08-0.39,0.15-0.6,0.22c-0.1,0.03-0.21,0.06-0.31,0.09
					c-1.05-0.58-1.63-1.53-1.34-2.33C1874.82,305.14,1875.89,304.78,1877.08,304.99z"/>
				<path class="st37" d="M1877.49,305.78c0.21,0.44,0.39,0.95,0.55,1.51c0,0-0.02,0.01-0.07,0.04c-0.17,0.11-0.59,0.37-1.19,0.62
					c-0.02,0-0.05-0.01-0.07-0.02c-0.91-0.32-1.47-1.07-1.26-1.66C1875.69,305.68,1876.59,305.46,1877.49,305.78z"/>
			</g>
		</g>
		<g>
			<g>

					<text transform="matrix(1 0 0 1 1865.955 339.4189)" class="st0" style="font-family:'AntipastoPro-DemiBold'; font-size:23.9271px;">SUMMER</text>
				<text transform="matrix(1 0 0 1 1865.6854 377.4033)" class="st0" style="font-family:'Launica'; font-size:43.9512px;">SALE</text>
			</g>
			<g>

					<text transform="matrix(1 0 0 1 1926.5321 392.7637)" class="st0" style="font-family:'AntipastoPro-DemiBold'; font-size:15.206px;">UP TO</text>

					<text transform="matrix(1 0 0 1 1927.9794 402.0186)" class="st0" style="font-family:'AntipastoPro-DemiBold'; font-size:9.826px;">50% OFF</text>
			</g>
		</g>
	</g>
	<g>
		<path class="st39" d="M289.1,143.7c-4.84-2.96-9.49-5.97-11.29-11.17c-1.85-5.34,0.11-11.15,1.64-16.6
			c7.87-27.98-14.31-55.58-43.25-40.24c-10.28,5.45-18.1,15.46-29.28,18.69c-17.7,5.12-34.91-5.89-51.72-9.17
			c-18.45-3.6-38.7,5.82-47.84,22.25c-2.92,5.25-4.78,11.06-8.01,16.12c-7.71,12.08-24.78,16.51-38.44,17
			c-5.53,0.2-11.14-0.52-16.57,0.54c-6.57,1.28-12.35,5.05-17.94,8.74c-14.46,9.55-24.58,25.46-24.3,43.32
			c0.25,15.85,9.45,30.73,22.12,40.25c12.68,9.52,28.47,14.17,44.23,15.85c6.21,0.66,12.62,0.93,18.34,3.45
			c10.32,4.54,8.61,12.03,11.43,20.86c1.9,5.94,5.36,11.5,10.38,15.2c6.96,5.14,16.11,6.27,24.76,5.97c8.51-0.29,17.46-2,23.82-7.66
			c6.03-5.36,9.09-13.7,15.82-18.15c8.01-5.3,18.67-3.5,27.8-0.55c16.29,5.25,32.53,13.65,49.51,11.56
			c19.08-2.35,35.22-19.59,36.31-38.78c0.21-3.65-0.11-7.46-1.89-10.65c-4.98-8.93-14.92-16.4-10.75-28.29
			c3.14-8.95,15.01-12.2,21.99-17.4c10.74-8,11.66-26.09,1.79-35.15C295.24,147.38,292.13,145.55,289.1,143.7z"/>
		<path class="st39" d="M263.76,27.63c0.81,1.23,1.82,2.37,3.08,3.14c4.14,2.54,9.57,0.51,13.54-2.28
			c9.24-6.5,13.3-24.83-2.11-26.76C265.43,0.11,257.26,17.77,263.76,27.63z"/>
		<path class="st39" d="M245.45,31.9c9.09-7.68,0.99-20.84-8.44-11.43C230.43,27.04,237.49,38.61,245.45,31.9z"/>
		<path class="st39" d="M46.72,301.56c3.52,0.32,7.19-1.32,9.17-4.25c5.11-7.53-3.83-17.89-12.06-14.47
			C34.7,286.64,36.94,300.66,46.72,301.56z"/>
	</g>
</g>
<g id="Designed_by_Freepik">
	<g>
		<g>
			<g id="XMLID_197_">
				<g id="XMLID_216_">
					<path id="XMLID_224_" class="st40" d="M1819.61,465.47c-0.43,0.44-0.8,0.93-1.11,1.45l-0.47-0.24c-0.07-0.3-0.35-0.5-0.66-0.47
						c-0.33,0.04-0.57,0.34-0.53,0.67s0.34,0.57,0.67,0.53c0.07-0.01,0.13-0.03,0.18-0.05l0.45,0.23c-0.25,0.55-0.43,1.14-0.54,1.74
						l0.75,0.13c0.23-1.31,0.85-2.51,1.79-3.47L1819.61,465.47z"/>
					<path id="XMLID_223_" class="st40" d="M1825.1,463.16c-0.17,0-0.34,0.01-0.51,0.02l-0.07-0.63c0.19-0.15,0.3-0.39,0.27-0.64
						c-0.05-0.39-0.4-0.67-0.8-0.63c-0.39,0.05-0.67,0.4-0.63,0.8c0.03,0.25,0.19,0.46,0.4,0.56l0.07,0.62
						c-0.71,0.12-1.4,0.33-2.06,0.65l0.33,0.68c0.93-0.45,1.94-0.67,3-0.67c0.5,0,0.99,0.05,1.47,0.16l0.16-0.74
						C1826.2,463.22,1825.65,463.16,1825.1,463.16z"/>
					<path id="XMLID_222_" class="st40" d="M1831.7,465.71c0.33-0.04,0.57-0.34,0.53-0.67c-0.04-0.33-0.34-0.57-0.67-0.53
						c-0.31,0.04-0.54,0.3-0.53,0.61l-0.42,0.36c-0.42-0.43-0.89-0.81-1.41-1.14l-0.4,0.64c1.13,0.71,2.02,1.73,2.56,2.93l0.69-0.31
						c-0.25-0.55-0.57-1.07-0.94-1.55l0.4-0.35C1831.57,465.72,1831.64,465.72,1831.7,465.71z"/>
					<path id="XMLID_221_" class="st40" d="M1824.55,473.37c-0.39,0.02-0.78,0.03-1.16,0.03c-0.88,0-1.73-0.06-2.48-0.18
						c-0.39-0.06-0.85-0.15-1.27-0.29c1.05,1.86,3.07,3.12,5.39,3.12c2.86,0,5.26-1.92,5.95-4.5c-0.68,0.45-1.51,0.83-2.46,1.12
						C1827.35,473.05,1825.97,473.29,1824.55,473.37z"/>
					<path id="XMLID_217_" class="st40" d="M1825.1,464.68c-3.35,0-6.08,2.67-6.08,5.94c0,0.43,0.05,0.85,0.14,1.26
						c0.67,0.48,2.71,0.89,5.35,0.73c2.88-0.17,5.3-0.96,6.67-2.16c-0.01-0.19-0.02-0.39-0.05-0.58
						C1830.75,466.91,1828.16,464.68,1825.1,464.68z M1822.94,471.19c-1.02,0-1.85-0.83-1.85-1.85c0-1.02,0.83-1.85,1.85-1.85
						c1.02,0,1.85,0.83,1.85,1.85C1824.79,470.36,1823.96,471.19,1822.94,471.19z M1827.68,470.29c-0.75,0-1.36-0.61-1.36-1.36
						s0.61-1.36,1.36-1.36c0.75,0,1.36,0.61,1.36,1.36S1828.43,470.29,1827.68,470.29z"/>
				</g>
				<path id="XMLID_214_" class="st40" d="M1841.1,466.55c-0.29-0.12-0.81-0.31-1.38-0.24c-0.55,0.07-0.84,0.34-0.84,1.01v0.87h2.23
					v1.72h-2.23v5.45h-1.93v-5.45h-1.34v-1.72h1.34v-0.89c0-1.68,0.9-2.78,2.57-2.78c0.64,0,1.16,0.12,1.59,0.31L1841.1,466.55z"/>
				<path id="XMLID_212_" class="st40" d="M1845.81,469.88c-0.18-0.03-0.36-0.05-0.53-0.05c-0.9,0-1.51,0.55-1.51,1.61v3.91h-1.93
					v-7.17h1.87v0.78c0.45-0.67,1.14-0.98,2.02-0.98c0.41,0,0.85,0.13,1.09,0.34L1845.81,469.88z"/>
				<path id="XMLID_209_" class="st40" d="M1853.47,471.76c0,0.22-0.01,0.49-0.04,0.65h-5.08c0.21,1.04,0.93,1.49,1.84,1.49
					c0.62,0,1.3-0.25,1.81-0.69l1.13,1.24c-0.81,0.75-1.85,1.09-3.06,1.09c-2.2,0-3.72-1.5-3.72-3.75c0-2.26,1.48-3.8,3.63-3.8
					C1852.05,467.99,1853.47,469.52,1853.47,471.76z M1848.36,471.09h3.18c-0.18-0.92-0.73-1.44-1.56-1.44
					C1849.06,469.65,1848.53,470.2,1848.36,471.09z"/>
				<path id="XMLID_206_" class="st40" d="M1861.13,471.76c0,0.22-0.01,0.49-0.04,0.65H1856c0.21,1.04,0.93,1.49,1.84,1.49
					c0.62,0,1.3-0.25,1.81-0.69l1.13,1.24c-0.81,0.75-1.85,1.09-3.06,1.09c-2.2,0-3.72-1.5-3.72-3.75c0-2.26,1.48-3.8,3.63-3.8
					C1859.7,467.99,1861.12,469.52,1861.13,471.76z M1856.01,471.09h3.18c-0.18-0.92-0.73-1.44-1.56-1.44
					C1856.71,469.65,1856.18,470.2,1856.01,471.09z"/>
				<path id="XMLID_203_" class="st40" d="M1869.47,471.76c0,2.15-1.49,3.77-3.47,3.77c-0.96,0-1.64-0.38-2.11-0.93v3.71h-1.92
					v-10.13h1.89v0.79c0.47-0.58,1.15-0.98,2.14-0.98C1867.98,467.99,1869.47,469.61,1869.47,471.76z M1863.79,471.76
					c0,1.13,0.75,1.98,1.84,1.98c1.14,0,1.85-0.88,1.85-1.98c0-1.1-0.71-1.98-1.85-1.98
					C1864.54,469.79,1863.79,470.63,1863.79,471.76z"/>
				<path id="XMLID_200_" class="st40" d="M1872.58,465.84c0,0.7-0.54,1.23-1.24,1.23c-0.7,0-1.23-0.53-1.23-1.23
					c0-0.7,0.53-1.24,1.23-1.24C1872.03,464.59,1872.58,465.14,1872.58,465.84z M1872.32,475.35h-1.93v-7.17h1.93V475.35z"/>
				<path id="XMLID_198_" class="st40" d="M1875.54,470.74l2.7-2.55h2.37l-3.48,3.38l3.5,3.8h-2.38l-2.72-2.9v2.9h-1.93V464.7h1.93
					V470.74z"/>
			</g>
			<g>
				<path class="st40" d="M1743.92,475.29v-1.05c-0.53,0.72-1.39,1.23-2.39,1.23c-1.85,0-3.15-1.41-3.15-3.71
					c0-2.26,1.29-3.72,3.15-3.72c0.95,0,1.82,0.47,2.39,1.25v-3.76h1.1v9.77H1743.92z M1743.92,473.37v-3.21
					c-0.4-0.62-1.24-1.14-2.12-1.14c-1.42,0-2.27,1.17-2.27,2.74c0,1.57,0.85,2.72,2.27,2.72
					C1742.68,474.48,1743.52,473.99,1743.92,473.37z"/>
				<path class="st40" d="M1746.44,471.74c0-2.05,1.46-3.71,3.49-3.71c2.14,0,3.4,1.67,3.4,3.79v0.28h-5.73
					c0.09,1.33,1.03,2.45,2.55,2.45c0.81,0,1.63-0.32,2.18-0.89l0.53,0.72c-0.7,0.7-1.65,1.08-2.81,1.08
					C1747.95,475.46,1746.44,473.96,1746.44,471.74z M1749.91,468.95c-1.51,0-2.26,1.27-2.31,2.36h4.64
					C1752.23,470.25,1751.52,468.95,1749.91,468.95z"/>
				<path class="st40" d="M1754.11,474.35l0.57-0.79c0.47,0.54,1.36,1.01,2.33,1.01c1.08,0,1.67-0.51,1.67-1.22
					c0-1.71-4.38-0.66-4.38-3.28c0-1.1,0.95-2.04,2.64-2.04c1.2,0,2.05,0.45,2.62,1.03l-0.51,0.76c-0.42-0.51-1.2-0.89-2.11-0.89
					c-0.97,0-1.57,0.48-1.57,1.11c0,1.55,4.38,0.53,4.38,3.28c0,1.19-0.95,2.14-2.78,2.14
					C1755.81,475.46,1754.83,475.11,1754.11,474.35z"/>
				<path class="st40" d="M1760.98,466.47c0-0.41,0.34-0.75,0.73-0.75c0.41,0,0.75,0.34,0.75,0.75c0,0.41-0.34,0.73-0.75,0.73
					C1761.32,467.2,1760.98,466.88,1760.98,466.47z M1761.17,475.29v-7.07h1.1v7.07H1761.17z"/>
				<path class="st40" d="M1764.09,477.11l0.56-0.82c0.59,0.7,1.29,0.97,2.3,0.97c1.17,0,2.27-0.57,2.27-2.12v-1.01
					c-0.51,0.72-1.38,1.26-2.37,1.26c-1.85,0-3.15-1.38-3.15-3.66c0-2.27,1.29-3.68,3.15-3.68c0.95,0,1.8,0.47,2.37,1.25v-1.07h1.1
					v6.87c0,2.34-1.64,3.08-3.37,3.08C1765.74,478.16,1764.92,477.93,1764.09,477.11z M1769.22,473.25v-3.09
					c-0.38-0.62-1.23-1.14-2.11-1.14c-1.42,0-2.27,1.13-2.27,2.7c0,1.55,0.85,2.7,2.27,2.7
					C1767.99,474.41,1768.84,473.87,1769.22,473.25z"/>
				<path class="st40" d="M1776.92,475.29v-4.63c0-1.24-0.63-1.64-1.58-1.64c-0.86,0-1.68,0.53-2.09,1.1v5.17h-1.1v-7.07h1.1v1.03
					c0.5-0.59,1.46-1.2,2.52-1.2c1.48,0,2.26,0.75,2.26,2.29v4.97H1776.92z"/>
				<path class="st40" d="M1779.44,471.74c0-2.05,1.46-3.71,3.49-3.71c2.14,0,3.4,1.67,3.4,3.79v0.28h-5.73
					c0.09,1.33,1.03,2.45,2.55,2.45c0.81,0,1.63-0.32,2.18-0.89l0.53,0.72c-0.7,0.7-1.66,1.08-2.81,1.08
					C1780.95,475.46,1779.44,473.96,1779.44,471.74z M1782.91,468.95c-1.51,0-2.26,1.27-2.31,2.36h4.64
					C1785.23,470.25,1784.52,468.95,1782.91,468.95z"/>
				<path class="st40" d="M1792.86,475.29v-1.05c-0.53,0.72-1.39,1.23-2.39,1.23c-1.85,0-3.15-1.41-3.15-3.71
					c0-2.26,1.29-3.72,3.15-3.72c0.95,0,1.82,0.47,2.39,1.25v-3.76h1.1v9.77H1792.86z M1792.86,473.37v-3.21
					c-0.4-0.62-1.25-1.14-2.12-1.14c-1.42,0-2.27,1.17-2.27,2.74c0,1.57,0.85,2.72,2.27,2.72
					C1791.61,474.48,1792.46,473.99,1792.86,473.37z"/>
				<path class="st40" d="M1799.2,475.29v-9.77h1.1v3.76c0.57-0.78,1.42-1.25,2.39-1.25c1.85,0,3.15,1.46,3.15,3.72
					c0,2.3-1.3,3.71-3.15,3.71c-1,0-1.86-0.51-2.39-1.23v1.05H1799.2z M1802.41,474.48c1.44,0,2.29-1.16,2.29-2.72
					c0-1.57-0.85-2.74-2.29-2.74c-0.86,0-1.73,0.53-2.11,1.14v3.21C1800.68,473.99,1801.54,474.48,1802.41,474.48z"/>
				<path id ='lil-guy' class="st40" d="M1807.04,477.06c0.16,0.07,0.43,0.12,0.6,0.12c0.48,0,0.81-0.16,1.05-0.75l0.47-1.07l-2.96-7.15h1.19
					l2.36,5.8l2.34-5.8h1.2l-3.54,8.51c-0.42,1.03-1.14,1.42-2.08,1.44c-0.23,0-0.6-0.04-0.81-0.1L1807.04,477.06z"/>
			</g>
		</g>
	</g>
</g>

<animateMotion
  xlink:href="#lil-guy"
  dur="3s"
  repeatCount="indefinite"
  fill="freeze"
  path="M1899.79,388.73c0.9,0.63,1.75,1.52,2.47,2.75c0.23,0.37,0.44,0.75,0.62,1.18
					c0.01,0.03,0.03,0.06,0.04,0.08c0.34,0.7,0.62,1.51,0.88,2.42c0,0-0.03,0.02-0.1,0.07c-0.27,0.17-0.95,0.59-1.9,0.99
					c-0.3,0.12-0.62,0.24-0.97,0.35c-0.16,0.05-0.33,0.1-0.49,0.14c-0.8,0.22-1.68,0.34-2.59,0.29c-1.39-0.07-2.86-0.55-4.2-1.79
					c-0.92-0.85-1.79-2.04-2.53-3.69c-0.32-0.73-0.62-1.54-0.89-2.45c-0.05-0.16-0.09-0.33-0.14-0.49c0,0,1-0.53,2.5-0.89
					c0.81-0.2,1.76-0.35,2.77-0.35C1896.73,387.35,1898.34,387.69,1899.79,388.73z" />
</svg>
