<svg id="svg" version="1.1" xmlns="http://www.w3.org/2000/svg" xmlns:xlink="http://www.w3.org/1999/xlink" width="400" height="395.37572254335254" viewBox="0, 0, 400,395.37572254335254"><g id="svgg"><path id="path0" d="M115.529 0.266 C 114.550 0.365,113.580 0.612,113.373 0.816 C 113.166 1.020,112.598 1.187,112.110 1.187 C 111.623 1.187,111.114 1.365,110.979 1.583 C 110.845 1.800,110.389 1.978,109.967 1.978 C 109.544 1.978,109.199 2.156,109.199 2.374 C 109.199 2.591,108.943 2.770,108.630 2.770 C 107.621 2.770,102.300 8.392,101.327 10.485 C 100.822 11.573,100.239 12.789,100.032 13.188 C 99.017 15.144,99.823 26.508,100.977 26.508 C 101.147 26.508,101.286 26.864,101.286 27.300 C 101.286 27.735,101.464 28.091,101.682 28.091 C 101.899 28.091,102.077 28.373,102.077 28.719 C 102.077 29.473,106.308 33.630,107.076 33.630 C 107.373 33.630,107.616 33.765,107.616 33.929 C 107.616 34.988,118.663 35.828,119.288 34.817 C 119.422 34.599,119.880 34.421,120.306 34.421 C 120.731 34.421,121.388 34.264,121.766 34.072 C 122.144 33.880,122.987 33.480,123.640 33.184 C 124.293 32.888,125.115 32.334,125.467 31.951 C 125.819 31.569,126.312 31.256,126.562 31.256 C 127.190 31.256,132.146 26.249,132.146 25.614 C 132.146 25.332,132.502 24.844,132.938 24.530 C 133.373 24.216,133.729 23.554,133.729 23.058 C 133.729 22.562,133.907 22.156,134.125 22.156 C 134.342 22.156,134.520 21.622,134.520 20.969 C 134.520 20.317,134.698 19.782,134.916 19.782 C 135.160 19.782,135.312 17.738,135.312 14.441 C 135.312 11.144,135.160 9.100,134.916 9.100 C 134.698 9.100,134.520 8.566,134.520 7.913 C 134.520 7.260,134.342 6.726,134.125 6.726 C 133.907 6.726,133.729 6.455,133.729 6.124 C 133.729 5.386,129.597 1.187,128.871 1.187 C 128.583 1.187,128.150 0.989,127.908 0.747 C 127.444 0.283,118.715 -0.057,115.529 0.266 M220.179 0.274 C 218.439 0.361,216.846 0.602,216.638 0.810 C 216.431 1.017,215.150 1.187,213.792 1.187 C 212.434 1.187,211.213 1.365,211.078 1.583 C 210.944 1.800,209.865 1.978,208.681 1.978 C 207.497 1.978,206.528 2.156,206.528 2.374 C 206.528 2.591,205.638 2.770,204.550 2.770 C 203.462 2.770,202.572 2.948,202.572 3.165 C 202.572 3.383,201.870 3.561,201.012 3.561 C 200.155 3.561,199.343 3.739,199.209 3.956 C 199.074 4.174,198.273 4.352,197.428 4.352 C 196.584 4.352,195.782 4.530,195.648 4.748 C 195.513 4.965,194.890 5.143,194.263 5.143 C 193.636 5.143,193.013 5.321,192.878 5.539 C 192.744 5.757,192.021 5.935,191.272 5.935 C 190.524 5.935,189.911 6.113,189.911 6.330 C 189.911 6.548,189.387 6.726,188.747 6.726 C 188.107 6.726,187.474 6.904,187.339 7.122 C 187.205 7.339,186.571 7.517,185.931 7.517 C 185.291 7.517,184.768 7.695,184.768 7.913 C 184.768 8.131,184.233 8.309,183.581 8.309 C 182.928 8.309,182.394 8.466,182.394 8.659 C 182.394 8.852,181.597 9.130,180.622 9.276 C 179.648 9.422,178.748 9.709,178.621 9.914 C 178.494 10.119,178.132 10.287,177.816 10.287 C 177.289 10.287,174.460 11.422,172.805 12.297 C 172.427 12.497,171.848 12.661,171.519 12.661 C 171.189 12.661,170.920 12.839,170.920 13.056 C 170.920 13.274,170.564 13.452,170.129 13.452 C 169.693 13.452,169.337 13.630,169.337 13.848 C 169.337 14.065,168.981 14.243,168.546 14.243 C 168.111 14.243,167.755 14.421,167.755 14.639 C 167.755 14.857,167.399 15.035,166.963 15.035 C 166.528 15.035,166.172 15.213,166.172 15.430 C 166.172 15.648,165.816 15.826,165.381 15.826 C 164.946 15.826,164.590 16.004,164.590 16.222 C 164.590 16.439,164.233 16.617,163.798 16.617 C 163.363 16.617,163.007 16.795,163.007 17.013 C 163.007 17.230,162.773 17.409,162.488 17.409 C 162.203 17.409,161.587 17.765,161.120 18.200 C 160.653 18.635,159.996 18.991,159.660 18.991 C 159.325 18.991,159.050 19.169,159.050 19.387 C 159.050 19.604,158.823 19.782,158.544 19.782 C 158.266 19.782,157.782 20.138,157.468 20.574 C 157.154 21.009,156.620 21.365,156.281 21.365 C 155.942 21.365,155.408 21.721,155.094 22.156 C 154.780 22.591,154.272 22.948,153.965 22.948 C 153.658 22.948,153.118 23.261,152.766 23.643 C 152.415 24.026,151.327 24.872,150.350 25.523 C 148.813 26.547,145.498 29.746,141.247 34.311 C 140.594 35.012,140.059 35.787,140.059 36.032 C 140.059 36.277,139.525 36.977,138.872 37.587 C 138.220 38.196,137.685 38.941,137.685 39.241 C 137.685 39.540,137.329 40.042,136.894 40.356 C 136.459 40.670,136.103 41.154,136.103 41.433 C 136.103 41.711,135.925 41.939,135.707 41.939 C 135.490 41.939,135.312 42.295,135.312 42.730 C 135.312 43.165,135.134 43.521,134.916 43.521 C 134.698 43.521,134.520 43.877,134.520 44.313 C 134.520 44.748,134.342 45.104,134.125 45.104 C 133.907 45.104,133.729 45.460,133.729 45.895 C 133.729 46.330,133.551 46.686,133.333 46.686 C 133.116 46.686,132.938 47.043,132.938 47.478 C 132.938 47.913,132.760 48.269,132.542 48.269 C 132.324 48.269,132.146 48.704,132.146 49.235 C 132.146 49.766,131.968 50.311,131.751 50.445 C 131.533 50.580,131.355 51.114,131.355 51.632 C 131.355 52.150,131.177 52.685,130.959 52.819 C 130.742 52.953,130.564 53.641,130.564 54.346 C 130.564 55.051,130.400 55.797,130.200 56.004 C 129.300 56.935,129.166 64.044,129.584 88.787 C 129.732 97.560,129.670 101.942,129.393 102.220 C 129.166 102.446,128.981 103.297,128.981 104.111 C 128.981 104.925,128.827 105.687,128.638 105.804 C 128.449 105.920,128.176 106.910,128.031 108.003 C 127.886 109.096,127.595 109.990,127.385 109.990 C 127.175 109.990,127.003 110.222,127.003 110.505 C 127.003 111.233,126.072 113.149,125.717 113.152 C 125.554 113.154,125.420 113.420,125.420 113.744 C 125.420 114.807,119.912 120.673,118.914 120.673 C 118.576 120.673,118.297 120.806,118.296 120.969 C 118.291 121.371,116.334 122.255,115.450 122.255 C 115.058 122.255,114.738 122.433,114.738 122.651 C 114.738 122.893,112.899 123.046,110.013 123.046 C 107.291 123.046,105.185 122.879,105.045 122.651 C 104.910 122.433,103.931 122.255,102.868 122.255 C 101.806 122.255,100.827 122.077,100.692 121.860 C 100.558 121.642,99.746 121.464,98.889 121.464 C 98.031 121.464,97.329 121.286,97.329 121.068 C 97.329 120.851,96.564 120.673,95.628 120.673 C 94.692 120.673,93.758 120.510,93.551 120.312 C 92.340 119.149,71.830 119.143,70.643 120.305 C 70.436 120.507,69.323 120.673,68.170 120.673 C 67.017 120.673,66.073 120.851,66.073 121.068 C 66.073 121.286,65.183 121.464,64.095 121.464 C 63.007 121.464,62.117 121.642,62.117 121.860 C 62.117 122.077,61.316 122.255,60.336 122.255 C 59.357 122.255,58.556 122.433,58.556 122.651 C 58.556 122.868,57.933 123.046,57.171 123.046 C 56.409 123.046,55.786 123.225,55.786 123.442 C 55.786 123.660,55.163 123.838,54.402 123.838 C 53.640 123.838,53.017 124.016,53.017 124.233 C 53.017 124.451,52.483 124.629,51.830 124.629 C 51.177 124.629,50.643 124.807,50.643 125.025 C 50.643 125.242,50.208 125.420,49.677 125.420 C 49.146 125.420,48.601 125.598,48.467 125.816 C 48.332 126.034,47.877 126.212,47.454 126.212 C 47.032 126.212,46.686 126.390,46.686 126.607 C 46.686 126.825,46.241 127.003,45.697 127.003 C 45.153 127.003,44.708 127.181,44.708 127.399 C 44.708 127.616,44.263 127.794,43.719 127.794 C 43.175 127.794,42.730 127.972,42.730 128.190 C 42.730 128.408,42.374 128.586,41.939 128.586 C 41.503 128.586,41.147 128.764,41.147 128.981 C 41.147 129.199,40.791 129.377,40.356 129.377 C 39.921 129.377,39.565 129.555,39.565 129.773 C 39.565 129.990,39.298 130.168,38.971 130.168 C 38.645 130.168,38.378 130.346,38.378 130.564 C 38.378 130.781,38.102 130.959,37.765 130.959 C 37.150 130.959,34.793 132.044,34.421 132.498 C 34.313 132.631,33.867 132.935,33.432 133.173 C 31.194 134.397,30.618 134.776,30.027 135.410 C 29.673 135.791,29.197 136.103,28.969 136.103 C 28.141 136.103,17.410 147.595,17.409 148.483 C 17.409 148.656,17.052 149.179,16.617 149.646 C 16.182 150.113,15.826 150.729,15.826 151.014 C 15.826 151.300,15.648 151.533,15.430 151.533 C 15.213 151.533,15.035 151.767,15.035 152.052 C 15.035 152.337,14.679 152.953,14.243 153.420 C 13.808 153.887,13.452 154.544,13.452 154.880 C 13.452 155.215,13.274 155.490,13.056 155.490 C 12.839 155.490,12.661 155.846,12.661 156.281 C 12.661 156.716,12.483 157.072,12.265 157.072 C 12.047 157.072,11.869 157.428,11.869 157.864 C 11.869 158.299,11.691 158.655,11.474 158.655 C 11.256 158.655,11.078 158.916,11.078 159.236 C 11.078 159.556,10.733 160.433,10.310 161.185 C 9.888 161.936,9.423 163.188,9.277 163.966 C 9.131 164.744,8.854 165.381,8.660 165.381 C 8.467 165.381,8.309 165.915,8.309 166.568 C 8.309 167.221,8.131 167.755,7.913 167.755 C 7.695 167.755,7.517 168.289,7.517 168.942 C 7.517 169.594,7.339 170.129,7.122 170.129 C 6.904 170.129,6.726 170.663,6.726 171.316 C 6.726 171.968,6.548 172.502,6.330 172.502 C 6.113 172.502,5.935 173.037,5.935 173.689 C 5.935 174.342,5.757 174.876,5.539 174.876 C 5.321 174.876,5.143 175.410,5.143 176.063 C 5.143 176.716,4.965 177.250,4.748 177.250 C 4.530 177.250,4.352 177.873,4.352 178.635 C 4.352 179.397,4.174 180.020,3.956 180.020 C 3.739 180.020,3.561 180.732,3.561 181.602 C 3.561 182.473,3.383 183.185,3.165 183.185 C 2.948 183.185,2.770 183.976,2.770 184.942 C 2.770 185.908,2.591 186.809,2.374 186.944 C 2.156 187.078,1.978 188.068,1.978 189.143 C 1.978 190.218,1.800 191.098,1.583 191.098 C 1.365 191.098,1.187 192.042,1.187 193.195 C 1.187 194.348,0.964 195.514,0.692 195.786 C -0.028 196.507,-0.028 239.893,0.692 240.613 C 0.974 240.895,1.187 242.094,1.187 243.403 C 1.187 244.669,1.364 245.697,1.583 245.697 C 1.800 245.697,1.978 246.677,1.978 247.873 C 1.978 249.070,2.156 250.049,2.374 250.049 C 2.591 250.049,2.770 250.940,2.770 252.028 C 2.770 253.116,2.948 254.006,3.165 254.006 C 3.383 254.006,3.561 254.797,3.561 255.763 C 3.561 256.729,3.739 257.630,3.956 257.765 C 4.174 257.899,4.352 258.611,4.352 259.347 C 4.352 260.083,4.530 260.795,4.748 260.930 C 4.965 261.064,5.143 261.787,5.143 262.536 C 5.143 263.284,5.321 263.897,5.539 263.897 C 5.757 263.897,5.935 264.431,5.935 265.084 C 5.935 265.737,6.113 266.271,6.330 266.271 C 6.548 266.271,6.726 266.983,6.726 267.854 C 6.726 268.724,6.904 269.436,7.122 269.436 C 7.339 269.436,7.517 269.970,7.517 270.623 C 7.517 271.276,7.695 271.810,7.913 271.810 C 8.131 271.810,8.309 272.344,8.309 272.997 C 8.309 273.650,8.464 274.184,8.653 274.184 C 8.843 274.184,9.118 275.090,9.265 276.197 C 9.412 277.304,9.702 278.550,9.909 278.966 C 10.117 279.382,10.465 280.077,10.682 280.509 C 10.900 280.941,11.078 281.643,11.078 282.068 C 11.078 282.494,11.256 282.952,11.474 283.086 C 11.691 283.221,11.869 283.676,11.869 284.099 C 11.869 284.521,12.047 284.866,12.265 284.866 C 12.483 284.866,12.661 285.301,12.661 285.832 C 12.661 286.363,12.839 286.908,13.056 287.043 C 13.274 287.177,13.452 287.633,13.452 288.055 C 13.452 288.477,13.630 288.823,13.848 288.823 C 14.065 288.823,14.243 289.258,14.243 289.789 C 14.243 290.320,14.421 290.865,14.639 290.999 C 14.857 291.133,15.035 291.589,15.035 292.011 C 15.035 292.434,15.213 292.779,15.430 292.779 C 15.648 292.779,15.826 293.136,15.826 293.571 C 15.826 294.006,16.004 294.362,16.222 294.362 C 16.439 294.362,16.617 294.807,16.617 295.351 C 16.617 295.895,16.795 296.340,17.013 296.340 C 17.230 296.340,17.409 296.696,17.409 297.132 C 17.409 297.567,17.587 297.923,17.804 297.923 C 18.022 297.923,18.200 298.279,18.200 298.714 C 18.200 299.149,18.378 299.505,18.595 299.505 C 18.813 299.505,18.991 299.862,18.991 300.297 C 18.991 300.732,19.169 301.088,19.387 301.088 C 19.604 301.088,19.782 301.444,19.782 301.879 C 19.782 302.315,19.960 302.671,20.178 302.671 C 20.396 302.671,20.574 303.027,20.574 303.462 C 20.574 303.897,20.752 304.253,20.969 304.253 C 21.187 304.253,21.365 304.609,21.365 305.045 C 21.365 305.480,21.543 305.836,21.761 305.836 C 21.978 305.836,22.156 306.192,22.156 306.627 C 22.156 307.062,22.334 307.418,22.552 307.418 C 22.770 307.418,22.948 307.774,22.948 308.210 C 22.948 308.645,23.081 309.003,23.244 309.005 C 23.408 309.007,23.893 309.808,24.322 310.785 C 24.752 311.762,25.197 312.565,25.311 312.568 C 25.426 312.571,25.955 313.462,26.487 314.546 C 27.020 315.631,27.598 316.518,27.773 316.518 C 27.948 316.518,28.091 316.835,28.091 317.222 C 28.091 317.609,28.447 318.183,28.882 318.497 C 29.318 318.810,29.674 319.318,29.674 319.626 C 29.674 319.933,29.986 320.472,30.369 320.824 C 30.751 321.176,31.315 321.954,31.622 322.552 C 31.930 323.150,32.329 323.640,32.510 323.640 C 32.691 323.640,32.840 323.863,32.841 324.135 C 32.842 324.407,33.376 325.198,34.028 325.893 C 34.679 326.589,35.213 327.271,35.213 327.408 C 35.213 327.546,35.880 328.312,36.696 329.111 C 37.512 329.910,38.439 331.065,38.756 331.678 C 39.072 332.291,41.514 334.962,44.181 337.613 C 51.197 344.586,52.532 345.796,53.205 345.796 C 53.537 345.796,53.808 345.965,53.808 346.172 C 53.808 346.605,56.231 348.957,56.680 348.960 C 56.845 348.961,57.539 349.496,58.223 350.148 C 58.906 350.801,59.666 351.335,59.912 351.335 C 60.158 351.335,60.616 351.691,60.930 352.127 C 61.243 352.562,61.778 352.918,62.117 352.918 C 62.456 352.918,62.990 353.274,63.304 353.709 C 63.617 354.144,64.109 354.500,64.397 354.500 C 64.684 354.500,65.302 354.857,65.769 355.292 C 66.236 355.727,66.852 356.083,67.137 356.083 C 67.422 356.083,67.656 356.221,67.656 356.390 C 67.656 356.559,68.455 357.049,69.432 357.478 C 70.410 357.908,71.211 358.393,71.213 358.556 C 71.215 358.719,71.573 358.853,72.008 358.853 C 72.443 358.853,72.799 359.031,72.799 359.248 C 72.799 359.466,73.155 359.644,73.591 359.644 C 74.026 359.644,74.382 359.822,74.382 360.040 C 74.382 360.257,74.738 360.435,75.173 360.435 C 75.608 360.435,75.964 360.613,75.964 360.831 C 75.964 361.048,76.320 361.227,76.756 361.227 C 77.191 361.227,77.547 361.405,77.547 361.622 C 77.547 361.840,77.893 362.018,78.315 362.018 C 78.737 362.018,79.193 362.196,79.327 362.413 C 79.462 362.631,80.007 362.809,80.538 362.809 C 81.069 362.809,81.503 362.987,81.503 363.205 C 81.503 363.422,81.860 363.600,82.295 363.600 C 82.730 363.600,83.086 363.778,83.086 363.996 C 83.086 364.214,83.531 364.392,84.075 364.392 C 84.619 364.392,85.064 364.570,85.064 364.787 C 85.064 365.005,85.598 365.183,86.251 365.183 C 86.904 365.183,87.438 365.361,87.438 365.579 C 87.438 365.796,87.972 365.974,88.625 365.974 C 89.278 365.974,89.812 366.152,89.812 366.370 C 89.812 366.588,90.425 366.766,91.173 366.766 C 91.922 366.766,92.645 366.944,92.779 367.161 C 92.914 367.379,93.537 367.557,94.164 367.557 C 94.791 367.557,95.414 367.735,95.549 367.953 C 95.683 368.170,96.584 368.348,97.551 368.348 C 98.517 368.348,99.308 368.526,99.308 368.744 C 99.308 368.961,100.276 369.139,101.460 369.139 C 102.644 369.139,103.723 369.318,103.858 369.535 C 103.992 369.753,105.747 369.931,107.758 369.931 C 109.808 369.931,111.599 370.115,111.834 370.351 C 112.450 370.967,128.863 370.186,129.555 369.508 C 129.762 369.305,130.864 369.139,132.004 369.139 C 133.145 369.139,134.188 368.961,134.322 368.744 C 134.457 368.526,135.269 368.348,136.126 368.348 C 136.984 368.348,137.685 368.170,137.685 367.953 C 137.685 367.735,138.298 367.557,139.047 367.557 C 139.796 367.557,140.518 367.379,140.653 367.161 C 140.787 366.944,141.410 366.766,142.038 366.766 C 142.665 366.766,143.288 366.588,143.422 366.370 C 143.557 366.152,144.015 365.974,144.440 365.974 C 144.866 365.974,145.612 365.768,146.098 365.517 C 148.003 364.532,148.385 364.392,149.154 364.392 C 149.592 364.392,149.951 364.214,149.951 363.996 C 149.951 363.778,150.396 363.600,150.940 363.600 C 151.484 363.600,151.929 363.422,151.929 363.205 C 151.929 362.987,152.179 362.809,152.485 362.809 C 153.144 362.809,156.421 361.159,156.611 360.732 C 156.683 360.569,157.084 360.435,157.501 360.435 C 157.918 360.435,158.259 360.257,158.259 360.040 C 158.259 359.822,158.615 359.644,159.050 359.644 C 159.486 359.644,159.842 359.466,159.842 359.248 C 159.842 359.031,160.198 358.853,160.633 358.853 C 161.068 358.853,161.424 358.675,161.424 358.457 C 161.424 358.239,161.768 358.061,162.187 358.061 C 162.607 358.061,163.186 357.839,163.473 357.567 C 163.761 357.295,164.530 356.811,165.183 356.491 C 165.836 356.171,167.114 355.414,168.024 354.809 C 168.933 354.204,169.868 353.709,170.101 353.709 C 170.334 353.709,170.524 353.531,170.524 353.314 C 170.524 353.096,170.880 352.918,171.316 352.918 C 171.751 352.918,172.107 352.740,172.107 352.522 C 172.107 352.305,172.448 352.127,172.865 352.127 C 173.282 352.127,173.683 351.993,173.755 351.830 C 173.945 351.402,177.222 349.753,177.881 349.753 C 178.187 349.753,178.437 349.575,178.437 349.357 C 178.437 349.139,178.793 348.961,179.228 348.961 C 179.664 348.961,180.020 348.783,180.020 348.566 C 180.020 348.348,180.465 348.170,181.009 348.170 C 181.553 348.170,181.998 347.992,181.998 347.774 C 181.998 347.557,182.443 347.379,182.987 347.379 C 183.531 347.379,183.976 347.201,183.976 346.983 C 183.976 346.766,184.599 346.588,185.361 346.588 C 186.123 346.588,186.746 346.409,186.746 346.192 C 186.746 345.974,187.458 345.796,188.328 345.796 C 189.199 345.796,189.911 345.618,189.911 345.401 C 189.911 345.183,190.801 345.005,191.889 345.005 C 192.977 345.005,193.867 344.827,193.867 344.609 C 193.867 344.373,195.384 344.214,197.626 344.214 C 199.868 344.214,201.385 344.054,201.385 343.818 C 201.385 343.573,203.495 343.422,206.924 343.422 C 210.353 343.422,212.463 343.573,212.463 343.818 C 212.463 344.062,214.507 344.214,217.804 344.214 C 221.101 344.214,223.145 344.365,223.145 344.609 C 223.145 344.847,224.728 345.005,227.102 345.005 C 229.476 345.005,231.058 345.163,231.058 345.401 C 231.058 345.639,232.707 345.796,235.213 345.796 C 237.718 345.796,239.367 345.953,239.367 346.192 C 239.367 346.437,241.535 346.588,245.081 346.588 C 248.463 346.588,250.894 346.749,251.039 346.983 C 251.364 347.510,259.941 347.510,259.941 346.983 C 259.941 346.736,262.249 346.588,266.073 346.588 C 269.898 346.588,272.206 346.439,272.206 346.192 C 272.206 345.946,274.374 345.796,277.919 345.796 C 281.302 345.796,283.733 345.635,283.877 345.401 C 284.018 345.173,286.116 345.005,288.823 345.005 C 291.530 345.005,293.628 344.837,293.769 344.609 C 293.903 344.392,295.605 344.214,297.551 344.214 C 299.645 344.214,301.088 344.052,301.088 343.818 C 301.088 343.589,302.341 343.422,304.055 343.422 C 305.687 343.422,307.023 343.270,307.023 343.083 C 307.023 342.897,308.834 342.619,311.048 342.467 C 313.262 342.314,315.387 342.022,315.770 341.817 C 316.153 341.612,317.101 341.444,317.877 341.444 C 318.653 341.444,319.288 341.266,319.288 341.048 C 319.288 340.831,319.989 340.653,320.847 340.653 C 321.705 340.653,322.516 340.475,322.651 340.257 C 322.785 340.040,323.508 339.862,324.257 339.862 C 325.006 339.862,325.618 339.683,325.618 339.466 C 325.618 339.248,326.231 339.070,326.980 339.070 C 327.728 339.070,328.451 338.892,328.586 338.675 C 328.720 338.457,329.254 338.279,329.773 338.279 C 330.291 338.279,330.825 338.101,330.959 337.883 C 331.094 337.666,331.628 337.488,332.146 337.488 C 332.665 337.488,333.199 337.310,333.333 337.092 C 333.468 336.874,334.012 336.696,334.544 336.696 C 335.075 336.696,335.509 336.518,335.509 336.301 C 335.509 336.083,336.044 335.905,336.696 335.905 C 337.349 335.905,337.883 335.727,337.883 335.509 C 337.883 335.292,338.239 335.114,338.675 335.114 C 339.110 335.114,339.466 334.936,339.466 334.718 C 339.466 334.500,339.900 334.322,340.432 334.322 C 340.963 334.322,341.507 334.144,341.642 333.927 C 341.776 333.709,342.232 333.531,342.654 333.531 C 343.077 333.531,343.422 333.353,343.422 333.136 C 343.422 332.918,343.778 332.740,344.214 332.740 C 344.649 332.740,345.005 332.562,345.005 332.344 C 345.005 332.127,345.361 331.949,345.796 331.949 C 346.231 331.949,346.588 331.771,346.588 331.553 C 346.588 331.335,346.944 331.157,347.379 331.157 C 347.814 331.157,348.170 330.979,348.170 330.762 C 348.170 330.544,348.437 330.366,348.764 330.366 C 349.090 330.366,349.357 330.188,349.357 329.970 C 349.357 329.753,349.713 329.575,350.148 329.575 C 350.584 329.575,350.940 329.397,350.940 329.179 C 350.940 328.961,351.256 328.783,351.644 328.783 C 352.031 328.783,352.604 328.427,352.918 327.992 C 353.232 327.557,353.710 327.201,353.981 327.201 C 354.718 327.201,357.270 325.916,357.270 325.545 C 357.270 325.368,357.504 325.223,357.789 325.223 C 358.074 325.223,358.653 324.906,359.075 324.519 C 359.497 324.133,360.462 323.378,361.221 322.843 C 362.964 321.614,363.396 321.243,366.112 318.643 C 367.332 317.474,368.495 316.518,368.695 316.518 C 369.167 316.518,372.263 313.456,375.272 310.013 C 376.578 308.519,377.868 307.070,378.140 306.792 C 378.412 306.515,378.635 306.097,378.635 305.864 C 378.635 305.631,378.813 305.440,379.031 305.440 C 379.248 305.440,379.426 305.260,379.426 305.041 C 379.426 304.821,379.960 304.083,380.613 303.400 C 381.266 302.717,381.800 301.956,381.800 301.710 C 381.800 301.464,382.156 301.006,382.591 300.692 C 383.027 300.379,383.383 299.845,383.383 299.505 C 383.383 299.166,383.739 298.632,384.174 298.318 C 384.609 298.005,384.965 297.520,384.965 297.242 C 384.965 296.964,385.143 296.736,385.361 296.736 C 385.579 296.736,385.757 296.469,385.757 296.142 C 385.757 295.816,385.891 295.549,386.056 295.549 C 386.220 295.549,386.607 294.970,386.914 294.263 C 387.222 293.556,387.577 292.888,387.703 292.779 C 388.663 291.952,392.483 283.884,392.483 282.683 C 392.483 282.143,392.616 281.700,392.779 281.698 C 393.181 281.694,394.065 279.737,394.065 278.853 C 394.065 278.461,394.243 278.140,394.461 278.140 C 394.679 278.140,394.857 277.795,394.857 277.373 C 394.857 276.950,395.035 276.495,395.252 276.360 C 395.470 276.226,395.648 275.681,395.648 275.150 C 395.648 274.619,395.826 274.184,396.044 274.184 C 396.261 274.184,396.439 273.660,396.439 273.020 C 396.439 272.380,396.617 271.747,396.835 271.612 C 397.052 271.478,397.230 270.755,397.230 270.006 C 397.230 269.258,397.409 268.645,397.626 268.645 C 397.844 268.645,398.022 267.933,398.022 267.062 C 398.022 266.192,398.200 265.480,398.417 265.480 C 398.635 265.480,398.813 264.693,398.813 263.732 C 398.813 262.686,399.012 261.919,399.308 261.820 C 399.692 261.692,399.802 258.112,399.802 245.697 C 399.802 233.283,399.692 229.703,399.308 229.575 C 399.013 229.476,398.813 228.713,398.813 227.686 C 398.813 226.737,398.635 225.852,398.417 225.717 C 398.200 225.583,398.022 224.949,398.022 224.309 C 398.022 223.669,397.844 223.145,397.626 223.145 C 397.409 223.145,397.230 222.622,397.230 221.982 C 397.230 221.342,397.052 220.708,396.835 220.574 C 396.617 220.439,396.439 219.905,396.439 219.387 C 396.439 218.868,396.261 218.334,396.044 218.200 C 395.826 218.065,395.648 217.610,395.648 217.187 C 395.648 216.765,395.470 216.419,395.252 216.419 C 395.035 216.419,394.857 216.063,394.857 215.628 C 394.857 215.193,394.679 214.837,394.461 214.837 C 394.243 214.837,394.065 214.509,394.065 214.108 C 394.065 213.305,391.302 207.596,390.811 207.385 C 390.643 207.313,390.504 206.952,390.504 206.583 C 390.504 206.214,390.148 205.655,389.713 205.341 C 389.278 205.028,388.922 204.493,388.922 204.154 C 388.922 203.815,388.566 203.281,388.131 202.967 C 387.695 202.654,387.339 202.214,387.338 201.990 C 387.338 201.766,386.804 200.959,386.152 200.198 C 385.501 199.436,384.967 198.630,384.966 198.406 C 384.966 198.182,384.609 197.742,384.174 197.428 C 383.739 197.115,383.383 196.630,383.383 196.352 C 383.383 196.073,383.205 195.846,382.987 195.846 C 382.770 195.846,382.591 195.650,382.591 195.411 C 382.591 195.172,382.057 194.477,381.405 193.867 C 380.752 193.258,380.218 192.634,380.218 192.483 C 380.218 192.331,379.708 191.731,379.086 191.150 C 378.464 190.569,377.835 189.717,377.689 189.257 C 377.543 188.797,376.938 187.910,376.344 187.286 C 375.750 186.663,374.829 185.529,374.297 184.768 C 373.766 184.006,373.011 183.095,372.620 182.743 C 372.229 182.391,371.909 181.923,371.909 181.703 C 371.909 181.482,371.197 180.568,370.326 179.671 C 369.456 178.774,368.744 177.934,368.744 177.804 C 368.744 177.674,368.210 177.069,367.557 176.459 C 366.904 175.849,366.370 175.153,366.370 174.912 C 366.370 174.671,365.836 173.915,365.183 173.231 C 364.530 172.548,363.996 171.749,363.996 171.455 C 363.996 171.161,363.845 170.920,363.660 170.920 C 363.476 170.920,363.004 170.208,362.611 169.337 C 362.219 168.467,361.768 167.755,361.610 167.755 C 361.452 167.755,361.101 167.221,360.831 166.568 C 360.560 165.915,360.183 165.381,359.992 165.381 C 359.800 165.381,359.644 165.147,359.644 164.862 C 359.644 164.577,359.288 163.961,358.853 163.494 C 358.417 163.027,358.061 162.459,358.061 162.232 C 358.061 162.005,357.883 161.820,357.666 161.820 C 357.448 161.820,357.270 161.479,357.270 161.062 C 357.270 160.645,357.136 160.244,356.973 160.171 C 356.602 160.006,355.317 157.899,355.023 156.973 C 354.903 156.592,354.647 156.281,354.454 156.281 C 354.262 156.281,354.105 156.011,354.105 155.682 C 354.105 155.101,353.939 154.681,352.980 152.824 C 352.728 152.338,352.522 151.670,352.522 151.341 C 352.522 151.011,352.344 150.742,352.127 150.742 C 351.909 150.742,351.731 150.386,351.731 149.951 C 351.731 149.515,351.553 149.159,351.335 149.159 C 351.118 149.159,350.940 148.725,350.940 148.193 C 350.940 147.662,350.762 147.118,350.544 146.983 C 350.326 146.849,350.148 146.304,350.148 145.773 C 350.148 145.242,349.970 144.807,349.753 144.807 C 349.535 144.807,349.357 144.273,349.357 143.620 C 349.357 142.967,349.200 142.433,349.008 142.433 C 348.816 142.433,348.534 141.099,348.381 139.469 C 348.228 137.838,347.940 136.403,347.741 136.280 C 347.542 136.157,347.379 135.301,347.379 134.378 C 347.379 133.455,347.216 132.531,347.018 132.324 C 346.644 131.935,346.309 129.352,345.967 124.233 C 345.858 122.601,345.601 120.910,345.395 120.475 C 345.016 119.675,344.765 115.173,344.387 102.374 C 344.267 98.314,344.019 95.351,343.801 95.351 C 343.579 95.351,343.422 93.225,343.422 90.231 C 343.422 87.244,343.257 85.009,343.027 84.866 C 342.809 84.732,342.631 83.208,342.631 81.480 C 342.631 79.649,342.466 78.338,342.235 78.338 C 342.012 78.338,341.840 77.217,341.840 75.767 C 341.840 74.316,341.667 73.195,341.444 73.195 C 341.227 73.195,341.048 72.305,341.048 71.217 C 341.048 70.129,340.870 69.238,340.653 69.238 C 340.435 69.238,340.257 68.526,340.257 67.656 C 340.257 66.785,340.079 66.073,339.862 66.073 C 339.644 66.073,339.466 65.461,339.466 64.712 C 339.466 63.963,339.288 63.240,339.070 63.106 C 338.853 62.971,338.675 62.338,338.675 61.698 C 338.675 61.058,338.497 60.534,338.279 60.534 C 338.061 60.534,337.883 60.000,337.883 59.347 C 337.883 58.694,337.705 58.160,337.488 58.160 C 337.270 58.160,337.092 57.715,337.092 57.171 C 337.092 56.627,336.914 56.182,336.696 56.182 C 336.479 56.182,336.301 55.826,336.301 55.391 C 336.301 54.955,336.123 54.599,335.905 54.599 C 335.687 54.599,335.509 54.243,335.509 53.808 C 335.509 53.373,335.331 53.017,335.114 53.017 C 334.896 53.017,334.718 52.661,334.718 52.226 C 334.718 51.790,334.556 51.434,334.357 51.434 C 334.159 51.434,333.876 50.722,333.729 49.852 C 333.582 48.981,333.343 48.269,333.197 48.269 C 333.052 48.269,332.683 47.690,332.378 46.983 C 331.664 45.331,327.331 38.927,325.915 37.431 C 325.317 36.799,324.827 36.121,324.827 35.923 C 324.827 35.726,323.759 34.516,322.453 33.234 C 321.147 31.953,320.079 30.781,320.079 30.631 C 320.079 30.066,311.469 22.156,310.855 22.156 C 310.663 22.156,310.006 21.622,309.397 20.969 C 308.787 20.317,308.091 19.782,307.850 19.782 C 307.608 19.782,306.852 19.248,306.169 18.595 C 305.486 17.943,304.778 17.409,304.595 17.409 C 304.278 17.409,303.193 16.603,302.061 15.529 C 301.775 15.257,301.260 15.035,300.918 15.035 C 300.577 15.035,300.297 14.885,300.297 14.701 C 300.297 14.518,299.451 13.939,298.417 13.415 C 297.384 12.891,296.479 12.329,296.406 12.166 C 296.334 12.003,295.933 11.869,295.516 11.869 C 295.099 11.869,294.758 11.691,294.758 11.474 C 294.758 11.256,294.402 11.078,293.966 11.078 C 293.531 11.078,293.175 10.900,293.175 10.682 C 293.175 10.465,292.819 10.287,292.384 10.287 C 291.949 10.287,291.592 10.129,291.592 9.935 C 291.592 9.742,290.969 9.467,290.208 9.324 C 289.446 9.181,288.823 8.894,288.823 8.686 C 288.823 8.479,288.378 8.309,287.834 8.309 C 287.290 8.309,286.845 8.131,286.845 7.913 C 286.845 7.695,286.400 7.517,285.856 7.517 C 285.312 7.517,284.866 7.339,284.866 7.122 C 284.866 6.904,284.521 6.726,284.099 6.726 C 283.676 6.726,283.221 6.548,283.086 6.330 C 282.952 6.113,282.407 5.935,281.876 5.935 C 281.345 5.935,280.910 5.757,280.910 5.539 C 280.910 5.321,280.376 5.143,279.723 5.143 C 279.070 5.143,278.536 4.965,278.536 4.748 C 278.536 4.530,278.002 4.352,277.349 4.352 C 276.696 4.352,276.162 4.174,276.162 3.956 C 276.162 3.739,275.550 3.561,274.801 3.561 C 274.052 3.561,273.329 3.383,273.195 3.165 C 273.060 2.948,272.338 2.770,271.589 2.770 C 270.840 2.770,270.227 2.591,270.227 2.374 C 270.227 2.156,269.526 1.978,268.668 1.978 C 267.811 1.978,266.999 1.800,266.864 1.583 C 266.730 1.365,265.666 1.187,264.500 1.187 C 263.167 1.187,262.320 1.005,262.217 0.697 C 262.055 0.212,228.214 -0.129,220.179 0.274 M163.600 365.579 C 163.466 365.796,162.754 365.974,162.018 365.974 C 161.282 365.974,160.570 366.152,160.435 366.370 C 160.301 366.588,159.667 366.766,159.027 366.766 C 158.387 366.766,157.864 366.944,157.864 367.161 C 157.864 367.379,157.429 367.557,156.898 367.557 C 156.367 367.557,155.822 367.735,155.687 367.953 C 155.553 368.170,155.097 368.348,154.675 368.348 C 154.253 368.348,153.907 368.526,153.907 368.744 C 153.907 368.961,153.551 369.139,153.116 369.139 C 152.681 369.139,152.324 369.318,152.324 369.535 C 152.324 369.753,151.968 369.931,151.533 369.931 C 151.098 369.931,150.742 370.109,150.742 370.326 C 150.742 370.544,150.386 370.722,149.951 370.722 C 149.515 370.722,149.159 370.900,149.159 371.118 C 149.159 371.335,148.803 371.513,148.368 371.513 C 147.933 371.513,147.577 371.691,147.577 371.909 C 147.577 372.127,147.310 372.305,146.983 372.305 C 146.657 372.305,146.390 372.483,146.390 372.700 C 146.390 372.918,146.162 373.096,145.884 373.096 C 145.605 373.096,145.121 373.452,144.807 373.887 C 144.493 374.322,144.038 374.679,143.795 374.679 C 143.552 374.679,142.657 375.492,141.805 376.485 C 140.954 377.479,139.857 378.717,139.367 379.237 C 138.877 379.757,138.477 380.457,138.477 380.793 C 138.477 381.129,138.299 381.405,138.081 381.405 C 137.864 381.405,137.685 381.761,137.685 382.196 C 137.685 382.631,137.507 382.987,137.290 382.987 C 137.072 382.987,136.894 383.521,136.894 384.174 C 136.894 384.827,136.716 385.361,136.499 385.361 C 136.275 385.361,136.103 386.482,136.103 387.933 C 136.103 389.383,136.275 390.504,136.499 390.504 C 136.716 390.504,136.894 390.970,136.894 391.539 C 136.894 392.877,139.337 395.155,141.133 395.492 C 143.487 395.934,155.612 395.478,155.791 394.942 C 155.879 394.677,156.470 394.461,157.105 394.461 C 157.740 394.461,158.259 394.283,158.259 394.065 C 158.259 393.848,158.793 393.670,159.446 393.670 C 160.099 393.670,160.633 393.492,160.633 393.274 C 160.633 393.056,160.989 392.878,161.424 392.878 C 161.860 392.878,162.216 392.700,162.216 392.483 C 162.216 392.265,162.572 392.087,163.007 392.087 C 163.442 392.087,163.798 391.909,163.798 391.691 C 163.798 391.474,164.154 391.296,164.590 391.296 C 165.025 391.296,165.381 391.118,165.381 390.900 C 165.381 390.682,165.737 390.504,166.172 390.504 C 166.607 390.504,166.963 390.326,166.963 390.109 C 166.963 389.891,167.319 389.713,167.755 389.713 C 168.190 389.713,168.546 389.535,168.546 389.318 C 168.546 389.100,168.813 388.922,169.139 388.922 C 169.466 388.922,169.733 388.784,169.733 388.616 C 169.733 388.448,170.374 387.965,171.159 387.543 C 172.627 386.752,177.639 382.116,177.655 381.534 C 177.660 381.354,178.012 380.762,178.437 380.218 C 178.863 379.674,179.215 378.828,179.220 378.338 C 179.225 377.849,179.407 377.448,179.624 377.448 C 179.842 377.448,180.020 376.736,180.020 375.865 C 180.020 374.995,180.198 374.283,180.415 374.283 C 180.633 374.283,180.811 373.482,180.811 372.502 C 180.811 371.523,180.633 370.722,180.415 370.722 C 180.198 370.722,180.020 370.271,180.020 369.720 C 180.020 368.605,177.667 365.974,176.670 365.974 C 176.336 365.974,176.063 365.796,176.063 365.579 C 176.063 365.332,173.763 365.183,169.954 365.183 C 166.308 365.183,163.746 365.343,163.600 365.579 " stroke="none" fill="#1caccc" fill-rule="evenodd"></path><path id="path1" d="" stroke="none" fill="#20accc" fill-rule="evenodd"></path><path id="path2" d="" stroke="none" fill="#20accc" fill-rule="evenodd"></path><path id="path3" d="" stroke="none" fill="#20accc" fill-rule="evenodd"></path><path id="path4" d="" stroke="none" fill="#20accc" fill-rule="evenodd"></path></g></svg>