<svg xmlns="http://www.w3.org/2000/svg" width="14" height="14" viewBox="0 0 14 14">
    <g fill="#E0E0E0" fill-rule="nonzero">
        <path d="M3.259 4.504H.449a.226.226 0 0 0-.226.226v9.029c0 .124.1.226.225.226h2.81a.226.226 0 0 0 .227-.226v-9.03a.226.226 0 0 0-.226-.225zM1.855.015A1.856 1.856 0 0 0 0 1.868C0 2.89.832 3.721 1.855 3.721a1.855 1.855 0 0 0 1.853-1.853A1.855 1.855 0 0 0 1.855.015zM10.408 4.28c-1.13 0-1.964.485-2.47 1.036V4.73a.226.226 0 0 0-.226-.226H5.021a.226.226 0 0 0-.226.226v9.029c0 .124.101.226.226.226h2.804a.226.226 0 0 0 .226-.226V9.29c0-1.505.409-2.091 1.458-2.091 1.143 0 1.234.94 1.234 2.169v4.39c0 .125.101.226.226.226h2.805a.226.226 0 0 0 .226-.226V8.806c0-2.238-.427-4.526-3.592-4.526z"/>
    </g>
</svg>
