<svg xmlns="http://www.w3.org/2000/svg" width="14" height="12" viewBox="0 0 14 12">
    <path fill="#E38355" fill-rule="nonzero" d="M13.956 5.688V5.6a.066.066 0 0 0-.022-.044c0-.022-.021-.022-.021-.043 0-.022-.022-.022-.022-.044a.022.022 0 0 1-.022-.022L8.903.307a.46.46 0 0 0-.634 0 .416.416 0 0 0 0 .612l4.178 4.331H.48a.437.437 0 1 0 0 .875h12.053L8.27 10.456a.437.437 0 0 0 .022.613.416.416 0 0 0 .612 0l4.944-5.032c0-.021 0-.021.022-.043.012 0 .022-.01.022-.022 0-.022.021-.022.021-.044h.022v-.044a.066.066 0 0 0 .022-.043v-.154z"/>
</svg>
