<svg xmlns="http://www.w3.org/2000/svg" width="49" height="49" viewBox="0 0 49 49">
    <g fill="#018064" fill-rule="evenodd">
        <circle cx="24.5" cy="24.5" r="24.5" fill-opacity=".1"/>
        <path fill-rule="nonzero" stroke="#018064" d="M24.516 14.08l8.49 4.17v7.7c0 1.973-1.28 4.39-2.91 5.503l-5.58 3.805-5.579-3.805c-1.632-1.113-2.91-3.53-2.91-5.503v-7.713l8.49-4.157zm2.472 7.68l-3.529 3.526-1.41-1.423a1.08 1.08 0 1 0-1.534 1.52l2.173 2.196c.201.205.477.322.764.324h.003c.287-.001.561-.116.764-.32l4.295-4.295a1.08 1.08 0 0 0-1.526-1.529z"/>
    </g>
</svg>
