<svg xmlns="http://www.w3.org/2000/svg" width="50" height="49" viewBox="0 0 50 49">
    <g fill="none" fill-rule="evenodd">
        <circle cx="24.8" cy="24.5" r="24.5" fill="#DAEDFE"/>
        <path fill="#0084FD" fill-rule="nonzero" d="M32.177 18.788l-4.165-4.165a.415.415 0 0 0-.295-.123h-8.75c-.92 0-1.667.747-1.667 1.667v16.666c0 .92.748 1.667 1.667 1.667h11.666c.92 0 1.667-.747 1.667-1.667v-13.75a.415.415 0 0 0-.123-.295zM21.05 21.333a1.248 1.248 0 1 1-.417-2.423v-.077a.416.416 0 1 1 .834 0h.416a.416.416 0 1 1 0 .834h-.833a.417.417 0 0 0 0 .833 1.248 1.248 0 1 1 .417 2.423V23a.416.416 0 1 1-.834 0h-.416a.416.416 0 1 1 0-.833h.833a.417.417 0 0 0 0-.834zM25.217 30h-5a.416.416 0 1 1 0-.833h5a.416.416 0 1 1 0 .833zm4.166-3.5h-9.166a.416.416 0 1 1 0-.833h9.166a.416.416 0 1 1 0 .833zm0-3.5h-5a.416.416 0 1 1 0-.833h5a.416.416 0 1 1 0 .833zm-.416-4.333a.834.834 0 0 1-.834-.834v-1.91l2.745 2.744h-1.911z"/>
    </g>
</svg>
