<svg xmlns="http://www.w3.org/2000/svg" width="225.32" height="150.527" viewBox="0 0 225.32 150.527">
  <g id="Group_164" data-name="Group 164" transform="translate(-7549.072 -2031.973)">
    <path id="Path_645" data-name="Path 645" d="M522.7,240.751H460.823l2.55-14.455h61.872Z" transform="translate(7230.652 1827.727)" fill="#c8bbad"/>
    <path id="Path_646" data-name="Path 646" d="M537.065,270.312H475.193l2.55-14.455h61.872Z" transform="translate(7227.001 1820.214)" fill="#998f85"/>
    <path id="Path_647" data-name="Path 647" d="M547.489,211.189H485.617l2.55-14.455h61.872Z" transform="translate(7224.352 1835.239)" fill="#64a8dc"/>
    <path id="Path_648" data-name="Path 648" d="M497.367,223.708h34.176L519.8,216.114H485.617Z" transform="translate(7224.352 1830.314)" fill="#23488d"/>
    <path id="Path_649" data-name="Path 649" d="M376.943,371.647a9.086,9.086,0,0,1-9,7.821c-3.129,0-4.832-1.9-4.316-4.827.694-3.946,4.478-5.718,12.163-5.718h1.631Zm-3.377-19.8a36.732,36.732,0,0,0-10.175,1.769l.368,5.238a25.627,25.627,0,0,1,8.143-1.428c4.965,0,7.2,1.971,6.529,5.779l-.215,1.225h-2.655c-11.7,0-18.172,3.535-19.409,10.544-.82,6.188,2.47,9.521,9.409,9.521,3.943,0,8.645-1.971,10.7-4.76a12.262,12.262,0,0,0-.166,4.013h6.667c.02-.886.133-1.9.255-2.995.174-1.357.4-2.652.6-3.808l2.41-13.263c1.526-7.89-2.606-11.836-12.47-11.836m-36.078,8.641c.508-2.109,2.173-3.061,5.3-3.061A20.472,20.472,0,0,1,350.881,359l2.6-5.51a29.2,29.2,0,0,0-9.574-1.634c-7.278,0-12.472,3.607-13.72,9.524-.768,4.354,1.473,7.073,7.811,9.319,3.344,1.088,6.608,2.244,6.142,4.9-.409,2.31-2.356,3.331-6.167,3.331a24.458,24.458,0,0,1-9.546-2.177l-2.435,5.715a31.559,31.559,0,0,0,11,2.039c7.956,0,13.263-3.466,14.5-9.317,1.008-5.715-2.8-8.028-8.575-10-3.142-1.09-5.886-2.111-5.429-4.694m53.372,23.262h7.823l7.165-40.477h-7.821Zm-68.9-17.33,1.093-6.19H307.2L309.09,349.6h17.278l1.118-6.323h-25.1l-7.16,40.477h25.508l1.09-6.19H304.138l1.971-11.14Z" transform="translate(7272.734 1797.999)" fill="#23488d"/>
    <path id="Path_650" data-name="Path 650" d="M375.121,318.52h7.073l1.261-7.143h-7.076Zm-12.109,0h7.076l1.258-7.143h-7.073Zm37.788-5.987,1.537-2.925a14.5,14.5,0,0,0-4.11-.61c-2.448,0-4.378,1.289-4.679,2.989a4.224,4.224,0,0,0,.879,3.132h-2.995l-.6,3.4h10.542l.6-3.4h-4.219a1.623,1.623,0,0,1-1.389-1.768,1.688,1.688,0,0,1,1.874-1.363,9.167,9.167,0,0,1,2.558.546m-38.483-18.975-.972,5.508H334.816l2.925,1.156c1.369-7.755,9.021-17.21,18-17.21,5.577,0,7.8,3.6,6.575,10.545m32.52,11.9h7.824l7.129-40.4h-7.823ZM384.3,276.889l-3.913,22.177H369.439l1.284-7.28c1.707-10.065-3.1-15.982-13.1-15.982-8.163,0-15.7,5.3-19.9,12.581l1.228.748,2.162-12.245h-6.872l-3.913,22.177H320.6l6-34.011h-7.824l-7.126,40.4h75.431l5.041-28.571Zm-88.125,21.429c-1.585,8.98-4.927,13.263-10.774,13.263-6.8,0-9.1-3.947-7.571-12.992l.791-4.488h-7.346l-.791,4.488c-2.3,13.4,2.164,19.726,13.8,19.726,10.474,0,17.5-7.412,19.778-20.339l5.81-32.92h-7.824Z" transform="translate(7279.169 1817.877)" fill="#23488d"/>
  </g>
</svg>
