<svg xmlns="http://www.w3.org/2000/svg" width="103" height="78" viewBox="0 0 103 78">
    <g fill="none" fill-rule="nonzero">
        <path fill="#3E9E89" d="M24.134 47.623a6.946 6.946 0 0 1-6.937-6.937V4.73c0-.204.01-.404.028-.604C3 2 .895 7.442.89 11.037v45.955a6.947 6.947 0 0 0 6.937 6.937L69 64l-3-3-3-5 2-8-40.866-.377z" opacity=".6"/>
        <path fill="#404041" stroke="#404041" d="M79.415 11.039v26.103h-2.942v-15.94H7.943v35.792a6.943 6.943 0 0 0 6.937 6.937L69 64c.503.001 1.503.668 3 2-.62.584-1.44.876-2.465.874H14.88c-5.454-.006-9.874-4.426-9.88-9.88V11.039c.007-5.454 4.426-9.874 9.88-9.88h54.655c5.455.007 9.873 4.426 9.88 9.88zm-2.942 7.22v-7.22a6.947 6.947 0 0 0-6.938-6.937H14.88a6.946 6.946 0 0 0-6.937 6.937v7.22h68.53z"/>
        <g fill="#404041">
            <path d="M46.954 15.4h.012a4.116 4.116 0 0 0 4.111-4.1v-.015a4.114 4.114 0 0 0-4.099-4.11h-.012a4.113 4.113 0 0 0-.012 8.226zm-.814-4.943c.219-.218.516-.34.826-.339h.001a1.17 1.17 0 0 1 0 2.34h-.005a1.172 1.172 0 0 1-.822-2.001zM35.087 15.363h.014a4.118 4.118 0 0 0 4.112-4.1 4.118 4.118 0 0 0-4.099-4.125H35.1a4.113 4.113 0 0 0-.013 8.225zm-.812-4.942c.219-.219.515-.342.825-.34h.004a1.169 1.169 0 1 1-.004 2.34h-.003a1.17 1.17 0 0 1-.822-2zM23.222 15.325h.013a4.12 4.12 0 0 0 4.114-4.099v-.012a4.115 4.115 0 1 0-4.127 4.111zm-.811-4.942c.218-.218.515-.341.824-.34h.004a1.168 1.168 0 1 1-.004 2.34h-.004a1.17 1.17 0 0 1-.82-2z"/>
        </g>
        <path fill="#404041" stroke="#404041" stroke-width=".5" d="M101.51 74.16l-9.616-9.617a16.798 16.798 0 0 0 3.82-10.686c0-9.306-7.55-16.857-16.857-16.857C69.543 37 62 44.551 62 53.857s7.543 16.857 16.857 16.857c4.057 0 7.772-1.428 10.678-3.812l9.616 9.608a1.665 1.665 0 0 0 2.36 0 1.656 1.656 0 0 0 0-2.35zm-22.653-6.8c-7.453 0-13.51-6.058-13.51-13.503s6.057-13.51 13.51-13.51c7.445 0 13.51 6.065 13.51 13.51 0 7.445-6.065 13.502-13.51 13.502z"/>
    </g>
</svg>
