<svg xmlns="http://www.w3.org/2000/svg" width="96" height="89" viewBox="0 0 96 89">
    <g fill="none" fill-rule="evenodd">
        <path fill="#3E9E89" d="M70.326 65.86c10.48 0 18.976-8.496 18.976-18.976 0-5.308-9.367-4.534-18.976-4.465-9.365.066-18.977-.708-18.977 4.465 0 10.48 8.496 18.976 18.977 18.976zM18.977 88.186c10.48 0 18.976-8.496 18.976-18.977 0-5.308-9.367-4.533-18.976-4.465C9.612 64.811 0 64.037 0 69.21c0 10.48 8.496 18.977 18.977 18.977z" opacity=".6"/>
        <path fill="#404041" fill-rule="nonzero" d="M95.681 43.61a2.126 2.126 0 0 0-.531-2.744l-16.373-12.29c.142-.29.214-.61.213-.935v-17.01a2.126 2.126 0 0 0 0-.489 2.126 2.126 0 0 0 0-.319 2.126 2.126 0 0 0-.468-.68 2.126 2.126 0 0 0-.425-.298 2.126 2.126 0 0 0-.255-.17 2.126 2.126 0 0 0-.978-.17l-.808.17-22.58 9.42V2.125a2.126 2.126 0 1 0-4.253 0V19.86l-24.197 10.1c-.255.11-.486.269-.68.468-.08.1-.152.206-.213.319-.09.112-.168.233-.234.361a2.126 2.126 0 0 0-.191.787v17.01c.005.31.077.614.212.893L7.548 62.107a2.126 2.126 0 0 0-.531 2.743c-.199.32-.309.687-.32 1.064 0 10.568 8.568 19.136 19.137 19.136S44.97 76.482 44.97 65.914a2.126 2.126 0 0 0-.319-1.042 2.126 2.126 0 0 0-.531-2.743L27.748 49.818c.138-.285.21-.598.212-.914V33.34l46.778-19.498v13.8c.005.309.077.614.212.892l-16.372 12.29a2.126 2.126 0 0 0-.531 2.743c-.203.326-.313.7-.32 1.084 0 10.569 8.568 19.136 19.137 19.136C87.432 63.787 96 55.22 96 44.651a2.126 2.126 0 0 0-.319-1.042zm-5.38-1.085H63.427l13.438-10.078 13.438 10.078zm-51.03 21.262H12.397L25.834 53.71l13.438 10.078zm-13.437 17.01A14.884 14.884 0 0 1 11.099 68.04h29.47a14.884 14.884 0 0 1-14.735 12.757zm51.03-21.262a14.884 14.884 0 0 1-14.735-12.758h29.47a14.884 14.884 0 0 1-14.735 12.758z"/>
    </g>
</svg>
