<svg xmlns="http://www.w3.org/2000/svg" width="107" height="107" viewBox="0 0 107 107">
    <g fill="none" fill-rule="nonzero">
        <path fill="#FFF" d="M60.587 66.768l27.194-27.193a4.163 4.163 0 0 0 0-5.887L57.31 3.22a4.163 4.163 0 0 0-5.886 0L3.22 51.425a4.163 4.163 0 0 0 0 5.887L33.69 87.78a4.163 4.163 0 0 0 5.886 0l7.915-7.915"/>
        <path fill="#3E9E89" d="M76.586 105h25.639c1.533 0 2.775-1.595 2.775-3.562V64.562c0-1.967-1.242-3.562-2.775-3.562h-45.45C55.242 61 54 62.595 54 64.562v36.876c0 1.967 1.242 3.562 2.775 3.562H76.587z" opacity=".6"/>
        <path fill="#FFF" d="M38 60h15v10H38z"/>
        <path fill="#3E9E89" d="M69.067 14.75L14.75 69.065l-3.387-3.388L65.68 11.362z" opacity=".6"/>
        <path fill="#404041" d="M38.093 81h12.814C52.063 81 53 80.104 53 79s-.937-2-2.093-2H38.093C36.937 77 36 77.896 36 79s.937 2 2.093 2zM75 79c0-1.104-.937-2-2.093-2H60.093C58.937 77 58 77.896 58 79s.937 2 2.093 2h12.814C74.063 81 75 80.105 75 79zM94.907 81C96.063 81 97 80.104 97 79s-.937-2-2.093-2H82.093C80.937 77 80 77.896 80 79s.937 2 2.093 2h12.814zM52.935 72c1.14 0 2.065-.95 2.065-2.123v-9.754C55 58.95 54.075 58 52.935 58h-14.87c-1.14 0-2.065.95-2.065 2.123v9.754C36 71.05 36.925 72 38.065 72h14.87zM40.13 62.245h10.74v5.51H40.13v-5.51zM54.013 103h-.026A1.994 1.994 0 0 0 52 105c0 1.104.89 2 1.987 2h.026A1.994 1.994 0 0 0 56 105c0-1.104-.89-2-1.987-2z"/>
        <path fill="#404041" d="M100.73 51.192H79.806l9.897-9.896a6.277 6.277 0 0 0 0-8.867L59.107 1.833a6.277 6.277 0 0 0-8.867 0L1.833 50.24a6.278 6.278 0 0 0 0 8.867l24.17 24.17v17.453a6.277 6.277 0 0 0 6.27 6.27h11.24a2.09 2.09 0 0 0 0-4.18h-11.24a2.092 2.092 0 0 1-2.09-2.09V57.462c0-1.153.937-2.09 2.09-2.09h68.457c1.152 0 2.09.937 2.09 2.09v43.268c0 1.153-.938 2.09-2.09 2.09H62.113a2.09 2.09 0 0 0 0 4.18h38.617a6.277 6.277 0 0 0 6.27-6.27V57.462a6.277 6.277 0 0 0-6.27-6.27zm-13.371-14.33c0 .559-.218 1.083-.612 1.478L73.895 51.192h-12.49l4.754-4.754a2.09 2.09 0 0 0-2.956-2.956l-7.71 7.71H49.98l11.344-11.344a2.09 2.09 0 0 0-2.956-2.956l-14.3 14.3H35.58l23.062-23.063a2.09 2.09 0 0 0-2.955-2.955L14.749 66.112l-3.836-3.836 51.362-51.363 24.472 24.472c.394.394.612.92.612 1.477zM4.789 53.196L53.196 4.789a2.092 2.092 0 0 1 2.955 0l3.169 3.169L7.957 59.32 4.79 56.151a2.093 2.093 0 0 1 0-2.955zm12.916 15.871l8.298-8.298v16.596l-8.298-8.298z"/>
        <path fill="#404041" d="M61.586 19.586A2.007 2.007 0 0 0 61 21c0 .526.212 1.042.586 1.414.37.372.886.586 1.412.586.528 0 1.044-.214 1.416-.586.372-.372.586-.888.586-1.414 0-.526-.214-1.042-.586-1.414A2.016 2.016 0 0 0 62.998 19c-.526 0-1.042.214-1.412.586z"/>
    </g>
</svg>
