<svg xmlns="http://www.w3.org/2000/svg" width="17" height="16" viewBox="0 0 17 16">
    <g fill="none" fill-rule="evenodd">
        <path fill="#E38355" d="M1 9.426h6v6H1a1 1 0 0 1-1-1v-4a1 1 0 0 1 1-1zM10 3.426h6a1 1 0 0 1 1 1v3a1 1 0 0 1-1 1h-6v-5z"/>
        <g fill="#222" fill-rule="nonzero">
            <path d="M6.781 5.426H2.094C1.49 5.426 1 4.936 1 4.332V1.52C1 .917 1.49.426 2.094.426H6.78c.603 0 1.094.49 1.094 1.094v2.812c0 .603-.49 1.094-1.094 1.094zM2.094 1.363a.156.156 0 0 0-.156.157v2.812c0 .086.07.157.156.157H6.78c.087 0 .157-.07.157-.157V1.52a.156.156 0 0 0-.157-.157H2.094zM6.781 15.426H2.094c-.603 0-1.094-.49-1.094-1.094V7.77c0-.603.49-1.094 1.094-1.094H6.78c.603 0 1.094.49 1.094 1.094v6.562c0 .603-.49 1.094-1.094 1.094zM2.094 7.613a.156.156 0 0 0-.156.157v6.562c0 .086.07.156.156.156H6.78c.087 0 .157-.07.157-.156V7.77a.156.156 0 0 0-.157-.157H2.094zM14.906 15.426H10.22c-.603 0-1.094-.49-1.094-1.094V11.52c0-.603.49-1.094 1.094-1.094h4.687c.603 0 1.094.49 1.094 1.094v2.812c0 .603-.49 1.094-1.094 1.094zm-4.687-4.063a.156.156 0 0 0-.157.157v2.812c0 .086.07.156.157.156h4.687c.086 0 .156-.07.156-.156V11.52a.156.156 0 0 0-.156-.157H10.22zM14.906 9.176H10.22c-.603 0-1.094-.49-1.094-1.094V1.52c0-.603.49-1.094 1.094-1.094h4.687C15.51.426 16 .916 16 1.52v6.562c0 .603-.49 1.094-1.094 1.094zM10.22 1.363a.156.156 0 0 0-.157.157v6.562c0 .086.07.157.157.157h4.687c.086 0 .156-.07.156-.157V1.52a.156.156 0 0 0-.156-.157H10.22z"/>
        </g>
    </g>
</svg>
