<svg xmlns="http://www.w3.org/2000/svg" width="18" height="18" viewBox="0 0 18 18">
    <g fill="#D33F38" fill-rule="nonzero">
        <path d="M16.454 2.705h-4.696a3.15 3.15 0 0 0-3.1-2.63h-.056a3.15 3.15 0 0 0-3.099 2.63H.808a.722.722 0 0 0-.733.732c0 .413.32.733.733.733h1.07v10.593a3.158 3.158 0 0 0 3.175 3.174h7.1a3.158 3.158 0 0 0 3.174-3.174V4.17h1.108c.413 0 .732-.32.732-.733s-.3-.732-.713-.732zM8.62 1.54h.057c.75 0 1.39.489 1.596 1.165H7.006A1.687 1.687 0 0 1 8.62 1.54zm5.297 13.242c0 .958-.751 1.71-1.71 1.71H5.072c-.958 0-1.709-.752-1.709-1.71V4.17H13.9v10.593h.019v.019z"/>
        <path d="M6.424 14.068c.413 0 .732-.32.732-.732V7.382a.722.722 0 0 0-.732-.733.722.722 0 0 0-.733.733v5.954c0 .413.32.732.733.732zM10.856 14.068c.414 0 .733-.32.733-.732V7.382a.722.722 0 0 0-.733-.733.722.722 0 0 0-.732.733v5.954c0 .413.357.732.732.732z"/>
    </g>
</svg>
