<svg xmlns="http://www.w3.org/2000/svg" width="92" height="135" viewBox="0 0 92 135">
    <g fill="none" fill-rule="evenodd">
        <g fill="#018064">
            <circle cx="42.75" cy="63.75" r="40.625"/>
            <path d="M65.563 123.75c4.843 0 9.687-4.337 9.687-9.688 0-5.35-4.337-9.687-9.688-9.687-5.35 0-9.687 4.337-9.687 9.688 0 5.35 4.844 9.687 9.688 9.687z"/>
            <circle cx="19.625" cy="98.125" r="19.375"/>
            <circle cx="33.375" cy="127.5" r="7.5"/>
            <circle cx="6.188" cy="5.313" r="5.313"/>
        </g>
        <path fill="#404041" fill-rule="nonzero" d="M70.316 22.676a3.876 3.876 0 1 1-4.22 6.46C51.86 21.14 33.963 24.24 23.245 36.56c-10.718 12.32-11.31 30.473-1.419 43.467C31.717 93.02 49.373 97.282 64.102 90.23c14.73-7.051 22.482-23.476 18.564-39.329a3.866 3.866 0 1 1 7.324-2.43c5.109 19.449-4.221 39.8-22.291 48.623S27.842 100.76 15.647 84.77s-11.408-38.364 1.88-53.457c13.288-15.093 35.383-18.708 52.789-8.636z"/>
        <path fill="#404041" fill-rule="nonzero" stroke="#404041" stroke-width="2" d="M43.876 68.113c1.083 1.083 2.934 1.097 4.03 0l12.491-12.49 1.78-1.78c1.054-1.054 1.14-2.991 0-4.03-1.14-1.04-2.905-1.126-4.03 0-4.159 4.158-8.332 8.33-12.49 12.49-.599.598-2.464-2.934-4.814-5.284-1.054-1.054-2.991-1.14-4.03 0-1.04 1.139-1.126 2.905 0 4.03l7.063 7.064z"/>
    </g>
</svg>
