<svg xmlns="http://www.w3.org/2000/svg" width="48" height="48" viewBox="0 0 48 48">
    <g fill="none" fill-rule="evenodd">
        <circle cx="24" cy="24" r="24" fill="#F8F7F7"/>
        <path fill="#222" fill-rule="nonzero" d="M31.348 17.62c-1.113-1.115-3.056-1.115-4.17 0l-9.89 9.89a.736.736 0 0 0-.194.342l-1.042 4.17a.737.737 0 0 0 .893.894l4.17-1.043a.73.73 0 0 0 .343-.194l9.89-9.89a2.93 2.93 0 0 0 .864-2.085c0-.788-.306-1.527-.864-2.084zM20.561 30.493l-2.78.695.694-2.78 8.182-8.182 2.085 2.085-8.181 8.182zm9.745-9.747l-.521.521-2.085-2.085.52-.52c.557-.557 1.529-.557 2.086 0 .278.278.432.647.432 1.042 0 .394-.154.764-.432 1.042z"/>
    </g>
</svg>
