<svg xmlns="http://www.w3.org/2000/svg" width="14" height="17" viewBox="0 0 14 17">
    <g fill="#E38355" fill-rule="evenodd">
        <path fill-rule="nonzero" d="M12.715 1.26c-.866-.867-2.377-.867-3.243 0L1.779 8.952a.573.573 0 0 0-.15.266l-.81 3.243a.577.577 0 0 0 .555.713.558.558 0 0 0 .14-.017l3.243-.811a.567.567 0 0 0 .266-.15l7.692-7.693a2.28 2.28 0 0 0 .672-1.622c0-.613-.238-1.188-.672-1.621zm-8.39 10.012l-2.163.54.541-2.162 6.364-6.363 1.621 1.622-6.363 6.363zm7.58-7.58l-.406.405-1.621-1.622.404-.405a1.175 1.175 0 0 1 1.622 0c.217.216.336.504.336.81 0 .308-.12.595-.336.812z"/>
        <rect width="9.692" height="1.077" x="4.308" y="15.077" rx=".5"/>
    </g>
</svg>
