<svg xmlns="http://www.w3.org/2000/svg" width="49" height="49" viewBox="0 0 49 49">
    <g fill="none" fill-rule="evenodd">
        <circle cx="24.5" cy="24.5" r="24.5" fill="#FDDFDF"/>
        <path fill="#F02B2B" fill-rule="nonzero" d="M24.497 14.523a3.67 3.67 0 0 1 3.231 1.876l6.756 11.7a3.683 3.683 0 0 1-.009 3.727 3.715 3.715 0 0 1-3.244 1.881H17.737a3.692 3.692 0 0 1-3.223-1.85 3.712 3.712 0 0 1-.012-3.75l6.764-11.712a3.684 3.684 0 0 1 3.231-1.872zm-.004 13.481a1.09 1.09 0 0 0-1.079 1.079 1.09 1.09 0 0 0 1.079 1.078c.565 0 1.078-.492 1.052-1.052a1.053 1.053 0 0 0-1.052-1.105zm-.268-7.571c-.513.147-.832.613-.832 1.178.026.34.047.686.073 1.026l.22 3.87a.79.79 0 0 0 .807.76c.44 0 .785-.341.807-.786 0-.267 0-.513.025-.785.048-.832.1-1.665.147-2.498.026-.539.073-1.078.1-1.617 0-.195-.027-.367-.1-.54a1.081 1.081 0 0 0-1.247-.608z"/>
    </g>
</svg>
