<svg xmlns="http://www.w3.org/2000/svg" width="50" height="32" viewBox="0 0 50 32">
    <path fill="#C2C2C2" fill-rule="evenodd" d="M9.272 28.311v2.732c0 .497-.332.828-.828.828H.994c-.497 0-.828-.331-.828-.828 0-5.05-1.077-14.487 2.731-17.88-.827-.497-1.655-.994-2.318-1.74-.082-.496-.082-.91.083-1.324 1.987-1.241 4.305-1.573 6.043.166C8.03 7.533 9.106 5.38 10.182 3.31c.497-.662 2.07-2.07 3.311-2.235 7.368-1.407 15.646-1.407 23.014 0 1.241.166 2.814 1.573 3.31 2.235a270.865 270.865 0 0 1 3.478 6.954c1.738-1.739 4.056-1.407 6.043-.166.165.414.165.828.083 1.325-.663.745-1.49 1.242-2.318 1.738 3.808 3.394 2.731 12.831 2.731 17.881 0 .497-.33.828-.827.828h-7.45c-.497 0-.829-.331-.829-.828v-2.732a166.395 166.395 0 0 0-31.456 0zm5.132-25.993c-1.49.248-2.897 1.49-3.477 2.4a189.605 189.605 0 0 1-2.814 5.878c11.755-2.152 22.02-2.152 33.774 0a189.605 189.605 0 0 1-2.814-5.877c-.58-.911-1.987-2.153-3.477-2.401a69.957 69.957 0 0 0-21.192 0zm3.973 17.55a.919.919 0 0 0-.91.91v2.4c0 .497.414.911.91.911h13.246c.496 0 .91-.414.91-.91v-2.4a.919.919 0 0 0-.91-.911H18.377zm-7 3.928V21.16L4 18v2.634a3.162 3.162 0 0 0 3.161 3.162h4.215zM45.934 18l-7.376 3.161v2.635h4.215a3.161 3.161 0 0 0 3.161-3.162V18z"/>
</svg>
