<svg xmlns="http://www.w3.org/2000/svg" width="90" height="135" viewBox="0 0 90 135">
    <g fill="none" fill-rule="evenodd">
        <circle cx="49.375" cy="63.75" r="40.625" fill="#E38355"/>
        <circle cx="72.188" cy="114.063" r="9.688" fill="#E38355"/>
        <circle cx="26.25" cy="98.125" r="19.375" fill="#E38355"/>
        <circle cx="40" cy="127.5" r="7.5" fill="#E38355"/>
        <circle cx="12.813" cy="5.313" r="5.313" fill="#E38355"/>
        <g fill="#404041" fill-rule="nonzero">
            <path d="M41.963 17C18.824 17 .002 35.826.002 58.965c0 23.139 18.822 41.963 41.96 41.963s41.965-18.824 41.965-41.963C83.927 35.825 65.1 17 41.963 17zm0 78.213c-19.987 0-36.247-16.26-36.247-36.248 0-19.988 16.26-36.25 36.247-36.25 19.988 0 36.249 16.262 36.249 36.25S61.95 95.213 41.962 95.213z"/>
            <path stroke="#E38355" stroke-width="2" d="M41.963 29.92c-16.013 0-29.041 13.031-29.041 29.045 0 16.013 13.028 29.043 29.04 29.043a3.999 3.999 0 0 0 4-4c0-2.21-1.79-4-4-4-11.602 0-21.04-9.44-21.04-21.043 0-11.605 9.437-21.045 21.04-21.045 11.604 0 21.044 9.44 21.044 21.045a4 4 0 0 0 8 0c0-16.014-13.029-29.044-29.043-29.044z"/>
            <path d="M47.8 59.216c.003-.086.025-.166.025-.252a5.862 5.862 0 0 0-11.723 0 5.86 5.86 0 0 0 5.86 5.863c.107 0 .203-.026.31-.032l16.85 14.118a2.117 2.117 0 0 0 2.968-2.999L47.8 59.216z"/>
        </g>
    </g>
</svg>
