<svg xmlns="http://www.w3.org/2000/svg" width="17" height="15" viewBox="0 0 17 15">
    <g fill="none" fill-rule="evenodd" transform="translate(0 .426)">
        <path fill="#222" fill-rule="nonzero" d="M15.881 0H1.097C.483 0 0 .616 0 1.4v11.2c0 .784.483 1.4 1.097 1.4h14.806c.614 0 1.097-.616 1.097-1.4V1.4C16.978.616 16.495 0 15.881 0zm.097 12.833H1V1.167h15v11.666h-.022z"/>
        <circle cx="5.5" cy="5.5" r="1.5" fill="#E38355"/>
        <path fill="#E38355" d="M7.72 10.603S6.88 7 5.5 7c-1.38 0-2.498 3.571-2.498 3.571l4.719.032z"/>
        <path fill="#222" fill-rule="nonzero" d="M10.035 6.26h4.555a.6.6 0 0 0 .609-.602.6.6 0 0 0-.61-.602h-4.554a.6.6 0 0 0-.61.602.6.6 0 0 0 .61.602zM10.035 8.618h3.264a.6.6 0 0 0 .609-.601.6.6 0 0 0-.61-.602h-3.263a.6.6 0 0 0-.61.602.6.6 0 0 0 .61.601zM2.191 10a.6.6 0 0 0 .609.603.6.6 0 0 0 .609-.602c0-1.01.828-1.83 1.851-1.83a1.84 1.84 0 0 1 1.852 1.83.6.6 0 0 0 .609.602.6.6 0 0 0 .608-.602c0-1.155-.657-2.142-1.632-2.647.488-.41.804-1.011.804-1.685a2.222 2.222 0 0 0-2.24-2.214 2.222 2.222 0 0 0-2.242 2.214c0 .674.317 1.275.804 1.685C2.85 7.859 2.191 8.87 2.191 10zm3.045-5.342c.56 0 1.023.457 1.023 1.01a1.023 1.023 0 0 1-2.046 0c0-.553.463-1.01 1.023-1.01z"/>
    </g>
</svg>
