<svg xmlns="http://www.w3.org/2000/svg" width="86" height="116" viewBox="0 0 86 116">
    <g fill="none" fill-rule="evenodd">
        <path fill="#3E9E89" d="M25.5 101a7.5 7.5 0 1 1 0 15 7.5 7.5 0 0 1 0-15zM47 11c21.54 0 39 16.118 39 36S68.54 83 47 83 8 66.882 8 47s17.46-36 39-36zM77.313 0a5.313 5.313 0 1 1 0 10.625 5.313 5.313 0 0 1 0-10.625z" opacity=".6"/>
        <path fill="#404041" fill-rule="nonzero" d="M3.126 95a3.124 3.124 0 0 1-2.898-4.296l7.095-17.552C2.525 66.915 0 59.598 0 51.875c0-9.902 4.196-19.196 11.816-26.17C19.358 18.802 29.367 15 40 15c10.633 0 20.642 3.802 28.184 10.705C75.804 32.679 80 41.973 80 51.875c0 7.101-2.194 13.996-6.344 19.94a3.125 3.125 0 1 1-5.124-3.579c3.414-4.888 5.218-10.546 5.218-16.361C73.75 34.988 58.61 21.25 40 21.25S6.25 34.988 6.25 51.875c0 6.841 2.434 13.313 7.038 18.715.756.886.956 2.118.52 3.198L8.905 85.911 23.18 79.62a3.126 3.126 0 0 1 2.487-.015C30.169 81.525 34.992 82.5 40 82.5c5.764 0 11.453-1.342 16.45-3.88a3.125 3.125 0 0 1 2.831 5.572C53.411 87.174 46.743 88.75 40 88.75c-5.388 0-10.6-.967-15.512-2.877L4.386 94.735a3.122 3.122 0 0 1-1.26.265zm39.999-29.219V48.906a3.125 3.125 0 1 0-6.25 0v16.875a3.125 3.125 0 1 0 6.25 0zM40 35a3.125 3.125 0 1 0 3.125 3.125c0-1.726-1.4-3.125-3.125-3.125z"/>
    </g>
</svg>
