<svg xmlns="http://www.w3.org/2000/svg" width="20" height="20" viewBox="0 0 20 20">
    <g fill="#018064" fill-rule="nonzero">
        <path stroke="#018064" stroke-width=".4" d="M18.5 1H1.489a.476.476 0 0 0-.475.475c0 .26.213.474.475.474h1.024v17.106c0 .174.095.337.25.42.154.083.34.075.486-.024l2.061-1.373 2.07 1.377a.472.472 0 0 0 .525 0l2.061-1.373 2.07 1.377a.472.472 0 0 0 .526 0l2.06-1.373 2.07 1.377a.481.481 0 0 0 .486.024.476.476 0 0 0 .25-.42L17.42 1.961h1.08a.476.476 0 0 0 .474-.474A.486.486 0 0 0 18.5 1zm-2.018 17.17l-1.594-1.061a.472.472 0 0 0-.526 0L12.3 18.486l-2.069-1.377a.472.472 0 0 0-.526 0l-2.06 1.373-2.07-1.373a.472.472 0 0 0-.526 0l-1.586 1.056V1.945h13.015l.004 16.224z"/>
        <path d="M5.646 7.68h4.973a.476.476 0 0 0 .475-.475.476.476 0 0 0-.475-.475H5.646a.474.474 0 1 0 0 .95zM13.104 7.68h1.242a.476.476 0 0 0 .474-.475.476.476 0 0 0-.474-.475h-1.242a.474.474 0 1 0 0 .95zM5.646 4.77h4.973a.476.476 0 0 0 .475-.475.476.476 0 0 0-.475-.474H5.646a.474.474 0 1 0 0 .95zM13.104 4.77h1.242a.476.476 0 0 0 .474-.475.476.476 0 0 0-.474-.474h-1.242a.474.474 0 1 0 0 .95zM5.646 10.637h4.973a.476.476 0 0 0 .475-.475.476.476 0 0 0-.475-.475H5.646a.474.474 0 1 0 0 .95zM5.646 13.183h3.727a.476.476 0 0 0 .475-.475.476.476 0 0 0-.475-.475H5.646a.474.474 0 1 0 0 .95zM13.104 10.637h1.242a.476.476 0 0 0 .474-.475.476.476 0 0 0-.474-.475h-1.242a.474.474 0 1 0 0 .95zM13.104 13.183h1.242a.476.476 0 0 0 .474-.475.476.476 0 0 0-.474-.475h-1.242a.474.474 0 1 0 0 .95z"/>
    </g>
</svg>
