<svg xmlns="http://www.w3.org/2000/svg" width="91" height="95" viewBox="0 0 91 95">
    <g fill="none" fill-rule="evenodd">
        <path fill="#018064" d="M18 30h56a6 6 0 0 1 6 6v19a6 6 0 0 1-6 6H18C9.716 61 3 54.284 3 46v-1c0-8.284 6.716-15 15-15z"/>
        <rect width="9" height="9" x="10" fill="#018064" rx="3"/>
        <rect width="16" height="16" x="75" y="72" fill="#018064" rx="4"/>
        <rect width="11" height="11" x="46" y="84" fill="#018064" rx="4"/>
        <g fill="#404041" fill-rule="nonzero">
            <path d="M45.22 26.053a2.074 2.074 0 0 0-2.074-2.075H15.289C7.312 23.978.82 30.467.82 38.442c0 7.978 6.49 14.467 14.468 14.467h27.857a2.075 2.075 0 0 0 0-4.15H15.289c-5.69 0-10.318-4.628-10.318-10.317 0-5.687 4.628-10.314 10.318-10.314h27.857a2.076 2.076 0 0 0 2.075-2.075z"/>
            <path d="M25.12 35.82a2.077 2.077 0 0 0-2.71-1.13l-2.73 1.127v-2.952a2.075 2.075 0 0 0-4.15 0v3.347l-3.234-.866a2.071 2.071 0 0 0-2.54 1.467 2.077 2.077 0 0 0 1.467 2.542l3.11.832-1.73 2.715a2.076 2.076 0 0 0 3.499 2.233l1.732-2.714 2.068 2.468a2.07 2.07 0 0 0 2.922.257 2.075 2.075 0 0 0 .259-2.922l-2.067-2.468 2.978-1.227a2.075 2.075 0 0 0 1.125-2.71zM43.903 35.82a2.074 2.074 0 0 0-2.71-1.13l-2.73 1.127v-2.952a2.075 2.075 0 0 0-4.15 0v3.347l-3.232-.866a2.075 2.075 0 1 0-1.073 4.01l3.11.831-1.73 2.715a2.076 2.076 0 0 0 3.499 2.233l1.73-2.714 2.068 2.468a2.072 2.072 0 0 0 2.922.257 2.074 2.074 0 0 0 .258-2.922l-2.067-2.468 2.977-1.227a2.075 2.075 0 0 0 1.128-2.71zM72.488 20.042H57.963c-.349 0-.695.02-1.037.054v-9.325c0-3.603 3.66-6.534 8.155-6.534h.292c4.496 0 8.152 2.93 8.152 6.534a2.075 2.075 0 0 0 4.15 0C77.675 4.88 72.157.087 65.373.087h-.292c-6.785 0-12.305 4.792-12.305 10.684v10.74c-2.866 1.756-4.789 4.907-4.789 8.505v14.525c0 5.501 4.476 9.976 9.976 9.976h14.525c5.5 0 9.975-4.475 9.975-9.976V30.016c0-5.5-4.475-9.974-9.975-9.974zm5.825 24.5a5.832 5.832 0 0 1-5.825 5.825H57.963a5.832 5.832 0 0 1-5.826-5.826V30.016a5.831 5.831 0 0 1 5.826-5.824h14.525a5.832 5.832 0 0 1 5.825 5.824v14.525z"/>
            <path d="M65.225 32.173c-1.147 0-2.075.93-2.075 2.075v5.604c0 1.148.928 2.075 2.075 2.075a2.074 2.074 0 0 0 2.075-2.075v-5.604a2.074 2.074 0 0 0-2.075-2.075z"/>
        </g>
    </g>
</svg>
