<svg xmlns="http://www.w3.org/2000/svg" xmlns:xlink="http://www.w3.org/1999/xlink" width="336" height="396" viewBox="0 0 336 396">
    <defs>
        <path id="a" d="M0 .6h516.073V526H0z"/>
    </defs>
    <g fill="none" fill-rule="evenodd" opacity=".031">
        <g transform="translate(-181)">
            <mask id="b" fill="#fff">
                <use xlink:href="#a"/>
            </mask>
            <path fill="#018064" d="M484.753 494.723h-36.144V300.279c0-21.826-12.043-49.536-28-64.45L233.251 60.804l24.785-23.15L466.663 232.56c9.47 8.848 18.09 28.678 18.09 41.623v220.541zm-131.61-232.79L233.25 149.933l24.785-23.149 141.173 131.878c9.462 8.844 18.081 28.68 18.081 41.616v194.444h-36.143V326.387c0-21.835-12.038-49.544-28.005-64.455zm-190.214 0c-15.966 14.91-28.008 42.624-28.008 64.454v168.336H98.78V300.279c0-12.937 8.616-32.772 18.077-41.616l93.474-87.317 24.78 23.15-72.183 67.436zM31.32 274.182c0-12.937 8.62-32.776 18.08-41.624L210.332 82.216l24.78 23.15-139.65 130.463c-15.966 14.914-28 42.624-28 64.45v194.444H31.32v-220.54zm456.743-64.46L268.735 4.819c-6.025-5.624-15.382-5.624-21.399 0L28 209.724c-15.962 14.92-28 42.63-28 64.458v236.18C0 518.998 7.007 526 15.66 526h190.172c8.652 0 15.659-7.003 15.659-15.64 0-8.64-7.007-15.638-15.66-15.638h-39.59V326.387c0-12.941 8.618-32.776 18.084-41.619l73.71-68.853 73.713 68.86c9.46 8.836 18.08 28.671 18.08 41.612v168.336h-39.59c-8.654 0-15.661 6.998-15.661 15.639 0 8.636 7.007 15.639 15.66 15.639h190.175c8.648 0 15.66-7.003 15.66-15.64V274.183c0-21.829-12.043-49.543-28.009-64.458z" mask="url(#b)"/>
        </g>
        <path fill="#018064" d="M76.5 340c-10.771 0-19.5 8.73-19.5 19.5S65.729 379 76.5 379 96 370.27 96 359.5 87.271 340 76.5 340"/>
    </g>
</svg>
