<svg xmlns="http://www.w3.org/2000/svg" width="20" height="20" viewBox="0 0 20 20">
    <g fill="none" fill-rule="nonzero">
        <path fill="#018064" d="M16.916 17.55a5.912 5.912 0 0 1-8.363 0l-6.685-6.685a5.913 5.913 0 0 1 0-8.363l4.18 4.18L5.73 7c-.71.71-.71 1.862 0 2.572l4.116 4.116c.71.71 1.862.71 2.572 0l.318-.318 4.18 4.18z"/>
        <path fill="#222" d="M18.629 17.012l.927-.928a1.418 1.418 0 0 0 0-2.003l-.357-.358a.406.406 0 0 0-.574.575l.357.357a.605.605 0 0 1 0 .854l-.766.767-3.606-3.606.767-.766a.605.605 0 0 1 .854 0l1.04 1.04a.406.406 0 1 0 .575-.574l-1.04-1.04a1.418 1.418 0 0 0-2.004 0L13.43 12.7c-.55.55-1.446.55-1.997 0L7.317 8.585a1.403 1.403 0 0 1-.414-.999c0-.377.147-.732.413-.998l.315-.314.004-.004.003-.004 1.05-1.05a1.418 1.418 0 0 0 0-2.004L5.939.462a1.418 1.418 0 0 0-2.004 0L2.882 1.513l-.002.001-.002.003a6.277 6.277 0 0 0-1.849 4.466c0 1.688.657 3.275 1.851 4.468l1.413 1.413a.406.406 0 1 0 .574-.574L3.455 9.878a5.47 5.47 0 0 1-1.613-3.894c0-1.335.471-2.597 1.336-3.597l3.595 3.595-.03.031a2.227 2.227 0 0 0 0 3.146l4.116 4.117c.433.433 1.003.65 1.573.65.57 0 1.139-.217 1.572-.65l.032-.031 3.594 3.594a5.509 5.509 0 0 1-2.07 1.123 5.51 5.51 0 0 1-5.42-1.399L6.25 12.672a.406.406 0 0 0-.575.574l3.892 3.892a6.324 6.324 0 0 0 6.218 1.605 6.318 6.318 0 0 0 2.234-1.17s.607-.561.61-.561zM3.742 1.802l.767-.766a.605.605 0 0 1 .854 0l2.751 2.75a.605.605 0 0 1 0 .855l-.766.767-3.606-3.606z"/>
    </g>
</svg>
