<svg xmlns="http://www.w3.org/2000/svg" width="19" height="13" viewBox="0 0 19 13">
    <g fill="none" fill-rule="nonzero">
        <path fill="#018064" d="M9 7h2s-.345-1.353 0-1c.65.666 2.983 2.666 7 6-2.073.01.226 0-1 0-7.295.328-11.351.492-12.168.492-1.226 0-1.723-.145-1.723-.502L9 7z"/>
        <path fill="#222" d="M2.732 12.93H16.25c1.502 0 2.722-1.148 2.722-2.567v-7.76c0-1.413-1.22-2.567-2.722-2.567H2.732C1.23.036.009 1.185.009 2.604v7.765c-.005 1.413 1.22 2.562 2.723 2.562zM1.009 2.605c0-.894.773-1.622 1.723-1.622H16.25c.95 0 1.723.728 1.723 1.622v7.765c0 .893-.773 1.621-1.723 1.621H2.732c-.95 0-1.723-.728-1.723-1.621V2.604z"/>
        <path fill="#222" d="M2.748 10.384a.523.523 0 0 0 .707.042L7.779 6.84l1.403 1.023a.508.508 0 0 0 .309.1.52.52 0 0 0 .309-.1l1.447-1.055 4.28 3.613c.093.083.215.119.33.119a.518.518 0 0 0 .376-.156.455.455 0 0 0-.038-.665L12.053 6.22l4.12-3.01a.449.449 0 0 0 .088-.66.517.517 0 0 0-.701-.082L9.49 6.902 8.067 5.857 3.433 2.474a.516.516 0 0 0-.701.083.448.448 0 0 0 .088.66l4.158 3.04-4.18 3.467a.442.442 0 0 0-.05.66z"/>
    </g>
</svg>
