<svg xmlns="http://www.w3.org/2000/svg" width="16" height="21" viewBox="0 0 16 21">
    <g fill="#222" fill-rule="nonzero">
        <path d="M8 10.22c2.323 0 4.207-2.288 4.207-5.11C12.207 2.288 11.588 0 8 0S3.793 2.288 3.793 5.11c0 2.822 1.884 5.11 4.207 5.11zM.075 18.033c-.002-.195-.003-.055 0 0zM15.965 18.155c.004-.047.001-.326 0 0z"/>
        <path d="M15.936 17.815c-.077-4.916-.72-6.317-5.633-7.204 0 0-.691.882-2.303.882s-2.304-.882-2.304-.882c-4.86.877-5.54 2.257-5.63 7.044-.007.39-.01.411-.012.366v.517S1.225 20.896 8 20.896c6.775 0 7.945-2.358 7.945-2.358v-.382c-.001.028-.004-.027-.009-.341z"/>
    </g>
</svg>
