<svg xmlns="http://www.w3.org/2000/svg" width="146" height="87" viewBox="0 0 146 87">
    <g fill="none" fill-rule="evenodd">
        <rect width="90" height="55" x="50.392" y="18.881" fill="#018064" rx="5" transform="rotate(-20 95.392 46.381)"/>
        <path fill="#404041" fill-rule="nonzero" d="M131.512 44.699l-15.05-40.682a5.86 5.86 0 0 0-3.069-3.313 5.86 5.86 0 0 0-4.512-.173L35.493 27.68a5.862 5.862 0 0 0-3.314 3.068 5.862 5.862 0 0 0-.173 4.513l15.05 40.681a5.86 5.86 0 0 0 3.07 3.314 5.88 5.88 0 0 0 4.512.173l73.388-27.15a5.907 5.907 0 0 0 3.486-7.581zM104.847 8.314L82.083 40.857 43.62 30.965l61.227-22.65zm-53.32 62.708L38.471 35.734l30.235 7.776-17.18 27.512zm6.392.903l16.782-26.873 7.892 2.03a2.956 2.956 0 0 0 3.154-1.165l4.67-6.683 30.232 9.484-62.73 23.207zm36.048-37.76L111.86 8.58l13.06 35.293-30.952-9.71z"/>
        <path fill="#018064" fill-rule="nonzero" d="M43.835 77.927a2.95 2.95 0 0 0-3.79-1.743l-11.118 4.113a2.95 2.95 0 0 0 2.047 5.533l11.117-4.113a2.95 2.95 0 0 0 1.744-3.79z"/>
        <path fill="#404041" fill-rule="nonzero" d="M34.37 76.751a2.95 2.95 0 0 0-3.79-1.743l-11.117 4.113a2.95 2.95 0 0 0 2.047 5.534l11.117-4.113a2.95 2.95 0 0 0 1.744-3.79z"/>
        <path fill="#018064" fill-rule="nonzero" d="M26.58 50.927a2.95 2.95 0 0 0-3.79-1.743l-6.863 2.539a2.95 2.95 0 0 0 2.047 5.533l6.863-2.539a2.95 2.95 0 0 0 1.743-3.79z"/>
        <path fill="#404041" fill-rule="nonzero" d="M19.324 49.363a2.95 2.95 0 0 0-3.79-1.743L8.67 50.16a2.95 2.95 0 0 0 2.047 5.534l6.863-2.54a2.95 2.95 0 0 0 1.743-3.79z"/>
        <path fill="#018064" fill-rule="nonzero" d="M16.817 73.927a2.95 2.95 0 0 0-3.79-1.743l-5.1 1.886a2.95 2.95 0 0 0 2.047 5.534l5.1-1.886a2.95 2.95 0 0 0 1.743-3.79z"/>
        <path fill="#404041" fill-rule="nonzero" d="M10.817 71.711a2.95 2.95 0 0 0-3.79-1.743l-5.1 1.886a2.95 2.95 0 0 0 2.047 5.534l5.1-1.887a2.95 2.95 0 0 0 1.743-3.79z"/>
    </g>
</svg>
