<svg xmlns="http://www.w3.org/2000/svg" width="16" height="19" viewBox="0 0 16 19">
    <g fill="#018064" fill-rule="nonzero" stroke="#018064" stroke-width=".5">
        <path d="M13.47 18.5c.775 0 1.405-.63 1.405-1.405V5.712a.397.397 0 0 0-.007-.073v-.002a.383.383 0 0 0-.035-.098l-.009-.016a.39.39 0 0 0-.068-.09l-4.319-4.32-.019-.013a.386.386 0 0 0-.203-.094c-.018-.002-.035-.005-.054-.005H2.53c-.775 0-1.405.63-1.405 1.405v14.689c0 .774.63 1.405 1.405 1.405h10.94zM10.55 2.328l2.997 2.996h-2.369a.628.628 0 0 1-.627-.627v-2.37zM1.904 17.095V2.405c0-.345.281-.626.627-.626h7.243v2.918c0 .774.63 1.405 1.405 1.405h2.92v10.993a.628.628 0 0 1-.628.627H2.53a.628.628 0 0 1-.627-.627z"/>
        <path d="M4.303 14.69h7.394a.389.389 0 0 0 0-.777H4.303a.389.389 0 0 0 0 .777zM4.303 11.623h7.394a.389.389 0 0 0 0-.778H4.303a.389.389 0 0 0 0 .778zM4.303 8.529h7.394a.389.389 0 0 0 0-.778H4.303a.389.389 0 0 0 0 .778zM4.303 5.588H8a.389.389 0 0 0 0-.778H4.303a.389.389 0 0 0 0 .778z"/>
    </g>
</svg>
