<svg xmlns="http://www.w3.org/2000/svg" width="17" height="16" viewBox="0 0 17 16">
    <g fill="none" fill-rule="evenodd">
        <path fill="#222" stroke="#FAFAFA" stroke-width=".2" d="M14.609 6.492v7.722H2.257V2.849h7.871V1.525H2.743A1.65 1.65 0 0 0 1.1 3.169v10.724c0 .905.74 1.645 1.644 1.645h11.514a1.65 1.65 0 0 0 1.644-1.645V6.492H14.61z"/>
        <path fill="#E38355" d="M8.503 11.69c1.777-.753 2.626-1.683 2.76-4.187 0 0-1.736-.191-2.76-1.34-1.023 1.149-2.766 1.34-2.766 1.34.141 2.504.99 3.434 2.766 4.186z"/>
        <path stroke="#222" d="M8.503 11.69c1.777-.753 2.626-1.683 2.76-4.187 0 0-1.736-.191-2.76-1.34-1.023 1.149-2.766 1.34-2.766 1.34.141 2.504.99 3.434 2.766 4.186z"/>
        <path fill="#E38355" d="M14.423 4.584c1.015-.43 1.5-.962 1.577-2.392 0 0-.992-.11-1.577-.766-.585.657-1.58.766-1.58.766.08 1.43.565 1.962 1.58 2.392z"/>
        <path stroke="#222" d="M14.423 4.584c1.015-.43 1.5-.962 1.577-2.392 0 0-.992-.11-1.577-.766-.585.657-1.58.766-1.58.766.08 1.43.565 1.962 1.58 2.392z"/>
    </g>
</svg>
