<svg xmlns="http://www.w3.org/2000/svg" width="49" height="49" viewBox="0 0 49 49">
    <g fill="none" fill-rule="evenodd">
        <circle cx="24.5" cy="24.5" r="24.5" fill="#FFF6D9"/>
        <path fill="#FFBB02" fill-rule="nonzero" stroke="#FFB800" d="M34.755 33.58l-4.808-4.809A8.431 8.431 0 0 0 23.429 15 8.428 8.428 0 0 0 15 23.429a8.428 8.428 0 0 0 8.429 8.428 8.384 8.384 0 0 0 5.338-1.906l4.809 4.804a.833.833 0 0 0 1.18-1.175zm-11.326-3.4c-3.727 0-6.756-3.029-6.756-6.751a6.763 6.763 0 0 1 6.756-6.756c3.722 0 6.755 3.033 6.755 6.756 0 3.722-3.033 6.75-6.755 6.75z"/>
    </g>
</svg>
