<svg xmlns="http://www.w3.org/2000/svg" width="18" height="18" viewBox="0 0 18 18">
    <g fill="#E38355" fill-rule="nonzero">
        <path d="M11.202 10.513a.98.98 0 0 0-.976.976c0 .537.44.977.976.977.555 0 .977-.44.977-.977a.98.98 0 0 0-.977-.976zM6.798 7.468a.964.964 0 0 0 .976-.957.98.98 0 0 0-.976-.977.953.953 0 0 0-.977.957c0 .537.44.977.977.977z"/>
        <path d="M17.598 8.062l-.67-.996a.777.777 0 0 1-.077-.364l.077-1.206a1.7 1.7 0 0 0-.939-1.628l-1.072-.536a.524.524 0 0 1-.249-.249l-.536-1.072a1.717 1.717 0 0 0-1.628-.939l-1.206.077c-.115 0-.25-.02-.345-.096l-.996-.65a1.676 1.676 0 0 0-1.876 0l-.996.67a.913.913 0 0 1-.383.076l-1.206-.077a1.7 1.7 0 0 0-1.628.939l-.536 1.072a.524.524 0 0 1-.249.249l-1.072.536a1.717 1.717 0 0 0-.939 1.628l.077 1.206c0 .115-.02.25-.096.345l-.65.996a1.676 1.676 0 0 0 0 1.876l.67.996a.913.913 0 0 1 .076.383l-.077 1.206a1.7 1.7 0 0 0 .939 1.628l1.072.536a.622.622 0 0 1 .249.249l.536 1.072c.306.613.958.977 1.628.939l1.206-.077c.115 0 .25.02.345.096l.996.65c.287.192.612.288.938.288.325 0 .65-.096.938-.287l.996-.67a.717.717 0 0 1 .345-.096l1.206.077a1.7 1.7 0 0 0 1.628-.939l.536-1.072a.524.524 0 0 1 .249-.25l1.072-.535c.613-.307.977-.958.938-1.628l-.038-1.187c0-.115.02-.25.096-.345l.65-1.015a1.676 1.676 0 0 0 0-1.876zm-10.8-3.696c1.168 0 2.125.957 2.125 2.125a2.133 2.133 0 0 1-2.125 2.126 2.109 2.109 0 0 1-2.126-2.126c0-1.168.958-2.125 2.126-2.125zM5.745 13.04a.584.584 0 0 1-.402.173.584.584 0 0 1-.403-.173.555.555 0 0 1 0-.804l7.315-7.296c.211-.23.575-.23.805 0 .21.23.21.594-.02.805L5.745 13.04zm5.457.594a2.133 2.133 0 0 1-2.125-2.125c0-1.169.957-2.126 2.125-2.126 1.187 0 2.126.938 2.126 2.126a2.133 2.133 0 0 1-2.126 2.125z"/>
    </g>
</svg>
