<svg xmlns="http://www.w3.org/2000/svg" width="15" height="15" viewBox="0 0 15 15">
    <g fill="#018064" fill-rule="nonzero">
        <path d="M9.335 8.76a.817.817 0 0 0-.814.814c0 .447.367.814.814.814a.807.807 0 0 0 .814-.814.817.817 0 0 0-.814-.813zM5.665 6.223a.804.804 0 0 0 .814-.797.817.817 0 0 0-.814-.814.794.794 0 0 0-.814.798c0 .446.367.813.814.813z"/>
        <path d="M14.665 6.718l-.559-.83a.648.648 0 0 1-.063-.303l.063-1.005a1.416 1.416 0 0 0-.782-1.357l-.893-.446a.436.436 0 0 1-.208-.208l-.446-.893A1.431 1.431 0 0 0 10.42.894L9.415.957a.463.463 0 0 1-.287-.08l-.83-.542a1.397 1.397 0 0 0-1.564 0l-.83.559a.76.76 0 0 1-.319.063L4.58.894a1.416 1.416 0 0 0-1.357.782l-.446.893a.436.436 0 0 1-.208.208l-.893.446c-.511.256-.814.798-.782 1.357l.063 1.005a.463.463 0 0 1-.08.287l-.542.83a1.397 1.397 0 0 0 0 1.564l.559.83a.76.76 0 0 1 .063.319L.894 10.42a1.416 1.416 0 0 0 .782 1.357l.893.446c.096.048.16.128.208.208l.446.893c.256.511.798.814 1.357.782l1.005-.063c.096 0 .208.016.287.08l.83.542c.24.16.51.24.782.24.271 0 .543-.08.782-.24l.83-.559a.597.597 0 0 1 .287-.08l1.005.064a1.416 1.416 0 0 0 1.357-.781l.446-.894a.436.436 0 0 1 .208-.208l.894-.446c.51-.256.813-.798.781-1.357l-.031-.99c0-.095.016-.207.08-.286l.542-.846c.319-.479.319-1.101 0-1.564zm-9-3.08c.973 0 1.771.798 1.771 1.772 0 .973-.798 1.77-1.771 1.77-.99 0-1.771-.781-1.771-1.77 0-.974.797-1.772 1.77-1.772zm-.878 7.229a.487.487 0 0 1-.335.144.487.487 0 0 1-.335-.144.463.463 0 0 1 0-.67l6.096-6.08a.463.463 0 0 1 .67 0 .477.477 0 0 1-.016.67l-6.08 6.08zm4.548.495A1.778 1.778 0 0 1 7.564 9.59c0-.973.798-1.77 1.771-1.77.99 0 1.771.781 1.771 1.77 0 .974-.797 1.772-1.77 1.772z"/>
    </g>
</svg>
