<svg xmlns="http://www.w3.org/2000/svg" width="50" height="49" viewBox="0 0 50 49">
    <g fill="none" fill-rule="evenodd" transform="translate(.3)">
        <circle cx="24.5" cy="24.5" r="24.5" fill="#FFE8D9"/>
        <g fill="#E38355" fill-rule="nonzero" stroke="#E38355">
            <path d="M33.527 29.353l-2.578.16a.644.644 0 0 0-.604.683c.022.355.34.626.683.604l1.306-.082c-1.81 2.461-4.736 3.993-7.834 3.993-5.331 0-9.71-4.38-9.71-9.711a.644.644 0 1 0-1.29 0c0 6.042 4.958 11 11 11 3.271 0 6.361-1.521 8.422-3.976v.71a.644.644 0 1 0 1.289 0v-2.738c0-.354-.34-.662-.684-.643zM15.184 20.002l2.578-.16a.644.644 0 0 0 .604-.682.652.652 0 0 0-.683-.604l-1.306.081c1.809-2.46 4.736-3.992 7.834-3.992 5.331 0 9.71 4.38 9.71 9.71a.644.644 0 1 0 1.29 0c0-6.041-4.958-11-11-11-3.271 0-6.361 1.522-8.422 3.976v-.71a.644.644 0 1 0-1.289 0v2.738c0 .354.34.663.684.643z"/>
        </g>
    </g>
</svg>
