<svg xmlns="http://www.w3.org/2000/svg" width="93" height="135" viewBox="0 0 93 135">
    <g fill="none" fill-rule="evenodd" transform="translate(3)">
        <circle cx="48.5" cy="63.75" r="40.625" fill="#E38355"/>
        <path fill="#E38355" d="M71.313 123.75c4.843 0 9.687-4.337 9.687-9.688 0-5.35-4.337-9.687-9.688-9.687-5.35 0-9.687 4.337-9.687 9.688 0 5.35 4.844 9.687 9.688 9.687z"/>
        <circle cx="25.375" cy="98.125" r="19.375" fill="#E38355"/>
        <circle cx="39.125" cy="127.5" r="7.5" fill="#E38355"/>
        <circle cx="11.938" cy="5.313" r="5.313" fill="#E38355"/>
        <g stroke="#404041" stroke-width="6">
            <path d="M29.961 67.948v-9.31c0-6.652 5.043-12.094 11.207-12.094 6.164 0 11.208 5.442 11.208 11.125v10.279"/>
            <path d="M64.167 91.034c0 6.912-5.655 12.569-12.568 12.569H30.737c-6.913 0-12.568-5.656-12.568-12.569V79.472c0-6.913 5.655-12.568 12.568-12.568h20.862c6.913 0 12.568 5.655 12.568 12.568v11.562z"/>
            <path stroke-linecap="round" stroke-linejoin="round" d="M82.706 55.601c-4.51-18.599-21.271-32.41-41.258-32.41C21.461 23.19 4.701 37.002.19 55.601V28.084"/>
        </g>
    </g>
</svg>
