<svg xmlns="http://www.w3.org/2000/svg" width="85" height="30" viewBox="0 0 85 30">
    <g fill="#C2C2C2" fill-rule="nonzero">
        <path d="M68.678 18.274a5.625 5.625 0 0 0-5.619 5.619 5.628 5.628 0 0 0 5.62 5.621c3.1 0 5.622-2.522 5.622-5.621a5.626 5.626 0 0 0-5.623-5.619zM16.95 18.274a5.627 5.627 0 0 0-5.622 5.619 5.629 5.629 0 0 0 5.622 5.621 5.628 5.628 0 0 0 5.62-5.621 5.626 5.626 0 0 0-5.62-5.619z"/>
        <path d="M84.022 18.274c-.293-.98-.916-2.295-2.194-3.12-5.881-3.339-13.632-4.201-14.603-4.29-.973-.09-2.53-.307-2.53-.307s-8.138-6.315-15.857-8.7c-7.718-2.385-23.607-.69-24.977-.56-3.246.288-12.075 6.826-12.075 6.826S2.15 9.865 1.408 10.525c-.74.659-.988 3.88-.964 6.875.025 2.996.56 7.11.56 7.11l8.013.48a7.994 7.994 0 0 1-.084-1.096 8.017 8.017 0 0 1 8.017-8.018c4.428 0 8.016 3.709 8.016 8.135 0 .83-.125 1.609-.358 2.494h36.417c-.235-.885-.36-1.667-.36-2.494 0-4.426 3.589-8.075 8.018-8.075 4.427 0 8.016 3.56 8.016 7.987 0 .7-.097 1.36-.267 2.007 1.598.068 7.456.285 7.908-.024.524-.357-.023-6.65-.318-7.632zm-60.355-8.173s-.092-4.886 1.225-6.09c1.318-1.205 9.892-.896 10.304-.927.414-.03.802.423.833.853.031.43.481 6.901.481 6.901l-12.843-.737zm31.077 1.332L39.8 11.062S38.362 3.875 38.3 3.584c-.06-.291.21-.498.666-.5.457 0 6.552.552 9.674 1.666 4.248 1.516 7.961 4.341 7.961 4.341l-1.858 2.342z"/>
    </g>
</svg>
