<svg xmlns="http://www.w3.org/2000/svg" width="46" height="31" viewBox="0 0 46 31">
    <g fill="none" fill-rule="nonzero">
        <path fill="#F1F1F1" d="M32.83 17.271c0 2.215-1.575 3.86-4.159 3.86-2.08 0-3.529-.823-4.537-2.025l1.765-1.708c.819.886 1.638 1.392 2.835 1.392.945 0 1.639-.57 1.639-1.392v-.063c0-.95-.82-1.455-2.269-1.455h-1.071l-.378-1.645 3.718-3.733-1.513.949h-4.033V9.237h7.877v1.961l-2.962 2.784c1.513.316 3.088 1.138 3.088 3.29M25.52 3.985c0-1.076.757-1.898 1.828-1.898h1.197l-.315.126v2.91c0 .19 0 .38.063.57 0 .063.063.19.063.253h-1.008c-1.071-.063-1.827-.886-1.827-1.961zm1.828 2.404h1.071v-.38s0 .063.063.063c.063.127.19.19.315.254.126.063.252.063.441.063h9.326V1.582h-.504v4.302h-8.884c-.127 0-.19 0-.253-.064-.063 0-.126-.063-.126-.126-.063-.063-.063-.127-.063-.253V1.58h-1.386c-1.386 0-2.395 1.14-2.395 2.405S25.9 6.39 27.348 6.39m14.871-5.314h-1.134V.633c0-.253.063-.38.126-.506.189-.064.315-.127.504-.127h.378v.38h-.378c-.063 0-.126 0-.126.063s-.063.063-.063.126v.127h.693v.38zm1.323 5.377c-.126 0-.252 0-.44-.063l.125-.506c.063 0 .126 0 .126.063h.126c.126 0 .19 0 .253-.063.063 0 .126-.064.126-.127.063-.063.063-.126.063-.253V1.582h.504v3.606c0 .19 0 .38-.063.57-.063.189-.063.315-.19.379.064.063-.062.19-.188.19a.908.908 0 0 1-.442.126M28.734 1.076h-.504V.569h.504v.507zm11.217 1.77c.063-.126.189-.252.315-.379.126-.126.252-.19.44-.253.19-.063.316-.063.505-.063h.82l-.316.127v2.277h-.504c-.19 0-.378 0-.567-.063a1.015 1.015 0 0 1-.441-.253c-.126-.127-.252-.253-.315-.38a1.196 1.196 0 0 1-.126-.506c.063-.19.126-.38.189-.506m0 1.771c.189.127.44.253.693.317.252.063.504.126.756.126h.189l.19-.38v.507c0 .253-.064.443-.253.57-.126.126-.378.189-.63.189-.126 0-.315 0-.441-.063-.126 0-.252-.064-.441-.127l-.19.506c.19.064.379.127.505.19s.315.063.44.063c.505 0 .883-.126 1.072-.38.315-.252.378-.569.378-1.012V1.582H41.4c-.315 0-.63.063-.882.126-.19.063-.441.19-.63.38-.19.126-.315.316-.441.57-.126.189-.126.442-.126.695 0 .316.063.57.189.76.063.189.252.379.44.505M27.727 1.076h-.504V.569h.504v.507zm-5.293.506h.504V6.39h-.441l-3.403-4.302.315.696V6.39h-.504V1.582h.504l3.214 4.112-.252-.57V1.582h.063zM2.52 6.39L.504 1.582h.63l.315.696 1.324 3.416.126.316-.063-.506 1.638-3.922h.567L2.961 6.39h-.44zm9.137-4.808h.567V6.39h-.567V1.582zm5.797 2.404c0 1.075-.756 1.96-1.89 1.96-1.072 0-1.891-.885-1.891-1.96 0-1.076.756-1.962 1.89-1.962 1.072-.063 1.89.823 1.89 1.962zm-1.89-2.53c-1.45 0-2.458 1.138-2.458 2.466 0 1.329 1.008 2.468 2.457 2.468 1.45 0 2.458-1.139 2.458-2.468 0-1.265-1.008-2.467-2.458-2.467m-4.789 3.606c0 .823-.693 1.392-1.638 1.392-.756 0-1.386-.253-1.953-.76l.315-.379c.504.443 1.008.696 1.638.696.63 0 1.071-.316 1.071-.822 0-.443-.252-.696-1.26-.886-1.071-.253-1.638-.57-1.638-1.392 0-.759.693-1.328 1.575-1.328.693 0 1.197.19 1.701.569l-.252.38c-.44-.38-.882-.507-1.386-.507-.63 0-1.008.317-1.008.76s.252.696 1.323.949c1.008.19 1.512.569 1.512 1.328M6.365 6.39h-.568V1.582h.567V6.39zm31.443.506h.504v.506h-.504v-.506zm-1.008 0h.504v.506H36.8v-.506zM4.726 18.726h4.411v2.215H.567v-2.025l3.844-3.163c1.45-1.202 2.016-1.835 2.016-2.784 0-1.012-.63-1.518-1.575-1.518-.882 0-1.512.506-2.394 1.582L.693 11.578C1.89 9.996 2.962 9.11 5.041 9.11c2.395 0 4.033 1.392 4.033 3.606v.064c0 1.96-1.008 2.91-3.088 4.491l-2.52 1.962-.504.38 1.764-.886zm38.438-3.606c0 2.025-1.449 3.607-3.465 3.607-2.08 0-3.53-1.645-3.53-3.67v-.063c0-2.025 1.45-3.606 3.467-3.606 2.08.063 3.528 1.708 3.528 3.732zm-3.528-6.01c-3.592 0-6.176 2.72-6.176 6.01v.064c0 3.29 2.584 6.01 6.176 6.01 3.591 0 6.175-2.72 6.175-6.01v-.064c0-3.353-2.584-6.01-6.175-6.01" opacity=".8"/>
        <path fill="#28377B" d="M16.132 8.351l.567.57-.567.569-.568-.57z"/>
        <path fill="#B2AFB4" d="M17.455 8.92l.63.57.567-.57-.63-.569z"/>
        <path fill="#D1DA30" d="M16.636 9.68l.504.442.44-.506-.503-.443z"/>
        <path fill="#73BA44" d="M18.337 9.933l.441.443.441-.507-.44-.442z"/>
        <path fill="#D1DA30" d="M15.88 10.376l.504.442.44-.506-.503-.443z"/>
        <path fill="#27B7BD" d="M17.455 10.439l.44.443.442-.506-.441-.443z"/>
        <path fill="#73BA44" d="M16.825 10.945l.315.316.315-.316-.315-.316z"/>
        <path fill="#59B75E" d="M18.085 11.198l.315.316.315-.316-.378-.316z"/>
        <path fill="#3189C9" d="M20.707 8.705l.992-.182.182.995-.992.183z"/>
        <path fill="#213A71" d="M19.4 9.128l.806-.148.147.81-.805.147z"/>
        <path fill="#27B7BD" d="M20.98 10.262l.805-.148.148.809-.806.148z"/>
        <path fill="#D1DA30" d="M19.858 10.374l.62-.114.113.622-.62.114z"/>
        <path fill="#B2AFB4" d="M21.058 11.58l.62-.115.113.622-.62.114z"/>
        <path fill="#27B7BD" d="M18.912 10.629l.62-.114.114.622-.62.114z"/>
        <path fill="#73BA44" d="M20.047 11.451l.62-.114.113.622-.62.114z"/>
        <path fill="#B2AFB4" d="M19.25 11.56l.433-.08.08.436-.434.08z"/>
        <path fill="#59B75E" d="M20.127 12.44l.434-.08.079.435-.434.08z"/>
        <path fill="#28377B" d="M23.693 12.02l-.44.886.944.443.441-.886z"/>
        <path fill="#27B7BD" d="M22.37 11.578l-.315.759.693.316.378-.696z"/>
        <path fill="#73BA44" d="M23 13.412l-.378.76.756.316.378-.76z"/>
        <path fill="#D1DA30" d="M21.992 12.843l-.252.57.567.316.315-.633zM22.307 14.551l-.252.57.567.252.252-.569z"/>
        <path fill="#3189C9" d="M21.11 12.527l-.252.569.567.253.252-.57z"/>
        <path fill="#B2AFB4" d="M21.55 13.855l-.251.57.567.253.252-.57z"/>
        <path fill="#73BA44" d="M20.858 13.412l-.19.443.379.19.252-.443z"/>
        <path fill="#27B7BD" d="M20.835 15.052l.19-.4.398.19-.19.4z"/>
        <path fill="#3189C9" d="M24.197 16.449l-.882.443.441.886.945-.443z"/>
        <path fill="#27B7BD" d="M23.378 15.31l-.693.38.378.759.693-.443zM22.811 17.145l-.693.38.378.695.693-.38z"/>
        <path fill="#28377B" d="M22.37 16.133l-.567.316.315.57.504-.317z"/>
        <path fill="#59B75E" d="M21.614 17.651l-.567.316.315.57.567-.317z"/>
        <path fill="#213A71" d="M21.803 15.31l-.567.317.315.569.567-.316z"/>
        <path fill="#D1DA30" d="M21.362 16.639l-.504.316.252.57.567-.317z"/>
        <path fill="#B2AFB4" d="M21.047 15.943l-.379.19.19.38.44-.19z"/>
        <path fill="#27B7BD" d="M20.48 17.018l-.379.19.19.38.377-.19z"/>
        <path fill="#73BA44" d="M20.904 21.188l.124-1.005 1 .124-.123 1.005z"/>
        <path fill="#213A71" d="M21.096 19.59l.101-.816.813.1-.1.817z"/>
        <path fill="#27B7BD" d="M19.55 20.779l.1-.817.814.102-.101.816z"/>
        <path fill="#73BA44" d="M19.98 19.5l.077-.628.626.078-.078.628z"/>
        <path fill="#B2AFB4" d="M18.497 20.323l.078-.628.625.078-.077.628zM20.036 18.568l.078-.628.625.078-.078.627z"/>
        <path fill="#73BA44" d="M18.905 19.355l.078-.628.625.078-.078.628z"/>
        <path fill="#B2AFB4" d="M19.287 18.46l.054-.44.438.054-.054.44zM18.144 18.94l.054-.439.438.054-.054.44z"/>
        <path fill="#D1DA30" d="M18.022 22.143l-.756-.696-.693.76.756.695z"/>
        <path fill="#73BA44" d="M17.833 7.845l-.693-.696-.693.76.693.695z"/>
        <path fill="#27B7BD" d="M18.778 21.004l-.567-.506-.567.57.567.569z"/>
        <path fill="#73BA44" d="M16.888 21.067l-.63-.569-.505.633.568.506z"/>
        <path fill="#3189C9" d="M17.707 20.308l-.504-.443-.378.443.44.443z"/>
        <path fill="#D1DA30" d="M16.005 20.055l-.44-.443-.442.506.441.443zM18.274 19.549l-.441-.443-.441.443.44.443z"/>
        <path fill="#B2AFB4" d="M16.888 19.549l-.441-.443-.442.506.442.38z"/>
        <path fill="#213A71" d="M17.455 19.043l-.315-.316-.315.316.378.316z"/>
        <path fill="#B2AFB4" d="M16.258 18.79l-.316-.317-.315.317.315.316z"/>
        <path fill="#3189C9" d="M12.447 20.482l.988-.198.198.992-.988.199z"/>
        <path fill="#27B7BD" d="M13.978 20.208l.804-.162.16.807-.803.161z"/>
        <path fill="#73BA44" d="M12.408 19.134l.804-.162.16.806-.802.162z"/>
        <path fill="#D1DA30" d="M13.74 19.11l.619-.125.123.62-.618.125z"/>
        <path fill="#28377B" d="M14.689 18.854l.618-.125.124.62-.618.125z"/>
        <path fill="#3189C9" d="M13.489 18.041l.617-.124.124.62-.618.125z"/>
        <path fill="#73BA44" d="M14.523 18.147l.433-.087.086.434-.432.087z"/>
        <path fill="#B2AFB4" d="M13.693 17.19l.432-.087.087.435-.432.087z"/>
        <path fill="#27B7BD" d="M10.65 18.094l.377-.95-.882-.442-.44.949z"/>
        <path fill="#D1DA30" d="M11.91 18.473l.378-.759-.756-.316-.316.76z"/>
        <path fill="#3189C9" d="M11.28 16.639l.378-.696-.757-.38-.378.76z"/>
        <path fill="#27B7BD" d="M11.682 16.941l.261-.576.574.263-.262.576z"/>
        <path fill="#B2AFB4" d="M13.044 18.663l.252-.57-.567-.315-.252.632z"/>
        <path fill="#28377B" d="M11.392 15.277l.261-.576.574.263-.262.575z"/>
        <path fill="#59B75E" d="M12.6 17.235l.262-.575.574.262-.262.576z"/>
        <path fill="#D1DA30" d="M12.114 15.948l.262-.575.573.262-.261.576z"/>
        <path fill="#213A71" d="M13.422 16.576l.189-.38-.441-.19-.126.38z"/>
        <path fill="#73BA44" d="M13.233 15.373l.189-.442-.378-.19-.19.443z"/>
        <path fill="#27B7BD" d="M10.082 13.665l.882-.506-.504-.886-.882.507z"/>
        <path fill="#73BA44" d="M10.901 14.74l.694-.379-.442-.696-.693.38z"/>
        <path fill="#213A71" d="M11.405 12.906l.757-.38-.441-.695-.694.38z"/>
        <path fill="#3189C9" d="M11.91 13.918l.567-.316-.315-.57-.567.317z"/>
        <path fill="#73BA44" d="M12.603 12.4l.567-.316-.315-.57-.567.317z"/>
        <path fill="#27B7BD" d="M12.477 14.74l.504-.316-.315-.569-.504.316z"/>
        <path fill="#D1DA30" d="M12.855 13.412l.567-.316-.315-.57-.567.317z"/>
        <path fill="#B2AFB4" d="M13.17 14.108l.378-.19-.19-.442-.377.253z"/>
        <path fill="#73BA44" d="M13.737 13.033l.441-.253-.252-.38-.378.253zM12.155 9.75l.107-1.006 1.003.107-.107 1.007z"/>
        <path fill="#B2AFB4" d="M12.201 11.146l.087-.818.815.088-.087.818z"/>
        <path fill="#27B7BD" d="M13.685 9.972l.087-.818.815.087-.088.818z"/>
        <path fill="#D1DA30" d="M13.484 11.046l.067-.629.627.068-.068.629z"/>
        <path fill="#3189C9" d="M14.972 10.25l.067-.63.626.067-.067.63z"/>
        <path fill="#27B7BD" d="M13.497 12.064l.067-.63.626.068-.067.629z"/>
        <path fill="#73BA44" d="M14.579 11.175l.067-.629.627.068-.068.629z"/>
        <path fill="#213A71" d="M14.406 11.987l.047-.44.439.046-.047.44z"/>
        <path fill="#B2AFB4" d="M15.567 11.416l.047-.44.439.046-.047.44z"/>
        <path fill="#F1F1F1" d="M20.353 15.627c-.063-.064-.189-.127-.378-.19-.252-.064-.63-.127-1.134-.064-.126 0-.315.064-.504.127h-.063c-.063.063-.19.063-.252.127-.063.063-.126.063-.19.126-.188.127-.314.19-.503.316-.19-1.075-.063-2.087-.063-2.593.378.253.252.948.189 1.138.504-.57.252-1.202.126-1.328l.189.19c.126.19.189.38.189.569v.316a1.135 1.135 0 0 0 0-1.012c-.063-.127-.126-.19-.19-.316l-.062-.064h.063c.063 0 .126.064.189.127.126.126.252.253.315.38.063.126.063.253.063.38.063-.317.063-.57-.063-.76a.76.76 0 0 0-.315-.316c-.063-.064-.126-.064-.19-.127h-.125.315a.48.48 0 0 1 .315.127c.126.063.189.19.189.19 0-.19-.126-.317-.189-.38s-.19-.127-.315-.19h-.19c-.125 0-.188 0-.251.063.063-.126.189-.19.252-.19h.189c.063 0 .126 0 .189.064-.063-.064-.126-.127-.19-.127-.062-.063-.125-.063-.188-.063a.572.572 0 0 0-.504.253c0-.063-.063-.127-.063-.127-.063-.126-.126-.253-.126-.38 0 .127-.063.254-.126.38 0 .064-.063.127-.063.127-.252-.38-.63-.316-.946-.063.19-.064.505-.064.694.19-.252-.127-.63-.064-.883.19a.484.484 0 0 0-.126.316s.063-.127.126-.19c.126-.127.315-.19.694-.19-.19 0-.568.19-.694.57-.063.19-.063.379 0 .632a.91.91 0 0 1 .694-.886c-.505.443-.505 1.076-.315 1.392 0-.253-.064-.696.378-1.075-.126.19-.315.759.126 1.328-.063-.19-.19-.885.189-1.138a9.21 9.21 0 0 1-.063 2.593 3.758 3.758 0 0 0-.946-.569c-.063 0-.063 0-.126-.063-.315-.127-.63-.127-.882-.127-.44 0-.756.127-.945.253-.063 0-.063.064-.063.064h.063c.315-.064.63-.127.945-.064.315 0 .63.127.882.253.378.19.757.443 1.072.696-.441.38-.82.76-1.072.95h-.063c-.063-.064-.126-.127-.252-.127-.063 0-.189.063-.189.19 0 .063 0 .19.063.19.126.126.252.126.441.063.315-.127.694-.57 1.198-1.013l.126-.126.126.126c.189.19.44.38.63.57l.189.19c.126.063.189.19.315.19.189.126.315.126.504 0 0 0 .063-.127.063-.19 0-.064-.063-.064-.063-.127-.063 0-.063-.063-.126-.063-.126 0-.189 0-.252.126 0 0-.063-.063-.126-.063-.063-.063-.19-.127-.315-.253l-.19-.19c-.125-.126-.314-.316-.503-.443.126-.126.315-.253.504-.38.063-.063.126-.063.189-.126.126-.063.189-.126.315-.19.126-.063.315-.126.504-.19.315-.126.693-.126 1.134-.063.19.064.315.064.441.064 0 .063 0 .063 0 0M16.762 26.382h.315v-2.594h-.315v2.594zm-7.625-.253l-.441-1.14c.126-.126.252-.189.315-.189.126-.063.252-.063.378-.063s.252 0 .378.063.252.127.315.19l-.44 1.139h-.505zm-1.638 0h-.315c-.126 0-.19 0-.316-.064-.126 0-.189-.063-.252-.126l-.189-.19c-.063-.063-.063-.19-.063-.316 0-.127 0-.19.063-.317.063-.063.126-.19.19-.253a.477.477 0 0 1 .251-.126c.127-.064.19-.064.316-.064h.315v1.456zm8.128 0h-.504c-.189 0-.315 0-.378-.064-.126-.063-.189-.126-.252-.19v-1.202h-.315v1.013c0 .19-.063.316-.126.38-.063.126-.252.126-.378.126-.063 0-.19 0-.252-.063-.063 0-.126-.064-.19-.127-.062-.063-.062-.126-.125-.19 0-.063-.063-.126-.063-.19V24.61h-.315v1.012c0 .064 0 .19-.063.254 0 .063-.063.126-.126.126-.063.063-.126.063-.126.063h-.756v-1.518h-.316v1.518H9.83l.504-1.202c-.063-.063-.189-.126-.252-.19a.477.477 0 0 0-.252-.126c-.063-.063-.189-.063-.252-.127-.126 0-.189-.063-.252-.063-.126 0-.189 0-.315.063-.126 0-.19.064-.252.127a.477.477 0 0 1-.252.126c-.063.064-.19.127-.252.19l.504 1.202H7.75v-1.708H7.31c-.19 0-.315 0-.505.063l-.378.19c-.126.063-.189.19-.252.317-.063.126-.063.253-.063.38 0 .189.063.315.126.442s.126.253.252.316l.378.19c.127.063.316.063.442.063h.189v.064a.484.484 0 0 1-.126.316c-.063.063-.19.126-.378.126h-.253c-.063 0-.126-.063-.252-.063l-.063.253c.126.064.19.064.315.064h.253c.315 0 .504-.064.63-.19.126-.127.189-.317.189-.57v-.063h4.537c.126 0 .252 0 .378-.063a.493.493 0 0 0 .252-.253c.063.126.189.19.315.253a.908.908 0 0 0 .441.126c.189 0 .315 0 .441-.063a.493.493 0 0 0 .252-.253c0 .063.063.063.063.127l.126.126c.063.063.126.063.19.063h1.008v-2.594H15.5v2.405h.126zm26.214-.127c-.063.063-.126.19-.189.253s-.126.127-.252.19c-.063.063-.189.063-.315.063s-.19 0-.315-.063c-.063-.063-.19-.127-.252-.19-.063-.063-.126-.126-.126-.253-.063-.063-.063-.19-.063-.316 0-.127 0-.19.063-.317.063-.063.063-.19.126-.253a.87.87 0 0 1 .252-.19c.063-.063.189-.063.315-.063s.189 0 .315.064c.063.063.189.063.252.19.063.063.126.126.19.252.062.064.062.19.062.317-.063.126-.063.19-.063.316m-2.836 0c-.063.063-.126.19-.189.253s-.126.127-.252.19c-.063.063-.189.063-.315.063s-.189 0-.315-.063c-.063-.063-.189-.127-.252-.19s-.126-.126-.126-.253c-.063-.063-.063-.19-.063-.316 0-.127 0-.19.063-.317.063-.063.063-.19.126-.253a.87.87 0 0 1 .252-.19c.063-.063.19-.063.315-.063.126 0 .19 0 .315.064.063.063.19.063.252.19.063.063.126.126.19.252.062.064.062.19.062.317 0 .126-.063.19-.063.316m-7.12.127h-.315c-.126 0-.19 0-.315-.064-.126-.063-.19-.063-.252-.126l-.19-.19c-.062-.063-.062-.19-.062-.316 0-.127 0-.19.063-.317.063-.063.126-.19.189-.253a.477.477 0 0 1 .252-.126c.126-.064.189-.064.315-.064h.315v1.456zm11.216 0h-1.008c.063-.127.063-.253.063-.443 0-.127 0-.317-.063-.443-.063-.127-.126-.253-.252-.316-.126-.127-.189-.19-.315-.254-.126-.063-.252-.063-.441-.063-.126 0-.252 0-.378.063-.126.064-.252.127-.315.254-.063.126-.19.19-.252.316-.063.126-.063.253-.063.443v.253c0 .063.063.126.063.19h-.882c.063-.127.063-.253.063-.443 0-.127 0-.317-.063-.443-.063-.127-.126-.253-.253-.316-.126-.127-.189-.19-.315-.254-.126-.063-.252-.063-.44-.063-.127 0-.253 0-.379.063-.126.064-.252.127-.315.254-.063.126-.189.19-.252.316s-.063.253-.063.443v.253c0 .063.063.126.063.19h-.945v-2.341h-.315v2.34h-.945v-.442c0-.127 0-.19-.063-.317 0-.126-.063-.19-.126-.253s-.19-.126-.252-.19c-.126-.063-.19-.063-.379-.063h-1.26l.567-1.075h-.315l-.504 1.075c0 .064 0 .127.063.19 0 .063.063.063.063.127h1.512c.063 0 .19 0 .253.063.063 0 .126.063.189.126.063.064.063.127.063.19v.633H32.2v-1.708h-.441c-.19 0-.378 0-.504.063l-.378.19c-.126.063-.19.19-.252.316-.063.127-.063.253-.063.38 0 .19.063.316.126.443.063.126.126.253.252.316l.378.19c.126.063.315.063.44.063h5.798c.126.126.19.19.315.253.126.063.252.063.441.063.126 0 .315 0 .441-.063s.252-.127.379-.253h1.26c.126.126.189.19.315.253s.252.063.44.063c.127 0 .316 0 .442-.063s.252-.127.378-.253h1.512V23.85h-.315v2.278h-.063zm1.135.253h.315v-2.594h-.315v2.594zm-21.551.696H23v-.317h-.315v.317zm2.899-.95l-.442-1.138c.126-.127.253-.19.316-.19.126-.063.252-.063.378-.063s.252 0 .378.063.252.127.315.19l-.441 1.139h-.504zm2.079 0h-1.26l.504-1.201c-.063-.064-.19-.127-.252-.19a.477.477 0 0 0-.252-.127c-.063-.063-.19-.063-.252-.126-.126 0-.19-.064-.252-.064-.126 0-.19 0-.315.064-.126 0-.19.063-.252.126a.477.477 0 0 1-.253.127c-.063.063-.189.126-.252.19l.505 1.202H24.26V24.42h-.315v2.215c0 .063 0 .126-.063.126 0 .063-.063.063-.063.063h-.126-.063-.063l-.189.38c.063 0 .19.063.252.063.126 0 .19 0 .252-.063.063-.063.126-.063.19-.126.062-.064.062-.127.062-.254v-.379h3.781V23.85H27.6v2.278h.063zm-22.18-1.455c-.064-.063-.19-.126-.253-.19-.126-.063-.189-.063-.378-.063h-.189v.317h.252c.063 0 .126 0 .19.063.062 0 .125.063.125.127.063.063.063.126.063.19v1.012H3.97v.316H5.67v-1.139c0-.126 0-.253-.063-.316a.484.484 0 0 0-.126-.317m16.132 2.405h.315v-.317h-.315v.317zm-1.765-.95h-.315c-.126 0-.189 0-.315-.063s-.189-.063-.252-.126l-.189-.19c-.063-.063-.063-.19-.063-.316 0-.127 0-.19.063-.317.063-.063.126-.19.19-.253a.477.477 0 0 1 .251-.126c.126-.064.19-.064.315-.064h.315v1.456zM23 24.42h-.315v1.709h-1.071V24.42h-.315v1.709h-1.135V24.42h-.44c-.19 0-.379 0-.505.064l-.378.19c-.126.063-.189.19-.252.316s-.063.253-.063.38c0 .19.063.316.126.442.063.127.126.253.252.317l.378.19c.126.063.315.063.441.063H23V24.42zm-1.89 2.658h.315v-.317h-.315v.317zm-19.472-3.29h-.315v.316h.315v-.316zm29.995 0h-.315v.316h.315v-.316zm-11.469 0h-.315v.316h.315v-.316zM3.34 27.078h.315v-.317H3.34v.317zm16.32-3.29h-.315v.316h.315v-.316zm-17.518 0h-.315v.316h.315v-.316zm.694 3.29h.315v-.317h-.315v.317zm-1.009-.95h-.252c-.126 0-.189 0-.315-.063s-.189-.063-.252-.126l-.189-.19c-.063-.063-.063-.19-.063-.316 0-.127 0-.19.063-.317.063-.063.126-.19.19-.253a.477.477 0 0 1 .251-.126c.126-.064.19-.064.315-.064h.315v1.456h-.063zm1.765-1.708h-.315v1.709H2.142V24.42h-.44c-.19 0-.379 0-.505.064l-.378.19c-.126.063-.189.19-.252.316s-.063.253-.063.38c0 .19.063.316.126.442.063.127.126.253.252.317l.378.19c.126.063.315.063.441.063h1.89V24.42zm25.205 1.962h.315v-2.594h-.315v2.594zm3.403-2.594h-.315v.316h.315v-.316zM.756 28.343h.378v1.012l1.008-1.012h.442l-.883.886.883 1.202h-.442l-.693-.95-.315.317v.633H.756zM2.962 28.343h1v2.088h-1z" opacity=".8"/>
        <path fill="#F1F1F1" d="M3.844 28.343h.378l1.134 1.455v-1.455h.315v2.088h-.315l-1.134-1.519v1.519h-.378zM6.112 29.355c0-.57.441-1.075 1.072-1.075.378 0 .567.126.819.253l-.252.253c-.19-.127-.315-.253-.567-.253-.379 0-.694.316-.694.759s.252.759.694.759c.189 0 .378-.063.504-.127v-.38h-.504v-.315h.882v.885c-.19.19-.504.317-.882.317-.63 0-1.072-.443-1.072-1.076M9.389 30.114c.441 0 .693-.316.693-.696a.7.7 0 0 0-.693-.696h-.441v1.392h.441zm-.82-1.771h.757c.63 0 1.134.443 1.134 1.012 0 .57-.44 1.076-1.134 1.076H8.57v-2.088zM12.603 29.355c0-.443-.315-.76-.693-.76-.442 0-.694.317-.694.76 0 .38.316.76.694.76.44 0 .693-.317.693-.76m-1.765 0c0-.57.441-1.075 1.072-1.075.63 0 1.07.506 1.07 1.075 0 .57-.44 1.076-1.07 1.076-.63 0-1.072-.443-1.072-1.076M13.485 28.343h.378l.63.949.63-.95h.378v2.089h-.378v-1.519l-.63 1.012-.693-1.012v1.519h-.315zM18.652 29.355c0-.443-.315-.76-.693-.76-.441 0-.693.317-.693.76 0 .38.315.76.693.76.378 0 .693-.317.693-.76m-1.827 0c0-.57.44-1.075 1.07-1.075.631 0 1.072.506 1.072 1.075 0 .57-.441 1.076-1.071 1.076-.63 0-1.071-.443-1.071-1.076M19.471 28.343h1.576v.316h-1.198v.57h1.072v.316h-1.072v.886h-.378zM22.18 30.114l.19-.253c.189.19.378.253.63.253s.378-.126.378-.253c0-.126-.063-.253-.441-.316-.441-.127-.693-.253-.693-.633s.315-.632.693-.632c.315 0 .567.063.756.253l-.189.253a1.014 1.014 0 0 0-.567-.19c-.19 0-.315.126-.315.253 0 .19.126.253.504.316.441.127.693.253.693.633s-.315.633-.756.633c-.315 0-.63-.064-.882-.317M25.458 29.608l-.379-.822-.378.822h.757zm-.505-1.265h.315l.946 2.088h-.378l-.19-.507h-1.07l-.19.507h-.378l.945-2.088zM26.403 29.545v-1.202h.378v1.202c0 .38.189.57.504.57s.504-.19.504-.57v-1.202h.378v1.202c0 .633-.378.949-.882.949-.567-.063-.882-.38-.882-.95M29.49 30.114c.442 0 .694-.316.694-.696a.7.7 0 0 0-.694-.696h-.44v1.392h.44zm-.756-1.771h.756c.63 0 1.135.443 1.135 1.012 0 .57-.441 1.076-1.135 1.076h-.756v-2.088zM31.066 28.343h1v2.088h-1zM34.153 29.608l-.378-.822-.378.822h.756zm-.504-1.265h.315l.946 2.088h-.378l-.19-.507h-1.008l-.189.507h-.378l.882-2.088zM36.107 29.355c.252 0 .44-.126.44-.38 0-.253-.188-.316-.44-.316h-.504v.696h.504zm-.882-1.012h.945c.252 0 .441.063.63.19a.575.575 0 0 1 .189.443c0 .316-.189.569-.504.632l.567.76h-.504l-.504-.76h-.441v.76h-.378v-2.025zM38.69 29.608l-.378-.822-.378.822h.756zm-.504-1.265h.315l.946 2.088h-.379l-.189-.507h-1.008l-.189.507h-.378l.882-2.088zM40.77 30.114c.252 0 .378-.126.378-.316s-.126-.253-.441-.253h-.567v.57h.63zm-.126-.885c.252 0 .378-.064.378-.253 0-.19-.126-.254-.378-.254h-.504v.57h.504v-.063zm-.882-.886h.945c.252 0 .44.063.567.19.063.063.126.19.126.316 0 .253-.126.38-.315.443.252.063.441.253.441.506 0 .38-.315.57-.756.57h-.945v-2.025h-.063zM41.967 28.343h1v2.088h-1z" opacity=".8"/>
        <path fill="#F1F1F1" d="M44.11 29.608l-.378-.822-.379.822h.757zm-.505-1.265h.316l.945 2.088h-.378l-.19-.507H43.29l-.189.507h-.378l.882-2.088z" opacity=".8"/>
    </g>
</svg>
