<svg xmlns="http://www.w3.org/2000/svg" width="33" height="31" viewBox="0 0 33 31">
    <g fill="#C0D9D4" fill-rule="nonzero">
        <path d="M14.725 30.242c-.685-.125-1.37-.226-2.043-.387-1.567-.358-3.098-.84-4.48-1.692-.923-.566-1.882-1.102-2.698-1.799-1.09-.94-2.079-1.99-2.889-3.216-.995-1.495-1.596-3.104-2.085-4.813a12.134 12.134 0 0 1-.47-3.443c.006-.81.03-1.656.274-2.413.464-1.453.732-3.002 1.584-4.3.697-1.067 1.34-2.18 2.323-3.05.763-.673 1.448-1.424 2.293-2.008 1.442-.994 2.973-1.78 4.653-2.299.99-.312 2.004-.543 3.032-.691a.316.316 0 0 0 .107-.077h4.348c.052.042.11.076.173.1.97.203 1.96.34 2.913.608a14.779 14.779 0 0 1 4.17 1.93c.952.632 1.876 1.317 2.674 2.169 1.31 1.394 2.508 2.859 3.163 4.676.357.988.876 1.93 1.019 2.996.041.333.107.661.16.989v3.264c-.053.328-.113.655-.166.983-.18 1.15-.721 2.174-1.126 3.24-.238.626-.53 1.269-.93 1.8-.679.893-1.31 1.81-2.12 2.614-.977.965-2.061 1.763-3.205 2.478-.77.471-1.589.859-2.442 1.156-1.054.38-2.156.649-3.24.94-.43.114-.876.168-1.317.245h-3.675zm3.717-23.856l1.25.41c2.127.703 3.76 2.026 4.915 3.932.268.44.381.97.643 1.418.542.917.596 1.948.59 2.942-.006.995-.268 2.02-.709 2.99-.834 1.841-2.06 3.259-3.812 4.26-2.085 1.19-4.319 1.578-6.666 1.209a9.418 9.418 0 0 1-5.658-3.086 8.584 8.584 0 0 1-1.639-2.704c-.786-2.15-.768-4.3.382-6.404.595-1.09 1.268-2.067 2.233-2.84.263-.215.5-.471.787-.644.917-.536 1.84-1.06 2.895-1.305.238-.053.47-.143.631-.19.167-.286.274-.507.411-.703.137-.197.334-.43.5-.644-.19-.28-.38-.56-.571-.833-.322-.46-.334-.846-.012-1.3.22-.303.464-.595.685-.88L14.225.618c-.155.012-.406-.005-.644.042-.554.107-1.102.233-1.65.381-1.805.489-3.484 1.251-5.003 2.341-1.03.733-1.936 1.609-2.806 2.544-1.007 1.072-1.757 2.305-2.347 3.598C.703 11.872.5 14.403.768 16.959c.25 2.37 1.162 4.503 2.58 6.397C4.14 24.41 5.01 25.4 6.1 26.21c1.09.81 2.257 1.561 3.514 2.15 1.763.829 3.622 1.281 5.546 1.424 1.78.137 3.568.042 5.32-.405 2.215-.56 4.282-1.441 6.087-2.853.727-.566 1.37-1.245 2.06-1.858 1.09-.96 1.71-2.252 2.425-3.467.626-1.06.828-2.288 1.138-3.473.26-1.021.374-2.074.34-3.127-.012-.524-.173-1.007-.257-1.501-.315-1.865-.774-3.658-1.894-5.236-.572-.798-1.102-1.62-1.793-2.359-.69-.739-1.447-1.352-2.234-1.954-.286-.22-.554-.47-.87-.65-2.197-1.25-4.52-2.144-7.04-2.382l-1.025 1.507.846 1.18v.762l-.792 1 .97 1.419zM16.429 23.17c1.185.042 2.358-.22 3.52-.66 1.644-.626 2.93-1.716 3.943-3.086 1.013-1.37 1.352-2.89 1.317-4.545-.042-1.936-.56-3.652-1.906-5.14-.834-.924-1.776-1.615-2.836-2.17-.864-.458-1.817-.654-2.776-.85a6.951 6.951 0 0 0-2.627-.03c-1.364.244-2.662.66-3.842 1.44-1.179.781-2.198 1.675-2.811 2.95-.31.649-.506 1.352-.78 2.019a4.384 4.384 0 0 0-.298 2.436c.095.59.286 1.168.452 1.745.656 2.27 2.169 3.819 4.206 4.89 1.364.727 2.835 1.043 4.438 1.001zm-.15-18.376c.888.006 1.418-.47 1.424-1.263.006-.792-.536-1.286-1.34-1.292-.804-.006-1.37.518-1.364 1.334.006.816.417 1.221 1.28 1.221zM15.024.518c.119.924.703 1.382 1.5 1.28.799-.1 1.192-.654 1.079-1.44-.846.035-1.71-.161-2.58.16zm2.639 5.73c-.304-.917-.638-1.107-1.68-1.006-.548.053-.828.351-.912 1.007h2.592z"/>
        <path d="M4.188 9.745l.667-.846c.911.215 1.245.71 1.126 1.603-.412.434-.93.34-1.484.226l-.208.512.756.15c.09.535.078 1.09 0 1.703l-1.43-.19-.273 1.09 1.394.083.071.512-1.4.077v.155l.638.036.655.03c.047.095.095.155.095.214 0 .06-.024.173-.048.34H3.282v.155c.447.184.953-.012 1.454.137l.089.488-1.567.083c.072.477.006.942.262 1.394l1.895-.488.232.524c-.852.405-1.74.53-2.669.792-.786-2.823-.34-5.462.75-8.041-.339-.489-.762-.935-.53-1.632l.46.1c.119.299.011.74.53.793zm.268 2.192c-.304-.018-.566-.101-.685.304l.744.077-.06-.38zm.351-1.775l.548.036-.292-.5-.256.464zM28.562 11.556l-1.09.226-.244-.518 1.054-.393-.071-.411-1.293.375-.315-.512 1.22-.47c-.184-.81-.821-1.252-1.274-1.889l-.733.626-.37-.346.68-.959-.262-.214-.906.756-.369-.292c.024-.453.626-.62.459-1.245l-.786.828-.465-.363.995-1.197c.41.065.709.291.983.56 1.143 1.131 2.126 2.358 2.906 3.794 1.001 1.84 1.263 3.776 1.281 5.802a.72.72 0 0 1-.03.202.506.506 0 0 1-.065.113c-1.144.298-1.894.048-2.061-1.352l1.447-.542-.238-1.513-1.168.215-.142-.554 1-.31-.143-.417zm.697 3.967l-.083-.679-.554.238v.167l.637.274zM26.168 20.896l1.239.762.452-.833-.607-.46.268-.464.703.28.423-1.096-1.805-.935.321-.488 2.353 1.09c-.149.62-.286 1.15-.643 1.608-.203.262-.316.596-.482.893-.882 1.561-2.11 2.788-3.563 3.825a12.676 12.676 0 0 1-2.513 1.411l-.31-.464c1.042-.739 2.275-1.102 3.044-2.127-.947.238-1.722.816-2.591 1.299l-.417-.387c.84-.745 1.799-1.18 2.71-1.644l1.072.22.387-.423-.768-.894c.036-.565.363-.84.727-1.173zm.065.822c-.095.31.072.429.244.506.173.078.245.024.37.036l.024-.125-.638-.417zM12.366 27.24l-.208.232h-1.823l-.09-.607 1.287-.09.107-.983.542-.035.215.714 1.608.316-.101-1.006h1.78c.436.476-.231.667-.22 1.107.721.114 1.442.06 2.163.036v-1.81l.744-.054c.09.858.054 1.662.042 2.531-1.036-.018-2.02 0-2.996-.06-.977-.059-1.978-.184-3.05-.291zM5.641 21.027c1.233 2.103 3.044 3.532 5.057 4.754l-.262.506c-.149-.06-.28-.09-.387-.155-2.323-1.418-4.295-3.169-5.581-5.778 1.006-.101 1.846.036 2.698.28.238.709.405 1.418 1.096 1.81-.44.43-.786.328-1.233.06l-.334-1.245c-.333-.315-.697-.244-1.054-.232zM19.83 2.8H21.3l.298.893c.733.072 1.465-.596 2.228-.042l-.131.46-.977.053.917.84c-.596.81-1.013.953-1.924.697-.298-.37-.298-.37-.423-1.394l-1.632.119c-.083-.572-.131-1.084.173-1.626zm2.293 1.87c-.006.435.12.572.429.477.042-.012.066-.096.113-.173l-.542-.304zm-1.328-1.048l.012-.167-.298-.024v.274l.286-.083zM7.088 6.195l-.53-.483c.31-.262.548-.494.822-.685a18.043 18.043 0 0 1 3.503-1.906c.744-.31 1.423-.13 2.09.143.412.167.49.572.465.971-.024.4-.286.816-.673.816-.548 0-1.102-.125-1.644-.22-.077-.012-.137-.155-.238-.274.554-.352 1.138-.06 1.668-.209.03-.053.083-.107.09-.166.004-.09 0-.18-.013-.268-.375-.37-.84-.411-1.269-.245-.834.334-1.638.739-2.454 1.114l-.047.054a.149.149 0 0 0-.09.083l-.047.042-.352.232-.053.048-.096.095-.03.03-.506.375-.048.036-.226.101-.042.036-.095.095-.036.036a.143.143 0 0 0-.089.09l-.06.059z"/>
        <path d="M8.905 4.79c.274.017.56.023.614.404-.518.411-1.03.84-1.56 1.245-.531.405-1.109.775-1.52 1.525 1.096-.459 1.626-1.483 2.65-1.942l.084.566L7.13 8.47H4.92l2.168-2.275.054-.048a.173.173 0 0 0 .09-.09l.035-.035.095-.095.042-.036.227-.101.047-.036.506-.375.03-.03.096-.101.053-.048.352-.232.047-.042a.125.125 0 0 0 .09-.083l.053-.054zM6.046 18.114l.232.536c-.875.28-1.697.59-2.603.745l-.238-.518a20.414 20.414 0 0 1 2.609-.763zM30.105 17.596l-.09.59c-.91-.25-1.703-.62-2.537-1.078l.22-.525 2.407 1.013zM19.044 27.532c-.185-.852-.12-1.603-.096-2.395l.453-.06c.213.778.283 1.587.208 2.39l-.565.065zM27.335 14.886l.042.607-.637.06-.048-.602zM25.661 20.902l-.577.387-.447-.28.351-.453zM20.997 6.058h.626l.035.602-.476.053zM25.989 19.776l.387-.429.453.322-.322.482zM8.62 22.85l.416.298-.369.464-.47-.363zM24.38 22.13l-.392-.352.303-.5.483.44zM27.353 14.111v.447l-.596.072-.065-.519zM13.266 18.841l-.161-.828c.435-.316.631-.066.828.238h1.286c.43 0 .87-.03 1.281.298l.357.614.495.053-.381-.423.137-.488c.679.304 1.239.643 1.507 1.328.137.364.13.375-.197.852l-.69-.578h-4.695l-.077-.643c1.006-.125 1.954-.006 2.907-.083.012-.298-.167-.328-.352-.334-.453-.012-.905-.006-1.358-.006h-.887zM15.01 16.327h-3.448c-.328-1.185.417-1.995 1.65-1.793l.083 1.317c.262-.37.155-.656.179-.918.024-.262.024-.53.036-.792.41-.113.512.09.524.37.012.38.006.762.006 1.137h.149v-2.234l.804-.035c.042 1 .036 1.936.018 2.948zm-2.507-1.066l-.143-.083-.494.613.637-.042v-.488zM14.29 9.06h.62c.202.5.089 1 .107 1.49.018.488.006.994.006 1.47-.5.191-2.448.239-3.318.096-.197-.596-.066-.989.429-1.322l.78-.549.524.024.107 1.27.745.053V9.06zm-1.632 2.317l-.077-.083-.215.202.078.084.214-.203zM16.726 13.242l1.067 1.143 1.334-1.316.304.476-1.03 1.388.553 1.692H16.9l.542-1.608-1.167-1.364.452-.411zm1.096 2.776l.037.03.073-.096-.03-.024-.08.09zM19.163 8.607l.315.423-1.048 1.388.572 1.68c-.685.143-1.293.09-2.002.042.078-.322.12-.578.197-.822.077-.245.19-.459.316-.739l-1.186-1.382.441-.333L17.87 9.87l1.293-1.263zm-1.264 2.86h.088l-.022-.114h-.066v.114zM20.17 20.098l-1.025-.072c-.411-.738-.203-1.536.458-1.888.453-.238.852-.131 1.085.322.26.506.36 1.08.285 1.644-.071.566-.774 1.006-1.387.887-.191-.035-.37-.137-.608-.226l.22-.518h.96l.011-.15zm-.084-1.442c-.423.143-.494.358-.483.697l.697-.041-.214-.656zM12.408 17.96v1.911c-.727.126-1.436.048-2.133.054-.351-1.108.9-2.281 2.133-1.966zm-.566 1.334l-.03-.667-.143-.066-.816.733h.989zM19.788 16.196v-2.889l.631-.071c.191.53.22 2.18.066 2.96h-.697zM15.785 11.997h-.524a51.94 51.94 0 0 1 .006-2.89l.518-.053v2.943zM15.487 13.408h.453c.054.965.042 1.913.018 2.901l-.417.036c-.209-.214-.232-2.037-.054-2.937z"/>
    </g>
</svg>
