<svg xmlns="http://www.w3.org/2000/svg" width="10" height="10" viewBox="0 0 10 10">
    <path fill="#F7C500" fill-rule="nonzero" d="M9.855 4.374a.718.718 0 0 0 .183-.74.718.718 0 0 0-.583-.492l-2.44-.355a.319.319 0 0 1-.24-.174L5.685.403A.718.718 0 0 0 5.037 0a.718.718 0 0 0-.648.403L3.3 2.613a.319.319 0 0 1-.24.174l-2.44.355a.718.718 0 0 0-.583.491.718.718 0 0 0 .183.741l1.764 1.72a.32.32 0 0 1 .092.283L1.66 8.806a.707.707 0 0 0 .158.585.73.73 0 0 0 .89.176L4.89 8.42a.327.327 0 0 1 .296 0l2.182 1.147a.715.715 0 0 0 .89-.176.707.707 0 0 0 .158-.585l-.417-2.43a.32.32 0 0 1 .092-.282l1.765-1.72z"/>
</svg>
