<svg xmlns="http://www.w3.org/2000/svg" width="90" height="135" viewBox="0 0 90 135">
    <g fill="none" fill-rule="evenodd">
        <circle cx="49.375" cy="63.75" r="40.625" fill="#F05A54"/>
        <circle cx="72.188" cy="114.063" r="9.688" fill="#F05A54"/>
        <circle cx="26.25" cy="98.125" r="19.375" fill="#F05A54"/>
        <circle cx="40" cy="127.5" r="7.5" fill="#F05A54"/>
        <circle cx="12.813" cy="5.313" r="5.313" fill="#F05A54"/>
        <g fill="#404041" fill-rule="nonzero">
            <path d="M21.354 37.59c1.54-1.49 2.947-.42 4.467 1.099l19.306 17.247a3.82 3.82 0 0 1-.047 5.457 3.953 3.953 0 0 1-5.535-.047L22.478 41.892c-1.512-1.518-2.664-2.794-1.124-4.302z"/>
            <path d="M42.146 16.878a3.876 3.876 0 1 0 .423 7.705c16.33.193 30.278 11.826 33.4 27.855 3.122 16.028-5.442 32.046-20.505 38.353-15.063 6.307-32.484 1.17-41.715-12.302-9.23-13.47-7.732-31.571 3.588-43.341a3.866 3.866 0 1 0-5.127-5.767C-1.94 43.671-4.035 65.96 7.203 82.636c11.238 16.676 32.685 23.101 51.24 15.351C77 90.237 87.507 70.467 83.545 50.752c-3.961-19.715-21.289-33.893-41.398-33.874z"/>
        </g>
    </g>
</svg>
