<svg xmlns="http://www.w3.org/2000/svg" width="17" height="13" viewBox="0 0 17 13">
    <g fill="none" fill-rule="evenodd">
        <path fill="#E38355" d="M2 8.826h13v3.6l-3-1.3H5l-3 1.3z"/>
        <path fill="#222" fill-rule="nonzero" stroke="#222" stroke-width=".2" d="M16 4.643v.548c-.01.504-.348.941-.833 1.077.24.502.358 1.052.345 1.608v3.525a1.125 1.125 0 0 1-1.124 1.123h-.961a1.125 1.125 0 0 1-1.123-1.123v-.171H4.752v.171a1.125 1.125 0 0 1-1.123 1.123h-.962a1.125 1.125 0 0 1-1.123-1.123V7.866a3.521 3.521 0 0 1 .344-1.6 1.142 1.142 0 0 1-.832-1.077v-.548A1.121 1.121 0 0 1 2.154 3.55h.284c.228.004.452.06.654.164.258-.658.57-1.293.931-1.9C4.665.889 5.656.716 5.983.659 6.825.529 7.677.473 8.529.49 9.38.473 10.234.53 11.077.66c.325.057 1.317.23 1.958 1.154.361.607.672 1.242.93 1.9.2-.104.423-.16.648-.164h.29c.6.013 1.083.495 1.097 1.094zm-.77.027a.346.346 0 0 0-.347-.352h-.262a.854.854 0 0 0-.561.266.385.385 0 0 1-.62-.137 14.54 14.54 0 0 0-1.036-2.2 2.094 2.094 0 0 0-1.46-.834 13.97 13.97 0 0 0-2.415-.156 13.967 13.967 0 0 0-2.416.156 2.092 2.092 0 0 0-1.46.834c-.404.702-.75 1.436-1.032 2.194a.385.385 0 0 1-.62.137.854.854 0 0 0-.576-.265h-.256a.346.346 0 0 0-.348.351v.502c.009.2.17.36.37.368h.351a.385.385 0 0 1 .31.615 2.704 2.704 0 0 0-.542 1.702v3.55c0 .195.158.354.353.354h.962a.354.354 0 0 0 .354-.354v-.554c0-.212.172-.384.384-.384h8.327c.213 0 .385.172.385.384v.556a.354.354 0 0 0 .354.354h.961a.354.354 0 0 0 .354-.354V7.868a2.715 2.715 0 0 0-.446-1.575c-.03-.046-.063-.09-.096-.134a.385.385 0 0 1 .308-.616h.353c.201-.009.36-.17.368-.37V4.67zm-1.615 2.643v.355c0 .531-.43.962-.961.962h-1.346a.962.962 0 0 1-.243-1.889l1.347-.355a.962.962 0 0 1 1.201.928l.002-.001zm-.769 0a.192.192 0 0 0-.192-.193.192.192 0 0 0-.048 0l-1.346.356a.192.192 0 0 0 .048.375h1.346a.192.192 0 0 0 .192-.192v-.346zm-6.13.353c0 .531-.431.962-.962.962H4.408a.962.962 0 0 1-.962-.962v-.353a.962.962 0 0 1 1.208-.925L6 6.743c.42.111.712.49.715.923zm-.77 0a.192.192 0 0 0-.142-.192l-1.346-.356a.192.192 0 0 0-.05 0 .192.192 0 0 0-.193.193v.355c0 .107.086.193.193.193h1.346a.192.192 0 0 0 .192-.193z"/>
    </g>
</svg>
