<svg xmlns="http://www.w3.org/2000/svg" width="107" height="145" viewBox="0 0 107 145">
    <g fill="none" fill-rule="nonzero">
        <path fill="#018064" d="M66.707 65.338v74.995a4 4 0 0 1-4 4H4.444a4 4 0 0 1-4-4V44.37a4 4 0 0 1 3.98-4c37.13-.193 55.675-.303 55.636-.33-.028-.019.627 1.613 2.94 3.96.632.64 1.938 1.645 3.919 3.012l-.212 18.326z"/>
        <path fill="#404041" d="M44.576 120a4.445 4.445 0 1 0 .035-8.889 4.445 4.445 0 0 0-.035 8.889z"/>
        <path fill="#404041" d="M77.707 0C62.383.05 49.67 11.87 48.509 27.15c-1.163 15.28 9.613 28.888 24.753 31.257v66.482a4 4 0 0 1-4 4H19.89a4 4 0 0 1-4-4V37.836a4 4 0 0 1 4-4h15.89a4 4 0 0 0 4-3.99l.003-.888a4 4 0 0 0-4-4.011H11a4 4 0 0 0-4 4v104.83a4 4 0 0 0 4 4h67.151a4 4 0 0 0 4-4v-75.37c15.14-2.37 25.916-15.977 24.754-31.256C105.742 11.87 93.03.05 77.707 0zm0 49.894A20.503 20.503 0 1 1 98.11 29.39c.014 11.29-9.114 20.462-20.404 20.503z"/>
        <path fill="#404041" stroke="#404041" stroke-width="2" d="M73.567 36.51c.765.765 2.074.775 2.85 0l8.828-8.829 1.259-1.258c.745-.745.805-2.114 0-2.849-.806-.735-2.054-.795-2.85 0l-8.828 8.829c-.423.423-1.742-2.074-3.403-3.735-.745-.745-2.114-.805-2.849 0-.735.805-.795 2.054 0 2.849l4.993 4.993z"/>
    </g>
</svg>
